G04*
G04 #@! TF.GenerationSoftware,Altium Limited,Altium Designer,19.1.9 (167)*
G04*
G04 Layer_Color=16711935*
%FSLAX25Y25*%
%MOIN*%
G70*
G01*
G75*
%ADD13C,0.00500*%
%ADD47C,0.05800*%
G04:AMPARAMS|DCode=48|XSize=73mil|YSize=73mil|CornerRadius=20.25mil|HoleSize=0mil|Usage=FLASHONLY|Rotation=90.000|XOffset=0mil|YOffset=0mil|HoleType=Round|Shape=RoundedRectangle|*
%AMROUNDEDRECTD48*
21,1,0.07300,0.03250,0,0,90.0*
21,1,0.03250,0.07300,0,0,90.0*
1,1,0.04050,0.01625,0.01625*
1,1,0.04050,0.01625,-0.01625*
1,1,0.04050,-0.01625,-0.01625*
1,1,0.04050,-0.01625,0.01625*
%
%ADD48ROUNDEDRECTD48*%
%ADD49C,0.07300*%
G04:AMPARAMS|DCode=50|XSize=73mil|YSize=73mil|CornerRadius=20.25mil|HoleSize=0mil|Usage=FLASHONLY|Rotation=180.000|XOffset=0mil|YOffset=0mil|HoleType=Round|Shape=RoundedRectangle|*
%AMROUNDEDRECTD50*
21,1,0.07300,0.03250,0,0,180.0*
21,1,0.03250,0.07300,0,0,180.0*
1,1,0.04050,-0.01625,0.01625*
1,1,0.04050,0.01625,0.01625*
1,1,0.04050,0.01625,-0.01625*
1,1,0.04050,-0.01625,-0.01625*
%
%ADD50ROUNDEDRECTD50*%
%ADD51C,0.25800*%
D13*
X0Y0D02*
X475000D01*
Y362500D01*
X0Y0D02*
Y362500D01*
X475000D01*
D47*
X87874Y276114D02*
D03*
Y260366D02*
D03*
Y268240D02*
D03*
Y228870D02*
D03*
Y236744D02*
D03*
Y213122D02*
D03*
Y220996D02*
D03*
Y252492D02*
D03*
X80000Y260366D02*
D03*
X87874Y244618D02*
D03*
X80000Y268240D02*
D03*
Y276114D02*
D03*
Y244618D02*
D03*
Y252492D02*
D03*
Y228870D02*
D03*
Y236744D02*
D03*
Y213122D02*
D03*
Y220996D02*
D03*
Y205248D02*
D03*
X87874Y181626D02*
D03*
Y197374D02*
D03*
Y205248D02*
D03*
Y158004D02*
D03*
Y165878D02*
D03*
Y150130D02*
D03*
Y142256D02*
D03*
Y189500D02*
D03*
X80000Y197374D02*
D03*
X87874Y173752D02*
D03*
X80000Y189500D02*
D03*
Y181626D02*
D03*
Y165878D02*
D03*
Y173752D02*
D03*
Y158004D02*
D03*
Y142256D02*
D03*
Y150130D02*
D03*
X20945Y276114D02*
D03*
Y268240D02*
D03*
Y228870D02*
D03*
Y236744D02*
D03*
Y213122D02*
D03*
Y220996D02*
D03*
Y252492D02*
D03*
Y260366D02*
D03*
Y244618D02*
D03*
X13071Y276114D02*
D03*
Y252492D02*
D03*
Y268240D02*
D03*
Y260366D02*
D03*
Y244618D02*
D03*
Y228870D02*
D03*
Y236744D02*
D03*
X20945Y205248D02*
D03*
X13071Y213122D02*
D03*
Y220996D02*
D03*
Y205248D02*
D03*
X20945Y173752D02*
D03*
Y197374D02*
D03*
Y181626D02*
D03*
Y189500D02*
D03*
Y158004D02*
D03*
Y165878D02*
D03*
Y150130D02*
D03*
X13071Y189500D02*
D03*
Y197374D02*
D03*
Y173752D02*
D03*
Y181626D02*
D03*
Y158004D02*
D03*
Y165878D02*
D03*
X20945Y142256D02*
D03*
X13071D02*
D03*
Y150130D02*
D03*
D48*
X337500Y48000D02*
D03*
X160000D02*
D03*
D49*
X327500D02*
D03*
X317500D02*
D03*
X307500D02*
D03*
X297500D02*
D03*
X287500D02*
D03*
X257500D02*
D03*
X247500D02*
D03*
X277500D02*
D03*
X267500D02*
D03*
X237500D02*
D03*
X217500D02*
D03*
X207500D02*
D03*
X197500D02*
D03*
X227500D02*
D03*
X187500D02*
D03*
X150000D02*
D03*
X140000D02*
D03*
X130000D02*
D03*
X120000D02*
D03*
X110000D02*
D03*
X80000D02*
D03*
X70000D02*
D03*
X100000D02*
D03*
X90000D02*
D03*
X40000D02*
D03*
X30000D02*
D03*
X20000D02*
D03*
X10000D02*
D03*
X60000D02*
D03*
X50000D02*
D03*
X439500Y184000D02*
D03*
Y124000D02*
D03*
Y174000D02*
D03*
Y164000D02*
D03*
Y94000D02*
D03*
Y44000D02*
D03*
Y74000D02*
D03*
Y144000D02*
D03*
Y154000D02*
D03*
Y114000D02*
D03*
Y134000D02*
D03*
Y84000D02*
D03*
Y104000D02*
D03*
Y54000D02*
D03*
Y64000D02*
D03*
D50*
Y194000D02*
D03*
D51*
X455000Y20000D02*
D03*
Y342500D02*
D03*
X20000D02*
D03*
Y20000D02*
D03*
M02*
