G04*
G04 #@! TF.GenerationSoftware,Altium Limited,Altium Designer,19.1.9 (167)*
G04*
G04 Layer_Color=8388736*
%FSLAX25Y25*%
%MOIN*%
G70*
G01*
G75*
%ADD13C,0.00500*%
G04:AMPARAMS|DCode=33|XSize=47.37mil|YSize=37.53mil|CornerRadius=6.95mil|HoleSize=0mil|Usage=FLASHONLY|Rotation=90.000|XOffset=0mil|YOffset=0mil|HoleType=Round|Shape=RoundedRectangle|*
%AMROUNDEDRECTD33*
21,1,0.04737,0.02362,0,0,90.0*
21,1,0.03347,0.03753,0,0,90.0*
1,1,0.01391,0.01181,0.01673*
1,1,0.01391,0.01181,-0.01673*
1,1,0.01391,-0.01181,-0.01673*
1,1,0.01391,-0.01181,0.01673*
%
%ADD33ROUNDEDRECTD33*%
G04:AMPARAMS|DCode=34|XSize=21.65mil|YSize=62.99mil|CornerRadius=4.18mil|HoleSize=0mil|Usage=FLASHONLY|Rotation=180.000|XOffset=0mil|YOffset=0mil|HoleType=Round|Shape=RoundedRectangle|*
%AMROUNDEDRECTD34*
21,1,0.02165,0.05463,0,0,180.0*
21,1,0.01329,0.06299,0,0,180.0*
1,1,0.00837,-0.00664,0.02731*
1,1,0.00837,0.00664,0.02731*
1,1,0.00837,0.00664,-0.02731*
1,1,0.00837,-0.00664,-0.02731*
%
%ADD34ROUNDEDRECTD34*%
G04:AMPARAMS|DCode=35|XSize=31.62mil|YSize=51.31mil|CornerRadius=6.36mil|HoleSize=0mil|Usage=FLASHONLY|Rotation=90.000|XOffset=0mil|YOffset=0mil|HoleType=Round|Shape=RoundedRectangle|*
%AMROUNDEDRECTD35*
21,1,0.03162,0.03858,0,0,90.0*
21,1,0.01890,0.05131,0,0,90.0*
1,1,0.01272,0.01929,0.00945*
1,1,0.01272,0.01929,-0.00945*
1,1,0.01272,-0.01929,-0.00945*
1,1,0.01272,-0.01929,0.00945*
%
%ADD35ROUNDEDRECTD35*%
G04:AMPARAMS|DCode=36|XSize=21.65mil|YSize=57.09mil|CornerRadius=6.4mil|HoleSize=0mil|Usage=FLASHONLY|Rotation=90.000|XOffset=0mil|YOffset=0mil|HoleType=Round|Shape=RoundedRectangle|*
%AMROUNDEDRECTD36*
21,1,0.02165,0.04429,0,0,90.0*
21,1,0.00886,0.05709,0,0,90.0*
1,1,0.01280,0.02215,0.00443*
1,1,0.01280,0.02215,-0.00443*
1,1,0.01280,-0.02215,-0.00443*
1,1,0.01280,-0.02215,0.00443*
%
%ADD36ROUNDEDRECTD36*%
G04:AMPARAMS|DCode=37|XSize=15.75mil|YSize=59.06mil|CornerRadius=3.15mil|HoleSize=0mil|Usage=FLASHONLY|Rotation=270.000|XOffset=0mil|YOffset=0mil|HoleType=Round|Shape=RoundedRectangle|*
%AMROUNDEDRECTD37*
21,1,0.01575,0.05276,0,0,270.0*
21,1,0.00945,0.05906,0,0,270.0*
1,1,0.00630,-0.02638,-0.00472*
1,1,0.00630,-0.02638,0.00472*
1,1,0.00630,0.02638,0.00472*
1,1,0.00630,0.02638,-0.00472*
%
%ADD37ROUNDEDRECTD37*%
G04:AMPARAMS|DCode=38|XSize=31.62mil|YSize=82.8mil|CornerRadius=7.54mil|HoleSize=0mil|Usage=FLASHONLY|Rotation=90.000|XOffset=0mil|YOffset=0mil|HoleType=Round|Shape=RoundedRectangle|*
%AMROUNDEDRECTD38*
21,1,0.03162,0.06772,0,0,90.0*
21,1,0.01654,0.08280,0,0,90.0*
1,1,0.01509,0.03386,0.00827*
1,1,0.01509,0.03386,-0.00827*
1,1,0.01509,-0.03386,-0.00827*
1,1,0.01509,-0.03386,0.00827*
%
%ADD38ROUNDEDRECTD38*%
G04:AMPARAMS|DCode=39|XSize=143.04mil|YSize=78.08mil|CornerRadius=11.01mil|HoleSize=0mil|Usage=FLASHONLY|Rotation=90.000|XOffset=0mil|YOffset=0mil|HoleType=Round|Shape=RoundedRectangle|*
%AMROUNDEDRECTD39*
21,1,0.14304,0.05606,0,0,90.0*
21,1,0.12102,0.07808,0,0,90.0*
1,1,0.02202,0.02803,0.06051*
1,1,0.02202,0.02803,-0.06051*
1,1,0.02202,-0.02803,-0.06051*
1,1,0.02202,-0.02803,0.06051*
%
%ADD39ROUNDEDRECTD39*%
G04:AMPARAMS|DCode=40|XSize=55.24mil|YSize=55.24mil|CornerRadius=8.72mil|HoleSize=0mil|Usage=FLASHONLY|Rotation=0.000|XOffset=0mil|YOffset=0mil|HoleType=Round|Shape=RoundedRectangle|*
%AMROUNDEDRECTD40*
21,1,0.05524,0.03780,0,0,0.0*
21,1,0.03780,0.05524,0,0,0.0*
1,1,0.01745,0.01890,-0.01890*
1,1,0.01745,-0.01890,-0.01890*
1,1,0.01745,-0.01890,0.01890*
1,1,0.01745,0.01890,0.01890*
%
%ADD40ROUNDEDRECTD40*%
G04:AMPARAMS|DCode=41|XSize=15.75mil|YSize=53.15mil|CornerRadius=3.15mil|HoleSize=0mil|Usage=FLASHONLY|Rotation=0.000|XOffset=0mil|YOffset=0mil|HoleType=Round|Shape=RoundedRectangle|*
%AMROUNDEDRECTD41*
21,1,0.01575,0.04685,0,0,0.0*
21,1,0.00945,0.05315,0,0,0.0*
1,1,0.00630,0.00472,-0.02343*
1,1,0.00630,-0.00472,-0.02343*
1,1,0.00630,-0.00472,0.02343*
1,1,0.00630,0.00472,0.02343*
%
%ADD41ROUNDEDRECTD41*%
G04:AMPARAMS|DCode=42|XSize=27.65mil|YSize=53.24mil|CornerRadius=5.17mil|HoleSize=0mil|Usage=FLASHONLY|Rotation=180.000|XOffset=0mil|YOffset=0mil|HoleType=Round|Shape=RoundedRectangle|*
%AMROUNDEDRECTD42*
21,1,0.02765,0.04291,0,0,180.0*
21,1,0.01732,0.05324,0,0,180.0*
1,1,0.01033,-0.00866,0.02146*
1,1,0.01033,0.00866,0.02146*
1,1,0.01033,0.00866,-0.02146*
1,1,0.01033,-0.00866,-0.02146*
%
%ADD42ROUNDEDRECTD42*%
G04:AMPARAMS|DCode=43|XSize=47.37mil|YSize=57.21mil|CornerRadius=7.94mil|HoleSize=0mil|Usage=FLASHONLY|Rotation=180.000|XOffset=0mil|YOffset=0mil|HoleType=Round|Shape=RoundedRectangle|*
%AMROUNDEDRECTD43*
21,1,0.04737,0.04134,0,0,180.0*
21,1,0.03150,0.05721,0,0,180.0*
1,1,0.01587,-0.01575,0.02067*
1,1,0.01587,0.01575,0.02067*
1,1,0.01587,0.01575,-0.02067*
1,1,0.01587,-0.01575,-0.02067*
%
%ADD43ROUNDEDRECTD43*%
G04:AMPARAMS|DCode=44|XSize=143.04mil|YSize=78.08mil|CornerRadius=11.01mil|HoleSize=0mil|Usage=FLASHONLY|Rotation=0.000|XOffset=0mil|YOffset=0mil|HoleType=Round|Shape=RoundedRectangle|*
%AMROUNDEDRECTD44*
21,1,0.14304,0.05606,0,0,0.0*
21,1,0.12102,0.07808,0,0,0.0*
1,1,0.02202,0.06051,-0.02803*
1,1,0.02202,-0.06051,-0.02803*
1,1,0.02202,-0.06051,0.02803*
1,1,0.02202,0.06051,0.02803*
%
%ADD44ROUNDEDRECTD44*%
G04:AMPARAMS|DCode=45|XSize=47.37mil|YSize=57.21mil|CornerRadius=7.94mil|HoleSize=0mil|Usage=FLASHONLY|Rotation=270.000|XOffset=0mil|YOffset=0mil|HoleType=Round|Shape=RoundedRectangle|*
%AMROUNDEDRECTD45*
21,1,0.04737,0.04134,0,0,270.0*
21,1,0.03150,0.05721,0,0,270.0*
1,1,0.01587,-0.02067,-0.01575*
1,1,0.01587,-0.02067,0.01575*
1,1,0.01587,0.02067,0.01575*
1,1,0.01587,0.02067,-0.01575*
%
%ADD45ROUNDEDRECTD45*%
G04:AMPARAMS|DCode=46|XSize=55.24mil|YSize=55.24mil|CornerRadius=8.72mil|HoleSize=0mil|Usage=FLASHONLY|Rotation=90.000|XOffset=0mil|YOffset=0mil|HoleType=Round|Shape=RoundedRectangle|*
%AMROUNDEDRECTD46*
21,1,0.05524,0.03780,0,0,90.0*
21,1,0.03780,0.05524,0,0,90.0*
1,1,0.01745,0.01890,0.01890*
1,1,0.01745,0.01890,-0.01890*
1,1,0.01745,-0.01890,-0.01890*
1,1,0.01745,-0.01890,0.01890*
%
%ADD46ROUNDEDRECTD46*%
%ADD47C,0.05800*%
%ADD48C,0.07300*%
G04:AMPARAMS|DCode=49|XSize=73mil|YSize=73mil|CornerRadius=20.25mil|HoleSize=0mil|Usage=FLASHONLY|Rotation=90.000|XOffset=0mil|YOffset=0mil|HoleType=Round|Shape=RoundedRectangle|*
%AMROUNDEDRECTD49*
21,1,0.07300,0.03250,0,0,90.0*
21,1,0.03250,0.07300,0,0,90.0*
1,1,0.04050,0.01625,0.01625*
1,1,0.04050,0.01625,-0.01625*
1,1,0.04050,-0.01625,-0.01625*
1,1,0.04050,-0.01625,0.01625*
%
%ADD49ROUNDEDRECTD49*%
G04:AMPARAMS|DCode=50|XSize=73mil|YSize=73mil|CornerRadius=20.25mil|HoleSize=0mil|Usage=FLASHONLY|Rotation=180.000|XOffset=0mil|YOffset=0mil|HoleType=Round|Shape=RoundedRectangle|*
%AMROUNDEDRECTD50*
21,1,0.07300,0.03250,0,0,180.0*
21,1,0.03250,0.07300,0,0,180.0*
1,1,0.04050,-0.01625,0.01625*
1,1,0.04050,0.01625,0.01625*
1,1,0.04050,0.01625,-0.01625*
1,1,0.04050,-0.01625,-0.01625*
%
%ADD50ROUNDEDRECTD50*%
%ADD51C,0.25800*%
D13*
X0Y0D02*
X475000D01*
Y362500D01*
X0Y0D02*
Y362500D01*
X475000D01*
D33*
X117189Y98882D02*
D03*
X140811D02*
D03*
X117189Y84118D02*
D03*
X140811D02*
D03*
X160811Y308118D02*
D03*
X137189D02*
D03*
X160811Y322882D02*
D03*
X137189D02*
D03*
X121189Y291382D02*
D03*
X144811D02*
D03*
X121189Y276618D02*
D03*
X144811D02*
D03*
D34*
X260543Y70083D02*
D03*
X263102D02*
D03*
X265661D02*
D03*
X260543Y92917D02*
D03*
X263102D02*
D03*
X265661D02*
D03*
X273339Y70083D02*
D03*
X268220D02*
D03*
X270779D02*
D03*
X275898D02*
D03*
X278457D02*
D03*
X268220Y92917D02*
D03*
X275898D02*
D03*
X278457D02*
D03*
X270779D02*
D03*
X273339D02*
D03*
D35*
X65382Y314760D02*
D03*
Y322240D02*
D03*
Y318500D02*
D03*
X75618Y314760D02*
D03*
Y322240D02*
D03*
D36*
X181240Y90220D02*
D03*
Y92779D02*
D03*
Y95339D02*
D03*
Y87661D02*
D03*
X198760D02*
D03*
Y90220D02*
D03*
Y92779D02*
D03*
Y95339D02*
D03*
D37*
X199017Y259378D02*
D03*
Y257410D02*
D03*
Y255441D02*
D03*
Y253472D02*
D03*
Y251504D02*
D03*
Y249535D02*
D03*
Y247567D02*
D03*
Y245598D02*
D03*
Y243630D02*
D03*
Y241661D02*
D03*
Y239693D02*
D03*
Y237724D02*
D03*
Y235756D02*
D03*
Y233787D02*
D03*
Y231819D02*
D03*
Y229850D02*
D03*
Y227882D02*
D03*
Y225913D02*
D03*
Y223945D02*
D03*
Y221976D02*
D03*
Y220008D02*
D03*
Y218039D02*
D03*
Y216071D02*
D03*
Y214102D02*
D03*
X228938Y259378D02*
D03*
Y257410D02*
D03*
Y255441D02*
D03*
Y253472D02*
D03*
Y251504D02*
D03*
Y249535D02*
D03*
Y247567D02*
D03*
Y245598D02*
D03*
Y243630D02*
D03*
Y241661D02*
D03*
Y239693D02*
D03*
Y237724D02*
D03*
Y235756D02*
D03*
Y233787D02*
D03*
Y231819D02*
D03*
Y229850D02*
D03*
Y227882D02*
D03*
Y225913D02*
D03*
Y223945D02*
D03*
Y221976D02*
D03*
Y220008D02*
D03*
Y218039D02*
D03*
Y216071D02*
D03*
Y214102D02*
D03*
X199000Y207307D02*
D03*
Y205339D02*
D03*
Y203370D02*
D03*
Y201402D02*
D03*
Y199433D02*
D03*
Y197465D02*
D03*
Y195496D02*
D03*
Y193528D02*
D03*
Y191559D02*
D03*
Y189591D02*
D03*
Y187622D02*
D03*
Y185653D02*
D03*
Y183685D02*
D03*
Y181717D02*
D03*
Y179748D02*
D03*
Y177779D02*
D03*
Y175811D02*
D03*
Y173843D02*
D03*
Y171874D02*
D03*
Y169905D02*
D03*
Y167937D02*
D03*
Y165969D02*
D03*
Y164000D02*
D03*
Y162031D02*
D03*
X228921Y207307D02*
D03*
Y205339D02*
D03*
Y203370D02*
D03*
Y201402D02*
D03*
Y199433D02*
D03*
Y197465D02*
D03*
Y195496D02*
D03*
Y193528D02*
D03*
Y191559D02*
D03*
Y189591D02*
D03*
Y187622D02*
D03*
Y185653D02*
D03*
Y183685D02*
D03*
Y181717D02*
D03*
Y179748D02*
D03*
Y177779D02*
D03*
Y175811D02*
D03*
Y173843D02*
D03*
Y171874D02*
D03*
Y169905D02*
D03*
Y167937D02*
D03*
Y165969D02*
D03*
Y164000D02*
D03*
Y162031D02*
D03*
D38*
X344996Y74000D02*
D03*
Y79000D02*
D03*
Y84000D02*
D03*
Y89000D02*
D03*
Y99000D02*
D03*
Y94000D02*
D03*
Y104000D02*
D03*
Y114000D02*
D03*
Y109000D02*
D03*
X382004Y74000D02*
D03*
Y84000D02*
D03*
Y79000D02*
D03*
Y94000D02*
D03*
Y89000D02*
D03*
Y104000D02*
D03*
Y99000D02*
D03*
Y114000D02*
D03*
Y109000D02*
D03*
D39*
X404000Y137000D02*
D03*
X33500Y298000D02*
D03*
X172000Y73000D02*
D03*
X65500Y293143D02*
D03*
X334500Y254500D02*
D03*
D40*
X121134Y306500D02*
D03*
X112866D02*
D03*
X401366Y44000D02*
D03*
X409634D02*
D03*
X401366Y54000D02*
D03*
X409634D02*
D03*
X401366Y64000D02*
D03*
X409634D02*
D03*
X401366Y74000D02*
D03*
X409634D02*
D03*
X401366Y84000D02*
D03*
X409634D02*
D03*
X401429Y94000D02*
D03*
X409697D02*
D03*
X401429Y104000D02*
D03*
X409697D02*
D03*
X401429Y114000D02*
D03*
X409697D02*
D03*
D41*
X351268Y170319D02*
D03*
X349299D02*
D03*
X355205D02*
D03*
X353236D02*
D03*
X347331D02*
D03*
X345362D02*
D03*
X357173D02*
D03*
X361110D02*
D03*
X359142D02*
D03*
X363079D02*
D03*
X367016D02*
D03*
X365047D02*
D03*
X345362Y247681D02*
D03*
X349299D02*
D03*
X347331D02*
D03*
X353236D02*
D03*
X351268D02*
D03*
X357173D02*
D03*
X355205D02*
D03*
X363079D02*
D03*
X359142D02*
D03*
X367016D02*
D03*
X361110D02*
D03*
X365047D02*
D03*
X376858Y170319D02*
D03*
X374890D02*
D03*
X380795D02*
D03*
X378827D02*
D03*
X368984D02*
D03*
X372921D02*
D03*
X370953D02*
D03*
X384732D02*
D03*
X382764D02*
D03*
X388669D02*
D03*
X386701D02*
D03*
X390638D02*
D03*
X370953Y247681D02*
D03*
X368984D02*
D03*
X374890D02*
D03*
X372921D02*
D03*
X378827D02*
D03*
X376858D02*
D03*
X384732D02*
D03*
X380795D02*
D03*
X386701D02*
D03*
X382764D02*
D03*
X388669D02*
D03*
X390638D02*
D03*
D42*
X259079Y186362D02*
D03*
X255929D02*
D03*
X265378D02*
D03*
X262228D02*
D03*
X268528D02*
D03*
X274827D02*
D03*
X271677D02*
D03*
X277976D02*
D03*
X284276D02*
D03*
X281126D02*
D03*
X255929Y231638D02*
D03*
X262228D02*
D03*
X259079D02*
D03*
X268528D02*
D03*
X265378D02*
D03*
X277976D02*
D03*
X274827D02*
D03*
X271677D02*
D03*
X284276D02*
D03*
X281126D02*
D03*
X300024Y186362D02*
D03*
X306323D02*
D03*
X303173D02*
D03*
X290575D02*
D03*
X287425D02*
D03*
X296874D02*
D03*
X293724D02*
D03*
X312622D02*
D03*
X309472D02*
D03*
X318921D02*
D03*
X315772D02*
D03*
X322071D02*
D03*
X290575Y231638D02*
D03*
X287425D02*
D03*
X296874D02*
D03*
X293724D02*
D03*
X315772D02*
D03*
X312622D02*
D03*
X322071D02*
D03*
X318921D02*
D03*
X303173D02*
D03*
X300024D02*
D03*
X309472D02*
D03*
X306323D02*
D03*
D43*
X191063Y70500D02*
D03*
X198937D02*
D03*
X369563Y158000D02*
D03*
X377437D02*
D03*
X135126Y250500D02*
D03*
X143000D02*
D03*
X282500Y248500D02*
D03*
X290374D02*
D03*
X142126Y59437D02*
D03*
X150000D02*
D03*
X135063Y149500D02*
D03*
X142937D02*
D03*
X281063Y298500D02*
D03*
X288937D02*
D03*
X258762Y163417D02*
D03*
X266636D02*
D03*
X135063Y158000D02*
D03*
X142937D02*
D03*
X135126Y206500D02*
D03*
X143000D02*
D03*
X135126Y198000D02*
D03*
X143000D02*
D03*
X135126Y215000D02*
D03*
X143000D02*
D03*
X135126Y223500D02*
D03*
X143000D02*
D03*
X135126Y259000D02*
D03*
X143000D02*
D03*
X329126Y175000D02*
D03*
X337000D02*
D03*
X329126Y162000D02*
D03*
X337000D02*
D03*
X99625Y293000D02*
D03*
X107499D02*
D03*
X191063Y78500D02*
D03*
X198937D02*
D03*
X181000Y114500D02*
D03*
X188874D02*
D03*
X181126Y106500D02*
D03*
X189000D02*
D03*
X417563Y44000D02*
D03*
X425437D02*
D03*
X417563Y54000D02*
D03*
X425437D02*
D03*
X417500Y64000D02*
D03*
X425374D02*
D03*
X417500Y74000D02*
D03*
X425374D02*
D03*
X417500Y84000D02*
D03*
X425374D02*
D03*
X417500Y94000D02*
D03*
X425374D02*
D03*
X417500Y104000D02*
D03*
X425374D02*
D03*
X417500Y114000D02*
D03*
X425374D02*
D03*
X275063Y101500D02*
D03*
X282937D02*
D03*
X241626Y70000D02*
D03*
X249500D02*
D03*
X83063Y322000D02*
D03*
X90937D02*
D03*
D44*
X246000Y111000D02*
D03*
X98000Y339500D02*
D03*
X20722Y317278D02*
D03*
X374500Y298500D02*
D03*
X396500D02*
D03*
X340000Y62000D02*
D03*
X49500Y339500D02*
D03*
X121000Y142500D02*
D03*
X251000Y249500D02*
D03*
X109000Y205500D02*
D03*
Y215000D02*
D03*
X116500Y225000D02*
D03*
X114000Y257000D02*
D03*
X332500Y297000D02*
D03*
X284500Y161000D02*
D03*
X115000Y196000D02*
D03*
X199000Y323500D02*
D03*
D45*
X242000Y196063D02*
D03*
Y203937D02*
D03*
X54500Y317063D02*
D03*
Y324937D02*
D03*
X91000Y306626D02*
D03*
Y314500D02*
D03*
X238000Y234063D02*
D03*
Y241937D02*
D03*
X199000Y104563D02*
D03*
Y112437D02*
D03*
X392500Y115000D02*
D03*
Y122874D02*
D03*
X252454Y85252D02*
D03*
Y93126D02*
D03*
X244454Y85315D02*
D03*
Y93189D02*
D03*
X263832Y259378D02*
D03*
Y251504D02*
D03*
X263500Y298563D02*
D03*
Y306437D02*
D03*
X303500Y163417D02*
D03*
Y171291D02*
D03*
X385000Y149126D02*
D03*
Y157000D02*
D03*
X38500Y317126D02*
D03*
Y325000D02*
D03*
X417539Y276634D02*
D03*
Y284508D02*
D03*
X409539Y276634D02*
D03*
Y284508D02*
D03*
X393539Y276634D02*
D03*
Y284508D02*
D03*
X393000Y149126D02*
D03*
Y157000D02*
D03*
X401539Y276634D02*
D03*
Y284508D02*
D03*
X182500Y307000D02*
D03*
Y314874D02*
D03*
X231500Y85000D02*
D03*
Y92874D02*
D03*
X207500Y96563D02*
D03*
Y104437D02*
D03*
X160500Y105937D02*
D03*
Y113811D02*
D03*
X168500Y98063D02*
D03*
Y105937D02*
D03*
X223500Y85063D02*
D03*
Y92937D02*
D03*
X215500Y96563D02*
D03*
Y104437D02*
D03*
X100000Y63563D02*
D03*
Y71437D02*
D03*
X90000Y63563D02*
D03*
Y71437D02*
D03*
X80000Y63563D02*
D03*
Y71437D02*
D03*
X70000Y63563D02*
D03*
Y71437D02*
D03*
X335000Y113563D02*
D03*
Y121437D02*
D03*
X388000Y23563D02*
D03*
Y31437D02*
D03*
X364000Y23626D02*
D03*
Y31500D02*
D03*
X355500Y23563D02*
D03*
Y31437D02*
D03*
X327000Y109063D02*
D03*
Y116937D02*
D03*
X319000Y104000D02*
D03*
Y111874D02*
D03*
X355500Y42563D02*
D03*
Y50437D02*
D03*
X60000Y63563D02*
D03*
Y71437D02*
D03*
X380000Y23563D02*
D03*
Y31437D02*
D03*
X372000Y23626D02*
D03*
Y31500D02*
D03*
X333500Y83500D02*
D03*
Y91374D02*
D03*
X50000Y63563D02*
D03*
Y71437D02*
D03*
X40000Y63563D02*
D03*
Y71437D02*
D03*
X30000Y63563D02*
D03*
Y71437D02*
D03*
X20000Y63563D02*
D03*
Y71437D02*
D03*
X322952Y64095D02*
D03*
Y71969D02*
D03*
X314898Y63968D02*
D03*
Y71842D02*
D03*
X296806Y84595D02*
D03*
Y92469D02*
D03*
X305306Y84658D02*
D03*
Y92532D02*
D03*
X322952Y84531D02*
D03*
Y92405D02*
D03*
X314898Y84595D02*
D03*
Y92469D02*
D03*
X296806Y64031D02*
D03*
Y71905D02*
D03*
X305306Y64095D02*
D03*
Y71969D02*
D03*
X46500Y317000D02*
D03*
Y324874D02*
D03*
X173500Y307000D02*
D03*
Y314874D02*
D03*
X10000Y64000D02*
D03*
Y71874D02*
D03*
X104013Y306500D02*
D03*
Y314374D02*
D03*
D46*
X100000Y92571D02*
D03*
Y84303D02*
D03*
X90000Y92634D02*
D03*
Y84366D02*
D03*
X80000Y92634D02*
D03*
Y84366D02*
D03*
X70000Y92634D02*
D03*
Y84366D02*
D03*
X60000Y93134D02*
D03*
Y84866D02*
D03*
X50000Y93134D02*
D03*
Y84866D02*
D03*
X40000Y93134D02*
D03*
Y84866D02*
D03*
X30000Y93134D02*
D03*
Y84866D02*
D03*
X20000Y93134D02*
D03*
Y84866D02*
D03*
D47*
X13071Y150130D02*
D03*
Y142256D02*
D03*
X20945D02*
D03*
X13071Y165878D02*
D03*
Y158004D02*
D03*
Y181626D02*
D03*
Y173752D02*
D03*
Y197374D02*
D03*
Y189500D02*
D03*
X20945Y150130D02*
D03*
Y165878D02*
D03*
Y158004D02*
D03*
Y189500D02*
D03*
Y181626D02*
D03*
Y197374D02*
D03*
Y173752D02*
D03*
X13071Y205248D02*
D03*
Y220996D02*
D03*
Y213122D02*
D03*
X20945Y205248D02*
D03*
X13071Y236744D02*
D03*
Y228870D02*
D03*
Y244618D02*
D03*
Y260366D02*
D03*
Y268240D02*
D03*
Y252492D02*
D03*
Y276114D02*
D03*
X20945Y244618D02*
D03*
Y260366D02*
D03*
Y252492D02*
D03*
Y220996D02*
D03*
Y213122D02*
D03*
Y236744D02*
D03*
Y228870D02*
D03*
Y268240D02*
D03*
Y276114D02*
D03*
X80000Y150130D02*
D03*
Y142256D02*
D03*
Y158004D02*
D03*
Y173752D02*
D03*
Y165878D02*
D03*
Y181626D02*
D03*
Y189500D02*
D03*
X87874Y173752D02*
D03*
X80000Y197374D02*
D03*
X87874Y189500D02*
D03*
Y142256D02*
D03*
Y150130D02*
D03*
Y165878D02*
D03*
Y158004D02*
D03*
Y205248D02*
D03*
Y197374D02*
D03*
Y181626D02*
D03*
X80000Y205248D02*
D03*
Y220996D02*
D03*
Y213122D02*
D03*
Y236744D02*
D03*
Y228870D02*
D03*
Y252492D02*
D03*
Y244618D02*
D03*
Y276114D02*
D03*
Y268240D02*
D03*
X87874Y244618D02*
D03*
X80000Y260366D02*
D03*
X87874Y252492D02*
D03*
Y220996D02*
D03*
Y213122D02*
D03*
Y236744D02*
D03*
Y228870D02*
D03*
Y268240D02*
D03*
Y260366D02*
D03*
Y276114D02*
D03*
D48*
X187500Y48000D02*
D03*
X227500D02*
D03*
X197500D02*
D03*
X207500D02*
D03*
X217500D02*
D03*
X237500D02*
D03*
X267500D02*
D03*
X277500D02*
D03*
X247500D02*
D03*
X257500D02*
D03*
X287500D02*
D03*
X297500D02*
D03*
X307500D02*
D03*
X317500D02*
D03*
X327500D02*
D03*
X50000D02*
D03*
X60000D02*
D03*
X10000D02*
D03*
X20000D02*
D03*
X30000D02*
D03*
X40000D02*
D03*
X90000D02*
D03*
X100000D02*
D03*
X70000D02*
D03*
X80000D02*
D03*
X110000D02*
D03*
X120000D02*
D03*
X130000D02*
D03*
X140000D02*
D03*
X150000D02*
D03*
X439500Y64000D02*
D03*
Y54000D02*
D03*
Y104000D02*
D03*
Y84000D02*
D03*
Y134000D02*
D03*
Y114000D02*
D03*
Y154000D02*
D03*
Y144000D02*
D03*
Y74000D02*
D03*
Y44000D02*
D03*
Y94000D02*
D03*
Y164000D02*
D03*
Y174000D02*
D03*
Y124000D02*
D03*
Y184000D02*
D03*
D49*
X337500Y48000D02*
D03*
X160000D02*
D03*
D50*
X439500Y194000D02*
D03*
D51*
X455000Y20000D02*
D03*
Y342500D02*
D03*
X20000D02*
D03*
Y20000D02*
D03*
M02*
