G04*
G04 #@! TF.GenerationSoftware,Altium Limited,Altium Designer,19.1.9 (167)*
G04*
G04 Layer_Color=16711935*
%FSLAX25Y25*%
%MOIN*%
G70*
G01*
G75*
%ADD13C,0.00500*%
%ADD42C,0.05800*%
%ADD43C,0.07300*%
G04:AMPARAMS|DCode=44|XSize=73mil|YSize=73mil|CornerRadius=20.25mil|HoleSize=0mil|Usage=FLASHONLY|Rotation=90.000|XOffset=0mil|YOffset=0mil|HoleType=Round|Shape=RoundedRectangle|*
%AMROUNDEDRECTD44*
21,1,0.07300,0.03250,0,0,90.0*
21,1,0.03250,0.07300,0,0,90.0*
1,1,0.04050,0.01625,0.01625*
1,1,0.04050,0.01625,-0.01625*
1,1,0.04050,-0.01625,-0.01625*
1,1,0.04050,-0.01625,0.01625*
%
%ADD44ROUNDEDRECTD44*%
G04:AMPARAMS|DCode=45|XSize=73mil|YSize=73mil|CornerRadius=20.25mil|HoleSize=0mil|Usage=FLASHONLY|Rotation=180.000|XOffset=0mil|YOffset=0mil|HoleType=Round|Shape=RoundedRectangle|*
%AMROUNDEDRECTD45*
21,1,0.07300,0.03250,0,0,180.0*
21,1,0.03250,0.07300,0,0,180.0*
1,1,0.04050,-0.01625,0.01625*
1,1,0.04050,0.01625,0.01625*
1,1,0.04050,0.01625,-0.01625*
1,1,0.04050,-0.01625,-0.01625*
%
%ADD45ROUNDEDRECTD45*%
%ADD46C,0.25800*%
%ADD57C,0.03600*%
D13*
X0Y0D02*
X475000D01*
Y362500D01*
X0Y0D02*
Y362500D01*
X475000D01*
D42*
X13071Y150130D02*
D03*
Y142256D02*
D03*
X20945D02*
D03*
X13071Y165878D02*
D03*
Y158004D02*
D03*
Y181626D02*
D03*
Y173752D02*
D03*
Y197374D02*
D03*
Y189500D02*
D03*
X20945Y150130D02*
D03*
Y165878D02*
D03*
Y158004D02*
D03*
Y189500D02*
D03*
Y181626D02*
D03*
Y197374D02*
D03*
Y173752D02*
D03*
X13071Y205248D02*
D03*
Y220996D02*
D03*
Y213122D02*
D03*
X20945Y205248D02*
D03*
X13071Y236744D02*
D03*
Y228870D02*
D03*
Y244618D02*
D03*
Y260366D02*
D03*
Y268240D02*
D03*
Y252492D02*
D03*
Y276114D02*
D03*
X20945Y244618D02*
D03*
Y260366D02*
D03*
Y252492D02*
D03*
Y220996D02*
D03*
Y213122D02*
D03*
Y236744D02*
D03*
Y228870D02*
D03*
Y268240D02*
D03*
Y276114D02*
D03*
X80000Y150130D02*
D03*
Y142256D02*
D03*
Y158004D02*
D03*
Y173752D02*
D03*
Y165878D02*
D03*
Y181626D02*
D03*
Y189500D02*
D03*
X87874Y173752D02*
D03*
X80000Y197374D02*
D03*
X87874Y189500D02*
D03*
Y142256D02*
D03*
Y150130D02*
D03*
Y165878D02*
D03*
Y158004D02*
D03*
Y205248D02*
D03*
Y197374D02*
D03*
Y181626D02*
D03*
X80000Y205248D02*
D03*
Y220996D02*
D03*
Y213122D02*
D03*
Y236744D02*
D03*
Y228870D02*
D03*
Y252492D02*
D03*
Y244618D02*
D03*
Y276114D02*
D03*
Y268240D02*
D03*
X87874Y244618D02*
D03*
X80000Y260366D02*
D03*
X87874Y252492D02*
D03*
Y220996D02*
D03*
Y213122D02*
D03*
Y236744D02*
D03*
Y228870D02*
D03*
Y268240D02*
D03*
Y260366D02*
D03*
Y276114D02*
D03*
D43*
X187500Y48000D02*
D03*
X227500D02*
D03*
X197500D02*
D03*
X207500D02*
D03*
X217500D02*
D03*
X237500D02*
D03*
X267500D02*
D03*
X277500D02*
D03*
X247500D02*
D03*
X257500D02*
D03*
X287500D02*
D03*
X297500D02*
D03*
X307500D02*
D03*
X317500D02*
D03*
X327500D02*
D03*
X50000D02*
D03*
X60000D02*
D03*
X10000D02*
D03*
X20000D02*
D03*
X30000D02*
D03*
X40000D02*
D03*
X90000D02*
D03*
X100000D02*
D03*
X70000D02*
D03*
X80000D02*
D03*
X110000D02*
D03*
X120000D02*
D03*
X130000D02*
D03*
X140000D02*
D03*
X150000D02*
D03*
X439500Y64000D02*
D03*
Y54000D02*
D03*
Y104000D02*
D03*
Y84000D02*
D03*
Y134000D02*
D03*
Y114000D02*
D03*
Y154000D02*
D03*
Y144000D02*
D03*
Y74000D02*
D03*
Y44000D02*
D03*
Y94000D02*
D03*
Y164000D02*
D03*
Y174000D02*
D03*
Y124000D02*
D03*
Y184000D02*
D03*
D44*
X337500Y48000D02*
D03*
X160000D02*
D03*
D45*
X439500Y194000D02*
D03*
D46*
X455000Y20000D02*
D03*
Y342500D02*
D03*
X20000D02*
D03*
Y20000D02*
D03*
D57*
X10867Y100367D02*
D03*
X394937Y23563D02*
D03*
X271339Y174589D02*
D03*
X271917Y163417D02*
D03*
X265254Y171354D02*
D03*
X314000Y173500D02*
D03*
X309500Y171805D02*
D03*
X268500Y180500D02*
D03*
X300024Y180768D02*
D03*
X293724Y180361D02*
D03*
X303500Y177663D02*
D03*
X70500Y312496D02*
D03*
X312300Y159184D02*
D03*
X216730Y221770D02*
D03*
X329500Y63984D02*
D03*
X238000Y64500D02*
D03*
X230000Y244000D02*
D03*
X216266Y246824D02*
D03*
X355500Y37500D02*
D03*
X345874Y23626D02*
D03*
X341500Y125000D02*
D03*
X293500Y98500D02*
D03*
X307000Y127500D02*
D03*
X389000Y137000D02*
D03*
X386500Y118500D02*
D03*
X327000Y122610D02*
D03*
X319000Y119000D02*
D03*
X333500Y98000D02*
D03*
X389504Y109000D02*
D03*
Y74000D02*
D03*
Y79000D02*
D03*
Y84000D02*
D03*
Y89000D02*
D03*
Y94000D02*
D03*
Y99000D02*
D03*
Y104000D02*
D03*
X126300Y197926D02*
D03*
X153500Y106000D02*
D03*
X199000Y99174D02*
D03*
X189000Y99500D02*
D03*
X171095Y114500D02*
D03*
X314898Y78219D02*
D03*
X322952Y78250D02*
D03*
X238000Y93126D02*
D03*
X149774Y306642D02*
D03*
X409510Y316990D02*
D03*
X100000Y320500D02*
D03*
X94500Y331500D02*
D03*
X100000Y326000D02*
D03*
X182500Y322000D02*
D03*
X46500Y309500D02*
D03*
X100000Y331500D02*
D03*
X163000Y280500D02*
D03*
X167500Y277500D02*
D03*
X171000Y274500D02*
D03*
X290000Y271000D02*
D03*
X175500D02*
D03*
X262000Y283651D02*
D03*
X303500Y280500D02*
D03*
X330500D02*
D03*
X306300Y313996D02*
D03*
X127500Y259000D02*
D03*
X120500Y206500D02*
D03*
X123000Y215000D02*
D03*
X121500Y149500D02*
D03*
X128595Y158000D02*
D03*
X163000Y184500D02*
D03*
X163100Y230400D02*
D03*
X129000Y250500D02*
D03*
Y223500D02*
D03*
X167500Y233000D02*
D03*
X284276Y269224D02*
D03*
X184000Y266500D02*
D03*
X275000Y263500D02*
D03*
X179500Y268500D02*
D03*
X188100Y262600D02*
D03*
X192500Y257500D02*
D03*
X279500Y266500D02*
D03*
X271019Y260000D02*
D03*
X163000Y214102D02*
D03*
X167500Y215677D02*
D03*
X171000Y218827D02*
D03*
X175500Y220402D02*
D03*
X179500Y223551D02*
D03*
X184000Y225126D02*
D03*
X188000Y228276D02*
D03*
X192500Y229850D02*
D03*
X171000Y236150D02*
D03*
X175500Y237724D02*
D03*
X179500Y240874D02*
D03*
X184000Y242449D02*
D03*
X188000Y245598D02*
D03*
X192500Y247173D02*
D03*
X217000Y257145D02*
D03*
X192000Y185500D02*
D03*
X191913Y167267D02*
D03*
X187500Y168929D02*
D03*
X183500Y172079D02*
D03*
X179500Y173653D02*
D03*
X175500Y176803D02*
D03*
X170913Y178465D02*
D03*
X167000Y181528D02*
D03*
X163000Y131000D02*
D03*
X167000Y134921D02*
D03*
X171000Y138500D02*
D03*
X175500Y142500D02*
D03*
X179500Y146500D02*
D03*
X183500Y149800D02*
D03*
X187500Y152500D02*
D03*
X192000Y155782D02*
D03*
X205854Y175228D02*
D03*
X163000Y200425D02*
D03*
X170913Y195788D02*
D03*
X167087Y198938D02*
D03*
X175500Y194126D02*
D03*
X179500Y190976D02*
D03*
X183413Y189314D02*
D03*
X187500Y186252D02*
D03*
X206528Y192551D02*
D03*
X409520Y293480D02*
D03*
X322515Y296485D02*
D03*
X330000Y181500D02*
D03*
X274500Y297095D02*
D03*
X270500Y301500D02*
D03*
X400000Y309500D02*
D03*
X387795Y176819D02*
D03*
X382000Y178000D02*
D03*
X385500Y255000D02*
D03*
X391349Y254349D02*
D03*
X395375Y252444D02*
D03*
X388000Y267500D02*
D03*
X377886Y253896D02*
D03*
X384086Y269000D02*
D03*
X381000Y272016D02*
D03*
X376500Y274500D02*
D03*
X373000Y278000D02*
D03*
X327000Y260500D02*
D03*
X322598Y162000D02*
D03*
X216701Y175228D02*
D03*
X229756Y192551D02*
D03*
X206000Y222000D02*
D03*
X206528Y239299D02*
D03*
X230500Y223500D02*
D03*
X216701Y239299D02*
D03*
X253500Y163417D02*
D03*
X265000Y239500D02*
D03*
X269000Y242500D02*
D03*
X246000Y181000D02*
D03*
X241043Y180000D02*
D03*
X236000Y179500D02*
D03*
X309472Y179028D02*
D03*
X368500Y279500D02*
D03*
X365000Y282000D02*
D03*
X361500Y286000D02*
D03*
X358000Y289500D02*
D03*
X355000Y293500D02*
D03*
X371500Y241500D02*
D03*
X379500D02*
D03*
X386500D02*
D03*
X392000D02*
D03*
X388000Y230000D02*
D03*
X385000Y226000D02*
D03*
X381591Y134921D02*
D03*
X360900Y149600D02*
D03*
X366000Y164000D02*
D03*
X371953Y163819D02*
D03*
X393000Y140500D02*
D03*
X385500Y141500D02*
D03*
X273388Y156067D02*
D03*
X277232Y152500D02*
D03*
X281418Y149800D02*
D03*
X284276Y176644D02*
D03*
X287500Y180500D02*
D03*
X285500Y146500D02*
D03*
X293500Y142500D02*
D03*
X297000Y138500D02*
D03*
X300000Y135000D02*
D03*
X302990Y131000D02*
D03*
X350236Y155782D02*
D03*
X366500Y146500D02*
D03*
X326402Y212200D02*
D03*
X378000Y216000D02*
D03*
X392551Y198055D02*
D03*
X391622Y209000D02*
D03*
X377500Y138500D02*
D03*
X372000Y142500D02*
D03*
X382827Y163819D02*
D03*
X355673Y152500D02*
D03*
X295500Y273000D02*
D03*
X300512Y276012D02*
D03*
X364500Y258000D02*
D03*
X373500Y211000D02*
D03*
X381000Y221500D02*
D03*
X349500Y192500D02*
D03*
X344500Y189500D02*
D03*
X337000Y189000D02*
D03*
X290500Y238500D02*
D03*
X392500Y177000D02*
D03*
X369500Y151500D02*
D03*
X377858Y176819D02*
D03*
X377390Y163819D02*
D03*
X372921Y176819D02*
D03*
X367016D02*
D03*
X362079D02*
D03*
X361110Y163819D02*
D03*
X357142Y176819D02*
D03*
X352205D02*
D03*
X364496Y204496D02*
D03*
X353500Y197000D02*
D03*
X395750Y207250D02*
D03*
X388500Y211500D02*
D03*
X321000Y209500D02*
D03*
X255089Y291500D02*
D03*
X259000Y288000D02*
D03*
X303173Y238138D02*
D03*
X300024Y242138D02*
D03*
X296874Y238138D02*
D03*
X293724Y242138D02*
D03*
X284276D02*
D03*
X281126Y238138D02*
D03*
X277976Y242138D02*
D03*
X274827Y238138D02*
D03*
X359000Y201291D02*
D03*
X358000Y257500D02*
D03*
X361500Y262000D02*
D03*
X359142Y240858D02*
D03*
X355000Y261500D02*
D03*
X351268Y257181D02*
D03*
X347799Y261681D02*
D03*
X344331Y257181D02*
D03*
X341862Y261681D02*
D03*
X312622Y198500D02*
D03*
X309839Y201500D02*
D03*
X315925Y206575D02*
D03*
X217000Y210500D02*
D03*
X309000Y215000D02*
D03*
X312464Y217500D02*
D03*
X316000Y221000D02*
D03*
X320500Y223500D02*
D03*
X325000Y226500D02*
D03*
X319000Y175500D02*
D03*
X322071Y179362D02*
D03*
X315772D02*
D03*
X296874Y176659D02*
D03*
X274827Y180421D02*
D03*
X281126Y180863D02*
D03*
X277976Y176754D02*
D03*
X309472Y238138D02*
D03*
X312622Y242138D02*
D03*
X315772Y238138D02*
D03*
X318921Y242138D02*
D03*
X322071Y238138D02*
D03*
X255089Y236958D02*
D03*
X262000Y236500D02*
D03*
X259000Y240500D02*
D03*
X208900Y206600D02*
D03*
X212000Y210500D02*
D03*
Y226500D02*
D03*
X209000Y229850D02*
D03*
M02*
