M48
;Layer_Color=9474304
;FILE_FORMAT=2:5
INCH,LZ
;TYPE=PLATED
T1F00S00C0.01100
T2F00S00C0.02800
T3F00S00C0.04000
T4F00S00C0.12500
%
T01
X0345874Y0023626
X03555Y00375
X0394937Y0023563
X0389504Y0074
Y0079
Y0084
Y0089
Y0094
Y0099
Y0104
Y0109
X03865Y01185
X0389Y0137
X0393Y01405
X03855Y01415
X0381591Y0134921
X03775Y01385
X0372Y01425
X03695Y01515
X0371953Y0163819
X037739
X0382827
X0382Y0178
X0377858Y0176819
X0372921
X0387795
X03925Y0177
X0392551Y0198055
X0391622Y0209
X03885Y02115
X039575Y020725
X03735Y0211
X0364496Y0204496
X0359Y0201291
X03535Y0197
X03495Y01925
X03445Y01895
X0337Y0189
X033Y01815
X0322071Y0179362
X0315772
X0309472Y0179028
X03095Y0171805
X0314Y01735
X0319Y01755
X0322598Y0162
X03123Y0159184
X03035Y0177663
X0300024Y0180768
X0293724Y0180361
X02875Y01805
X0281126Y0180863
X0274827Y0180421
X02685Y01805
X0271339Y0174589
X0277976Y0176754
X0284276Y0176644
X0296874Y0176659
X0265254Y0171354
X0271917Y0163417
X0273388Y0156067
X0277232Y01525
X0281418Y01498
X02855Y01465
X02935Y01425
X0297Y01385
X03Y0135
X030299Y0131
X0307Y01275
X0319Y0119
X0327Y012261
X03415Y0125
X03335Y0098
X0322952Y007825
X0314898Y0078219
X03295Y0063984
X02935Y00985
X0238Y0093126
Y00645
X02535Y0163417
X0246Y0181
X0241043Y018
X02365Y01785
X0235823Y0196063
X0238Y0212453
X0222394Y0173843
X0312622Y01985
X0309839Y02015
X0315925Y0206575
X0321Y02095
X0326402Y02122
X0352205Y0176819
X0357142
X0362079
X0367016
X0366Y0164
X036111Y0163819
X03609Y01496
X0355673Y01525
X0350236Y0155782
X03665Y01465
X0192Y0155782
X01875Y01525
X01835Y01498
X01795Y01465
X01755Y01425
X0171Y01385
X0167Y0134921
X0163Y0131
X0171095Y01145
X01535Y0106
X0189Y00995
X0199Y0099174
X0192Y0165
X01875Y0168929
X01835Y0172079
X01795Y0173653
X01755Y0176803
X0170956Y0179235
X0167Y0182
X0163Y0185
X0163478Y0202777
X0168706Y0201588
X0170913Y0195788
X01755Y0194126
X01795Y0190976
X0183413Y0189314
X01875Y0186252
X0192Y01855
X0205528Y0195496
X02089Y02066
X0212Y02105
X0204854Y0173843
X0128595Y0158
X01215Y01495
X01263Y0197926
X01205Y02065
X0010867Y0100367
X00465Y03095
X00705Y0312496
X01Y03205
Y0326
Y03315
X00945
X0149Y0308118
X0163Y0288
X01675Y0285
X0171Y0282
X01755Y02785
X01795Y0276
X0184Y0274
X01881Y02701
X0193436Y0267261
X01925Y0257173
X0188Y0255598
X0184Y0252449
X01795Y0250874
X01755Y0247724
X0171Y024615
X01675Y0243
X01631Y02404
X0163Y0214102
X01675Y0215677
X0171Y0218827
X01755Y0221
X01795Y0224
X0184Y0227
X0188Y023
X0191Y0234
X0204196Y0225913
X0212Y02265
X0209Y022985
X0205545Y0247567
X0129Y02505
X01275Y0259
X0129Y02235
X0123Y0215
X01825Y0322
X0255089Y02915
X0259Y0288
X0262Y0283651
X02745Y0297095
X02705Y03015
X0271019Y026
X0275Y02635
X02795Y02665
X0284276Y0269224
X029Y0271
X02955Y0273
X0300512Y0276012
X03035Y02805
X03305
X0327Y02605
X0341862Y0261681
X0347799
X0355Y02615
X0358Y02575
X03645Y0258
X03615Y0262
X0351268Y0257181
X0344331
X0359142Y0240858
X0322071Y0238138
X0315772
X0309472
X0303173
X0296874
X02905Y02385
X0293724Y0242138
X0300024
X0312622
X0318921
X03205Y02235
X0316Y0221
X0312464Y02175
X0309Y0215
X0325Y02265
X0281126Y0238138
X0274827
X0277976Y0242138
X0284276
X0269Y02425
X0265Y02395
X0262Y02365
X0259Y02405
X0255089Y0236958
X02355Y0248
X0238Y02525
X02215Y0226
X021673Y022177
X0322515Y0296485
X03063Y0313996
X0355Y02935
X0358Y02895
X03615Y0286
X0365Y0282
X03685Y02795
X0373Y0278
X03765Y02745
X0381Y0272016
X0384086Y0269
X0388Y02675
X03855Y0255
X0391349Y0254349
X0395375Y0252444
X0392Y02415
X03865
X03795
X03715
X0377886Y0253896
X0388Y023
X0385Y0226
X0381Y02215
X0378Y0216
X040952Y029348
X040951Y031699
X04Y03095
T02
X008Y0142256
Y015013
Y0158004
Y0165878
Y0173752
Y0181626
Y01895
Y0197374
X0087874
Y01895
Y0181626
Y0173752
Y0165878
Y0158004
Y015013
Y0142256
Y0205248
X008
X0020945
Y0197374
Y01895
X0013071
Y0197374
Y0205248
Y0181626
Y0173752
Y0165878
Y0158004
Y015013
Y0142256
X0020945
Y015013
Y0158004
Y0165878
Y0173752
Y0181626
Y0213122
X0013071
Y0220996
Y022887
Y0236744
Y0244618
Y0252492
Y0260366
Y026824
Y0276114
X0020945
Y026824
Y0260366
Y0252492
Y0244618
Y0236744
Y022887
Y0220996
X008
Y0213122
X0087874
Y0220996
Y022887
Y0236744
X008
Y022887
Y0244618
Y0252492
Y0260366
Y026824
Y0276114
X0087874
Y026824
Y0260366
Y0252492
Y0244618
T03
X001Y0048
X002
X003
X004
X005
X006
X007
X008
X009
X01
X011
X012
X013
X014
X015
X016
X01875
X01975
X02075
X02175
X02275
X02375
X02475
X02575
X02675
X02775
X02875
X02975
X03075
X03175
X03275
X03375
X04395Y0044
Y0054
Y0064
Y0074
Y0084
Y0094
Y0104
Y0114
Y0124
Y0134
Y0144
Y0154
Y0164
Y0174
Y0184
Y0194
T04
X002Y002
X0455
X002Y03425
X0455
M30
