G04*
G04 #@! TF.GenerationSoftware,Altium Limited,Altium Designer,19.1.9 (167)*
G04*
G04 Layer_Color=8388736*
%FSLAX25Y25*%
%MOIN*%
G70*
G01*
G75*
%ADD13C,0.00500*%
%ADD15C,0.01000*%
%ADD63C,0.00394*%
D13*
X127425Y91500D02*
X130575D01*
X129000Y89925D02*
Y93075D01*
X116205Y101540D02*
X141795D01*
X116205Y81461D02*
Y101540D01*
Y81461D02*
X141795D01*
Y101540D01*
X267500Y81500D02*
X271500D01*
X269500Y79500D02*
Y83500D01*
X69500Y318500D02*
X71500D01*
X70500Y317500D02*
Y319500D01*
X190000Y90500D02*
Y92500D01*
X189000Y91500D02*
X191000D01*
X362500Y94000D02*
X364500D01*
X363500Y93000D02*
Y95000D01*
X403000Y137000D02*
X405000D01*
X404000Y136000D02*
Y138000D01*
X50472Y208185D02*
Y210185D01*
X49472Y209185D02*
X51473D01*
X115806Y306500D02*
X118168D01*
X116987Y305319D02*
Y307681D01*
X113050Y304039D02*
Y308961D01*
X120924Y304039D02*
Y308961D01*
X113050D02*
X120924D01*
X113050Y304039D02*
X120924D01*
X368000Y208000D02*
Y210000D01*
X367000Y209000D02*
X369000D01*
X288000D02*
X290000D01*
X289000Y208000D02*
Y210000D01*
X191063Y68039D02*
X198937D01*
X191063D02*
Y72961D01*
X198937D01*
Y68039D02*
Y72961D01*
X194000Y70500D02*
X196000D01*
X195000Y69500D02*
Y71500D01*
X181516Y43000D02*
X343484Y43000D01*
X181516Y43000D02*
Y53000D01*
X343484D01*
Y43000D02*
Y53000D01*
X261500Y48000D02*
X263500D01*
X262500Y47000D02*
Y49000D01*
X369563Y155539D02*
X377437D01*
X369563D02*
Y160461D01*
X377437D01*
Y155539D02*
Y160461D01*
X372500Y158000D02*
X374500D01*
X373500Y157000D02*
Y159000D01*
X135126Y248039D02*
Y252961D01*
X143000D01*
X135126Y248039D02*
X143000D01*
X138063Y250500D02*
X140063D01*
X139063Y249500D02*
Y251500D01*
X143000Y248039D02*
Y252961D01*
X147425Y315500D02*
X150575D01*
X149000Y313925D02*
Y317075D01*
X136205Y305460D02*
X161795D01*
Y325539D01*
X136205D02*
X161795D01*
X136205Y305460D02*
Y325539D01*
X246000Y110000D02*
Y112000D01*
X245000Y111000D02*
X247000D01*
X32500Y298000D02*
X34500D01*
X33500Y297000D02*
Y299000D01*
X98000Y338500D02*
Y340500D01*
X97000Y339500D02*
X99000D01*
X20722Y316278D02*
Y318278D01*
X19723Y317278D02*
X21723D01*
X374500Y297500D02*
Y299500D01*
X373500Y298500D02*
X375500D01*
X396500Y297500D02*
Y299500D01*
X395500Y298500D02*
X397500D01*
X171000Y73000D02*
X173000D01*
X172000Y72000D02*
Y74000D01*
X340000Y61000D02*
Y63000D01*
X339000Y62000D02*
X341000D01*
X239539Y203937D02*
X244461D01*
X239539Y196063D02*
Y203937D01*
Y196063D02*
X244461D01*
Y203937D01*
X241000Y200000D02*
X243000D01*
X242000Y199000D02*
Y201000D01*
X282500Y246039D02*
Y250961D01*
Y246039D02*
X290374D01*
Y250961D01*
X285437Y248500D02*
X287437D01*
X286437Y247500D02*
Y249500D01*
X282500Y250961D02*
X290374D01*
X52039Y317063D02*
X56961D01*
X52039D02*
Y324937D01*
X56961Y317063D02*
Y324937D01*
X53500Y321000D02*
X55500D01*
X54500Y320000D02*
Y322000D01*
X52039Y324937D02*
X56961D01*
X88539Y306626D02*
X93461D01*
X88539D02*
Y314500D01*
X93461Y306626D02*
Y314500D01*
X90000Y310563D02*
X92000D01*
X91000Y309563D02*
Y311563D01*
X88539Y314500D02*
X93461D01*
X235539Y234063D02*
X240461D01*
X235539D02*
Y241937D01*
X240461Y234063D02*
Y241937D01*
X237000Y238000D02*
X239000D01*
X238000Y237000D02*
Y239000D01*
X235539Y241937D02*
X240461D01*
X196539Y112437D02*
X201461D01*
X196539Y104563D02*
Y112437D01*
Y104563D02*
X201461D01*
Y112437D01*
X198000Y108500D02*
X200000D01*
X199000Y107500D02*
Y109500D01*
X390039Y122874D02*
X394961D01*
X390039Y115000D02*
Y122874D01*
Y115000D02*
X394961D01*
Y122874D01*
X391500Y118937D02*
X393500D01*
X392500Y117937D02*
Y119937D01*
X142126Y56976D02*
Y61898D01*
Y56976D02*
X150000D01*
Y61898D01*
X145063Y59437D02*
X147063D01*
X146063Y58437D02*
Y60437D01*
X142126Y61898D02*
X150000D01*
X100000Y87243D02*
Y89605D01*
X98819Y88424D02*
X101181D01*
X97539Y84487D02*
X102461D01*
X97539Y92361D02*
X102461D01*
X97539Y84487D02*
Y92361D01*
X102461Y84487D02*
Y92361D01*
X404331Y44000D02*
X406694D01*
X405513Y42819D02*
Y45181D01*
X409450Y41539D02*
Y46461D01*
X401576Y41539D02*
Y46461D01*
Y41539D02*
X409450D01*
X401576Y46461D02*
X409450D01*
X90000Y87306D02*
Y89669D01*
X88819Y88487D02*
X91181D01*
X87539Y84550D02*
X92461D01*
X87539Y92424D02*
X92461D01*
X87539Y84550D02*
Y92424D01*
X92461Y84550D02*
Y92424D01*
X404331Y54000D02*
X406694D01*
X405513Y52819D02*
Y55181D01*
X409450Y51539D02*
Y56461D01*
X401576Y51539D02*
Y56461D01*
Y51539D02*
X409450D01*
X401576Y56461D02*
X409450D01*
X80000Y87306D02*
Y89669D01*
X78819Y88487D02*
X81181D01*
X77539Y84550D02*
X82461D01*
X77539Y92424D02*
X82461D01*
X77539Y84550D02*
Y92424D01*
X82461Y84550D02*
Y92424D01*
X404331Y64000D02*
X406694D01*
X405513Y62819D02*
Y65181D01*
X409450Y61539D02*
Y66461D01*
X401576Y61539D02*
Y66461D01*
Y61539D02*
X409450D01*
X401576Y66461D02*
X409450D01*
X70000Y87306D02*
Y89669D01*
X68819Y88487D02*
X71181D01*
X67539Y84550D02*
X72461D01*
X67539Y92424D02*
X72461D01*
X67539Y84550D02*
Y92424D01*
X72461Y84550D02*
Y92424D01*
X404331Y74000D02*
X406694D01*
X405513Y72819D02*
Y75181D01*
X409450Y71539D02*
Y76461D01*
X401576Y71539D02*
Y76461D01*
Y71539D02*
X409450D01*
X401576Y76461D02*
X409450D01*
X60000Y87806D02*
Y90168D01*
X58819Y88987D02*
X61181D01*
X57539Y85050D02*
X62461D01*
X57539Y92924D02*
X62461D01*
X57539Y85050D02*
Y92924D01*
X62461Y85050D02*
Y92924D01*
X404331Y84000D02*
X406694D01*
X405513Y82819D02*
Y85181D01*
X409450Y81539D02*
Y86461D01*
X401576Y81539D02*
Y86461D01*
Y81539D02*
X409450D01*
X401576Y86461D02*
X409450D01*
X50000Y87806D02*
Y90168D01*
X48819Y88987D02*
X51181D01*
X47539Y85050D02*
X52461D01*
X47539Y92924D02*
X52461D01*
X47539Y85050D02*
Y92924D01*
X52461Y85050D02*
Y92924D01*
X404394Y94000D02*
X406757D01*
X405576Y92819D02*
Y95181D01*
X409513Y91539D02*
Y96461D01*
X401639Y91539D02*
Y96461D01*
Y91539D02*
X409513D01*
X401639Y96461D02*
X409513D01*
X40000Y87806D02*
Y90168D01*
X38819Y88987D02*
X41181D01*
X37539Y85050D02*
X42461D01*
X37539Y92924D02*
X42461D01*
X37539Y85050D02*
Y92924D01*
X42461Y85050D02*
Y92924D01*
X404394Y104000D02*
X406757D01*
X405576Y102819D02*
Y105181D01*
X409513Y101539D02*
Y106461D01*
X401639Y101539D02*
Y106461D01*
Y101539D02*
X409513D01*
X401639Y106461D02*
X409513D01*
X30000Y87806D02*
Y90168D01*
X28819Y88987D02*
X31181D01*
X27539Y85050D02*
X32461D01*
X27539Y92924D02*
X32461D01*
X27539Y85050D02*
Y92924D01*
X32461Y85050D02*
Y92924D01*
X404394Y114000D02*
X406757D01*
X405576Y112819D02*
Y115181D01*
X409513Y111539D02*
Y116461D01*
X401639Y111539D02*
Y116461D01*
Y111539D02*
X409513D01*
X401639Y116461D02*
X409513D01*
X20000Y87806D02*
Y90168D01*
X18819Y88987D02*
X21181D01*
X17539Y85050D02*
X22461D01*
X17539Y92924D02*
X22461D01*
X17539Y85050D02*
Y92924D01*
X22461Y85050D02*
Y92924D01*
X249993Y85252D02*
X254914D01*
X249993D02*
Y93126D01*
X254914Y85252D02*
Y93126D01*
X251454Y89189D02*
X253454D01*
X252454Y88189D02*
Y90189D01*
X249993Y93126D02*
X254914D01*
X241993Y85315D02*
X246914D01*
X241993D02*
Y93189D01*
X246914Y85315D02*
Y93189D01*
X243454Y89252D02*
X245454D01*
X244454Y88252D02*
Y90252D01*
X241993Y93189D02*
X246914D01*
X4016Y43000D02*
X165984Y43000D01*
X4016Y43000D02*
Y53000D01*
X165984D01*
Y43000D02*
Y53000D01*
X84000Y48000D02*
X86000D01*
X85000Y47000D02*
Y49000D01*
X444500Y199984D02*
X444500Y38016D01*
X434500D02*
X444500D01*
X434500D02*
Y199984D01*
X444500D01*
X439500Y118000D02*
Y120000D01*
X438500Y119000D02*
X440500D01*
X135063Y147039D02*
Y151961D01*
X142937D01*
X135063Y147039D02*
X142937D01*
X138000Y149500D02*
X140000D01*
X139000Y148500D02*
Y150500D01*
X142937Y147039D02*
Y151961D01*
X261372Y251504D02*
Y259378D01*
X266293D01*
Y251504D02*
Y259378D01*
X261372Y251504D02*
X266293D01*
X263832Y254441D02*
Y256441D01*
X262832Y255441D02*
X264832D01*
X261039Y306437D02*
X265961D01*
X261039Y298563D02*
Y306437D01*
Y298563D02*
X265961D01*
Y306437D01*
X262500Y302500D02*
X264500D01*
X263500Y301500D02*
Y303500D01*
X281063Y296039D02*
Y300961D01*
Y296039D02*
X288937D01*
Y300961D01*
X284000Y298500D02*
X286000D01*
X285000Y297500D02*
Y299500D01*
X281063Y300961D02*
X288937D01*
X301039Y171291D02*
X305961D01*
X301039Y163417D02*
Y171291D01*
Y163417D02*
X305961D01*
Y171291D01*
X302500Y167354D02*
X304500D01*
X303500Y166354D02*
Y168354D01*
X258762Y160957D02*
X266636D01*
X258762D02*
Y165878D01*
X266636D01*
Y160957D02*
Y165878D01*
X261699Y163417D02*
X263699D01*
X262699Y162417D02*
Y164417D01*
X135063Y155539D02*
Y160461D01*
X142937D01*
X135063Y155539D02*
X142937D01*
X138000Y158000D02*
X140000D01*
X139000Y157000D02*
Y159000D01*
X142937Y155539D02*
Y160461D01*
X135126Y204039D02*
Y208961D01*
X143000D01*
X135126Y204039D02*
X143000D01*
X138063Y206500D02*
X140063D01*
X139063Y205500D02*
Y207500D01*
X143000Y204039D02*
Y208961D01*
X135126Y195539D02*
Y200461D01*
X143000D01*
X135126Y195539D02*
X143000D01*
X138063Y198000D02*
X140063D01*
X139063Y197000D02*
Y199000D01*
X143000Y195539D02*
Y200461D01*
X135126Y212539D02*
Y217461D01*
X143000D01*
X135126Y212539D02*
X143000D01*
X138063Y215000D02*
X140063D01*
X139063Y214000D02*
Y216000D01*
X143000Y212539D02*
Y217461D01*
X135126Y221039D02*
Y225961D01*
X143000D01*
X135126Y221039D02*
X143000D01*
X138063Y223500D02*
X140063D01*
X139063Y222500D02*
Y224500D01*
X143000Y221039D02*
Y225961D01*
X135126Y256539D02*
Y261461D01*
X143000D01*
X135126Y256539D02*
X143000D01*
X138063Y259000D02*
X140063D01*
X139063Y258000D02*
Y260000D01*
X143000Y256539D02*
Y261461D01*
X382539Y149126D02*
X387461D01*
X382539D02*
Y157000D01*
X387461Y149126D02*
Y157000D01*
X384000Y153063D02*
X386000D01*
X385000Y152063D02*
Y154063D01*
X382539Y157000D02*
X387461D01*
X36039Y317126D02*
X40961D01*
X36039D02*
Y325000D01*
X40961Y317126D02*
Y325000D01*
X37500Y321063D02*
X39500D01*
X38500Y320063D02*
Y322063D01*
X36039Y325000D02*
X40961D01*
X329126Y172539D02*
X337000D01*
X329126D02*
Y177461D01*
X337000D01*
Y172539D02*
Y177461D01*
X332063Y175000D02*
X334063D01*
X333063Y174000D02*
Y176000D01*
X329126Y159539D02*
X337000D01*
X329126D02*
Y164461D01*
X337000D01*
Y159539D02*
Y164461D01*
X332063Y162000D02*
X334063D01*
X333063Y161000D02*
Y163000D01*
X99625Y290539D02*
Y295461D01*
Y290539D02*
X107499D01*
Y295461D01*
X102562Y293000D02*
X104562D01*
X103562Y292000D02*
Y294000D01*
X99625Y295461D02*
X107499D01*
X415079Y276634D02*
X420000D01*
X415079D02*
Y284508D01*
X420000Y276634D02*
Y284508D01*
X416539Y280571D02*
X418539D01*
X417539Y279571D02*
Y281571D01*
X415079Y284508D02*
X420000D01*
X407079Y276634D02*
X412000D01*
X407079D02*
Y284508D01*
X412000Y276634D02*
Y284508D01*
X408539Y280571D02*
X410539D01*
X409539Y279571D02*
Y281571D01*
X407079Y284508D02*
X412000D01*
X391079D02*
X396000D01*
X391079Y276634D02*
Y284508D01*
Y276634D02*
X396000D01*
Y284508D01*
X392539Y280571D02*
X394539D01*
X393539Y279571D02*
Y281571D01*
X390539Y157000D02*
X395461D01*
X390539Y149126D02*
Y157000D01*
Y149126D02*
X395461D01*
Y157000D01*
X392000Y153063D02*
X394000D01*
X393000Y152063D02*
Y154063D01*
X399079Y276634D02*
X404000D01*
X399079D02*
Y284508D01*
X404000Y276634D02*
Y284508D01*
X400539Y280571D02*
X402539D01*
X401539Y279571D02*
Y281571D01*
X399079Y284508D02*
X404000D01*
X180039Y307000D02*
X184961D01*
X180039D02*
Y314874D01*
X184961Y307000D02*
Y314874D01*
X181500Y310937D02*
X183500D01*
X182500Y309937D02*
Y311937D01*
X180039Y314874D02*
X184961D01*
X191063Y76039D02*
Y80961D01*
Y76039D02*
X198937D01*
Y80961D01*
X194000Y78500D02*
X196000D01*
X195000Y77500D02*
Y79500D01*
X191063Y80961D02*
X198937D01*
X229039Y92874D02*
X233961D01*
X229039Y85000D02*
Y92874D01*
Y85000D02*
X233961D01*
Y92874D01*
X230500Y88937D02*
X232500D01*
X231500Y87937D02*
Y89937D01*
X205039Y104437D02*
X209961D01*
X205039Y96563D02*
Y104437D01*
Y96563D02*
X209961D01*
Y104437D01*
X206500Y100500D02*
X208500D01*
X207500Y99500D02*
Y101500D01*
X181000Y112039D02*
Y116961D01*
Y112039D02*
X188874D01*
Y116961D01*
X183937Y114500D02*
X185937D01*
X184937Y113500D02*
Y115500D01*
X181000Y116961D02*
X188874D01*
X158039Y113811D02*
X162961D01*
X158039Y105937D02*
Y113811D01*
Y105937D02*
X162961D01*
Y113811D01*
X159500Y109874D02*
X161500D01*
X160500Y108874D02*
Y110874D01*
X181126Y104039D02*
Y108961D01*
Y104039D02*
X189000D01*
Y108961D01*
X184063Y106500D02*
X186063D01*
X185063Y105500D02*
Y107500D01*
X181126Y108961D02*
X189000D01*
X166039Y98063D02*
X170961D01*
X166039D02*
Y105937D01*
X170961Y98063D02*
Y105937D01*
X167500Y102000D02*
X169500D01*
X168500Y101000D02*
Y103000D01*
X166039Y105937D02*
X170961D01*
X221039Y85063D02*
X225961D01*
X221039D02*
Y92937D01*
X225961Y85063D02*
Y92937D01*
X222500Y89000D02*
X224500D01*
X223500Y88000D02*
Y90000D01*
X221039Y92937D02*
X225961D01*
X213039Y96563D02*
X217961D01*
X213039D02*
Y104437D01*
X217961Y96563D02*
Y104437D01*
X214500Y100500D02*
X216500D01*
X215500Y99500D02*
Y101500D01*
X213039Y104437D02*
X217961D01*
X97539Y71437D02*
X102461D01*
X97539Y63563D02*
Y71437D01*
Y63563D02*
X102461D01*
Y71437D01*
X99000Y67500D02*
X101000D01*
X100000Y66500D02*
Y68500D01*
X417563Y41539D02*
Y46461D01*
Y41539D02*
X425437D01*
Y46461D01*
X420500Y44000D02*
X422500D01*
X421500Y43000D02*
Y45000D01*
X417563Y46461D02*
X425437D01*
X87539Y71437D02*
X92461D01*
X87539Y63563D02*
Y71437D01*
Y63563D02*
X92461D01*
Y71437D01*
X89000Y67500D02*
X91000D01*
X90000Y66500D02*
Y68500D01*
X417563Y51539D02*
Y56461D01*
Y51539D02*
X425437D01*
Y56461D01*
X420500Y54000D02*
X422500D01*
X421500Y53000D02*
Y55000D01*
X417563Y56461D02*
X425437D01*
X77539Y71437D02*
X82461D01*
X77539Y63563D02*
Y71437D01*
Y63563D02*
X82461D01*
Y71437D01*
X79000Y67500D02*
X81000D01*
X80000Y66500D02*
Y68500D01*
X417500Y61539D02*
Y66461D01*
Y61539D02*
X425374D01*
Y66461D01*
X420437Y64000D02*
X422437D01*
X421437Y63000D02*
Y65000D01*
X417500Y66461D02*
X425374D01*
X67539Y71437D02*
X72461D01*
X67539Y63563D02*
Y71437D01*
Y63563D02*
X72461D01*
Y71437D01*
X69000Y67500D02*
X71000D01*
X70000Y66500D02*
Y68500D01*
X417500Y71539D02*
Y76461D01*
Y71539D02*
X425374D01*
Y76461D01*
X420437Y74000D02*
X422437D01*
X421437Y73000D02*
Y75000D01*
X417500Y76461D02*
X425374D01*
X332539Y113563D02*
X337461D01*
X332539D02*
Y121437D01*
X337461Y113563D02*
Y121437D01*
X334000Y117500D02*
X336000D01*
X335000Y116500D02*
Y118500D01*
X332539Y121437D02*
X337461D01*
X385539Y23563D02*
X390461D01*
X385539D02*
Y31437D01*
X390461Y23563D02*
Y31437D01*
X387000Y27500D02*
X389000D01*
X388000Y26500D02*
Y28500D01*
X385539Y31437D02*
X390461D01*
X361539Y23626D02*
X366461D01*
X361539D02*
Y31500D01*
X366461Y23626D02*
Y31500D01*
X363000Y27563D02*
X365000D01*
X364000Y26563D02*
Y28563D01*
X361539Y31500D02*
X366461D01*
X353039Y23563D02*
X357961D01*
X353039D02*
Y31437D01*
X357961Y23563D02*
Y31437D01*
X354500Y27500D02*
X356500D01*
X355500Y26500D02*
Y28500D01*
X353039Y31437D02*
X357961D01*
X324539Y109063D02*
X329461D01*
X324539D02*
Y116937D01*
X329461Y109063D02*
Y116937D01*
X326000Y113000D02*
X328000D01*
X327000Y112000D02*
Y114000D01*
X324539Y116937D02*
X329461D01*
X316539Y104000D02*
X321461D01*
X316539D02*
Y111874D01*
X321461Y104000D02*
Y111874D01*
X318000Y107937D02*
X320000D01*
X319000Y106937D02*
Y108937D01*
X316539Y111874D02*
X321461D01*
X353039Y50437D02*
X357961D01*
X353039Y42563D02*
Y50437D01*
Y42563D02*
X357961D01*
Y50437D01*
X354500Y46500D02*
X356500D01*
X355500Y45500D02*
Y47500D01*
X57539Y71437D02*
X62461D01*
X57539Y63563D02*
Y71437D01*
Y63563D02*
X62461D01*
Y71437D01*
X59000Y67500D02*
X61000D01*
X60000Y66500D02*
Y68500D01*
X417500Y81539D02*
Y86461D01*
Y81539D02*
X425374D01*
Y86461D01*
X420437Y84000D02*
X422437D01*
X421437Y83000D02*
Y85000D01*
X417500Y86461D02*
X425374D01*
X377539Y31437D02*
X382461D01*
X377539Y23563D02*
Y31437D01*
Y23563D02*
X382461D01*
Y31437D01*
X379000Y27500D02*
X381000D01*
X380000Y26500D02*
Y28500D01*
X369539Y31500D02*
X374461D01*
X369539Y23626D02*
Y31500D01*
Y23626D02*
X374461D01*
Y31500D01*
X371000Y27563D02*
X373000D01*
X372000Y26563D02*
Y28563D01*
X331039Y83500D02*
X335961D01*
X331039D02*
Y91374D01*
X335961Y83500D02*
Y91374D01*
X332500Y87437D02*
X334500D01*
X333500Y86437D02*
Y88437D01*
X331039Y91374D02*
X335961D01*
X47539Y71437D02*
X52461D01*
X47539Y63563D02*
Y71437D01*
Y63563D02*
X52461D01*
Y71437D01*
X49000Y67500D02*
X51000D01*
X50000Y66500D02*
Y68500D01*
X417500Y91539D02*
Y96461D01*
Y91539D02*
X425374D01*
Y96461D01*
X420437Y94000D02*
X422437D01*
X421437Y93000D02*
Y95000D01*
X417500Y96461D02*
X425374D01*
X37539Y71437D02*
X42461D01*
X37539Y63563D02*
Y71437D01*
Y63563D02*
X42461D01*
Y71437D01*
X39000Y67500D02*
X41000D01*
X40000Y66500D02*
Y68500D01*
X417500Y101539D02*
Y106461D01*
Y101539D02*
X425374D01*
Y106461D01*
X420437Y104000D02*
X422437D01*
X421437Y103000D02*
Y105000D01*
X417500Y106461D02*
X425374D01*
X27539Y71437D02*
X32461D01*
X27539Y63563D02*
Y71437D01*
Y63563D02*
X32461D01*
Y71437D01*
X29000Y67500D02*
X31000D01*
X30000Y66500D02*
Y68500D01*
X417500Y111539D02*
Y116461D01*
Y111539D02*
X425374D01*
Y116461D01*
X420437Y114000D02*
X422437D01*
X421437Y113000D02*
Y115000D01*
X417500Y116461D02*
X425374D01*
X17539Y71437D02*
X22461D01*
X17539Y63563D02*
Y71437D01*
Y63563D02*
X22461D01*
Y71437D01*
X19000Y67500D02*
X21000D01*
X20000Y66500D02*
Y68500D01*
X320492Y64095D02*
X325413D01*
X320492D02*
Y71969D01*
X325413Y64095D02*
Y71969D01*
X321952Y68032D02*
X323952D01*
X322952Y67032D02*
Y69032D01*
X320492Y71969D02*
X325413D01*
X312438Y63968D02*
X317359D01*
X312438D02*
Y71842D01*
X317359Y63968D02*
Y71842D01*
X313898Y67905D02*
X315898D01*
X314898Y66905D02*
Y68906D01*
X312438Y71842D02*
X317359D01*
X294345Y92469D02*
X299267D01*
X294345Y84595D02*
Y92469D01*
Y84595D02*
X299267D01*
Y92469D01*
X295806Y88532D02*
X297806D01*
X296806Y87532D02*
Y89531D01*
X302846Y92532D02*
X307767D01*
X302846Y84658D02*
Y92532D01*
Y84658D02*
X307767D01*
Y92532D01*
X304306Y88595D02*
X306306D01*
X305306Y87594D02*
Y89595D01*
X320492Y92405D02*
X325413D01*
X320492Y84531D02*
Y92405D01*
Y84531D02*
X325413D01*
Y92405D01*
X321952Y88468D02*
X323952D01*
X322952Y87468D02*
Y89468D01*
X312438Y92469D02*
X317359D01*
X312438Y84595D02*
Y92469D01*
Y84595D02*
X317359D01*
Y92469D01*
X313898Y88532D02*
X315898D01*
X314898Y87532D02*
Y89531D01*
X294345Y71905D02*
X299267D01*
X294345Y64031D02*
Y71905D01*
Y64031D02*
X299267D01*
Y71905D01*
X295806Y67968D02*
X297806D01*
X296806Y66969D02*
Y68968D01*
X302846Y71969D02*
X307767D01*
X302846Y64095D02*
Y71969D01*
Y64095D02*
X307767D01*
Y71969D01*
X304306Y68032D02*
X306306D01*
X305306Y67032D02*
Y69032D01*
X275063Y99039D02*
Y103961D01*
Y99039D02*
X282937D01*
Y103961D01*
X278000Y101500D02*
X280000D01*
X279000Y100500D02*
Y102500D01*
X275063Y103961D02*
X282937D01*
X241626Y67539D02*
Y72461D01*
Y67539D02*
X249500D01*
Y72461D01*
X244563Y70000D02*
X246563D01*
X245563Y69000D02*
Y71000D01*
X241626Y72461D02*
X249500D01*
X131425Y284000D02*
X134575D01*
X133000Y282425D02*
Y285575D01*
X120205Y294040D02*
X145795D01*
X120205Y273961D02*
Y294040D01*
Y273961D02*
X145795D01*
Y294040D01*
X83063Y319539D02*
Y324461D01*
Y319539D02*
X90937D01*
Y324461D01*
X86000Y322000D02*
X88000D01*
X87000Y321000D02*
Y323000D01*
X83063Y324461D02*
X90937D01*
X44039Y317000D02*
X48961D01*
X44039D02*
Y324874D01*
X48961Y317000D02*
Y324874D01*
X45500Y320937D02*
X47500D01*
X46500Y319937D02*
Y321937D01*
X44039Y324874D02*
X48961D01*
X64500Y293143D02*
X66500D01*
X65500Y292143D02*
Y294143D01*
X171039Y314874D02*
X175961D01*
X171039Y307000D02*
Y314874D01*
Y307000D02*
X175961D01*
Y314874D01*
X172500Y310937D02*
X174500D01*
X173500Y309937D02*
Y311937D01*
X7539Y71874D02*
X12461D01*
X7539Y64000D02*
Y71874D01*
Y64000D02*
X12461D01*
Y71874D01*
X9000Y67937D02*
X11000D01*
X10000Y66937D02*
Y68937D01*
X49500Y338500D02*
Y340500D01*
X48500Y339500D02*
X50500D01*
X101553Y306500D02*
X106474D01*
X101553D02*
Y314374D01*
X106474Y306500D02*
Y314374D01*
X103013Y310437D02*
X105013D01*
X104013Y309437D02*
Y311437D01*
X101553Y314374D02*
X106474D01*
X121000Y141500D02*
Y143500D01*
X120000Y142500D02*
X122000D01*
X251000Y248500D02*
Y250500D01*
X250000Y249500D02*
X252000D01*
X109000Y204500D02*
Y206500D01*
X108000Y205500D02*
X110000D01*
X109000Y214000D02*
Y216000D01*
X108000Y215000D02*
X110000D01*
X116500Y224000D02*
Y226000D01*
X115500Y225000D02*
X117500D01*
X114000Y256000D02*
Y258000D01*
X113000Y257000D02*
X115000D01*
X333500Y254500D02*
X335500D01*
X334500Y253500D02*
Y255500D01*
X332500Y296000D02*
Y298000D01*
X331500Y297000D02*
X333500D01*
X284500Y160000D02*
Y162000D01*
X283500Y161000D02*
X285500D01*
X115000Y195000D02*
Y197000D01*
X114000Y196000D02*
X116000D01*
X199000Y322500D02*
Y324500D01*
X198000Y323500D02*
X200000D01*
X0Y0D02*
X475000D01*
Y362500D01*
X0Y0D02*
Y362500D01*
X475000D01*
D15*
X9134Y138319D02*
Y280051D01*
Y138319D02*
X24882D01*
Y280051D01*
X9134D02*
X24882D01*
X76063Y138319D02*
Y280051D01*
Y138319D02*
X91811D01*
Y280051D01*
X76063D02*
X91811D01*
D63*
X264972Y76185D02*
G03*
X264972Y76185I-1969J0D01*
G01*
X189409Y94059D02*
G03*
X189409Y94059I-1969J0D01*
G01*
X224608Y215480D02*
G03*
X224608Y215480I-1969J0D01*
G01*
X354248Y113291D02*
G03*
X354248Y113291I-1969J0D01*
G01*
X390047Y241677D02*
G03*
X390047Y241677I-1969J0D01*
G01*
X258095Y192268D02*
G03*
X258095Y192268I-1969J0D01*
G01*
X224590Y163409D02*
G03*
X224590Y163409I-1969J0D01*
G01*
X259461Y72642D02*
Y90358D01*
Y72642D02*
X279539D01*
X259461Y90358D02*
X279539D01*
Y72642D02*
Y90358D01*
X67055Y312496D02*
X73945D01*
X67055D02*
Y324504D01*
X73945Y312496D02*
Y324504D01*
X67055D02*
X73945D01*
X183898Y85398D02*
X196102D01*
X183898D02*
Y97602D01*
X196102Y85398D02*
Y97602D01*
X183898D02*
X196102D01*
X201773Y261543D02*
X226182D01*
X201773Y211937D02*
X226182D01*
X201773D02*
Y261543D01*
X226182Y211937D02*
Y261543D01*
X348736Y71165D02*
Y116835D01*
X378264D01*
X348736Y71165D02*
X378264D01*
Y116835D01*
X344378Y172780D02*
Y245220D01*
Y172780D02*
X391622D01*
X344378Y245220D02*
X391622D01*
Y172780D02*
Y245220D01*
X252583Y188724D02*
Y229276D01*
Y188724D02*
X325417D01*
X252583Y229276D02*
X325417D01*
Y188724D02*
Y229276D01*
X201756Y209472D02*
X226165D01*
X201756Y159866D02*
X226165D01*
X201756D02*
Y209472D01*
X226165Y159866D02*
Y209472D01*
M02*
