G04*
G04 #@! TF.GenerationSoftware,Altium Limited,Altium Designer,19.1.9 (167)*
G04*
G04 Layer_Color=65535*
%FSLAX25Y25*%
%MOIN*%
G70*
G01*
G75*
%ADD10C,0.00984*%
%ADD11C,0.02362*%
%ADD12C,0.01968*%
%ADD13C,0.00500*%
%ADD14C,0.00787*%
%ADD15C,0.01000*%
%ADD16C,0.00600*%
%ADD17C,0.00800*%
%ADD18C,0.02000*%
G36*
X369883Y356013D02*
X368310D01*
Y357809D01*
X369883D01*
Y356013D01*
D02*
G37*
G36*
X361924D02*
X360350D01*
Y357809D01*
X361924D01*
Y356013D01*
D02*
G37*
G36*
X180803Y356013D02*
X179230D01*
Y357809D01*
X180803D01*
Y356013D01*
D02*
G37*
G36*
X353391Y358013D02*
X353520D01*
X353872Y357976D01*
X354260Y357920D01*
X354668Y357827D01*
X355112Y357716D01*
X355519Y357568D01*
X355538D01*
X355575Y357550D01*
X355630Y357513D01*
X355704Y357476D01*
X355889Y357383D01*
X356130Y357217D01*
X356408Y357031D01*
X356685Y356791D01*
X356944Y356513D01*
X357185Y356199D01*
Y356180D01*
X357204Y356162D01*
X357241Y356106D01*
X357278Y356050D01*
X357370Y355865D01*
X357481Y355625D01*
X357611Y355329D01*
X357703Y354977D01*
X357796Y354607D01*
X357833Y354200D01*
X356204Y354070D01*
Y354088D01*
Y354125D01*
X356186Y354181D01*
X356167Y354274D01*
X356112Y354477D01*
X356037Y354755D01*
X355926Y355051D01*
X355760Y355347D01*
X355556Y355625D01*
X355297Y355884D01*
X355260Y355902D01*
X355168Y355977D01*
X354982Y356087D01*
X354742Y356199D01*
X354427Y356310D01*
X354057Y356421D01*
X353594Y356495D01*
X353076Y356513D01*
X352817D01*
X352706Y356495D01*
X352558Y356476D01*
X352224Y356439D01*
X351854Y356365D01*
X351484Y356273D01*
X351132Y356124D01*
X350984Y356032D01*
X350836Y355939D01*
X350799Y355921D01*
X350725Y355847D01*
X350614Y355717D01*
X350503Y355569D01*
X350373Y355366D01*
X350262Y355143D01*
X350188Y354884D01*
X350151Y354588D01*
Y354551D01*
Y354477D01*
X350170Y354348D01*
X350207Y354200D01*
X350262Y354014D01*
X350355Y353829D01*
X350466Y353644D01*
X350633Y353459D01*
X350651Y353441D01*
X350744Y353385D01*
X350818Y353329D01*
X350892Y353292D01*
X351003Y353237D01*
X351132Y353163D01*
X351299Y353107D01*
X351484Y353033D01*
X351688Y352959D01*
X351928Y352867D01*
X352187Y352793D01*
X352484Y352700D01*
X352817Y352626D01*
X353187Y352534D01*
X353205D01*
X353279Y352515D01*
X353391Y352497D01*
X353520Y352460D01*
X353687Y352423D01*
X353890Y352367D01*
X354094Y352311D01*
X354316Y352256D01*
X354797Y352126D01*
X355260Y351997D01*
X355482Y351923D01*
X355686Y351849D01*
X355871Y351793D01*
X356019Y351719D01*
X356037D01*
X356075Y351701D01*
X356130Y351664D01*
X356204Y351627D01*
X356408Y351516D01*
X356648Y351367D01*
X356926Y351164D01*
X357204Y350942D01*
X357463Y350683D01*
X357685Y350405D01*
X357703Y350368D01*
X357777Y350275D01*
X357851Y350109D01*
X357962Y349887D01*
X358055Y349627D01*
X358148Y349313D01*
X358203Y348961D01*
X358222Y348591D01*
Y348572D01*
Y348554D01*
Y348498D01*
Y348424D01*
X358185Y348221D01*
X358148Y347962D01*
X358073Y347666D01*
X357981Y347351D01*
X357833Y347018D01*
X357629Y346666D01*
Y346647D01*
X357611Y346629D01*
X357518Y346518D01*
X357389Y346351D01*
X357204Y346166D01*
X356963Y345944D01*
X356667Y345703D01*
X356334Y345481D01*
X355945Y345278D01*
X355926D01*
X355889Y345259D01*
X355834Y345241D01*
X355760Y345204D01*
X355649Y345167D01*
X355519Y345111D01*
X355223Y345037D01*
X354871Y344945D01*
X354446Y344852D01*
X353983Y344796D01*
X353483Y344778D01*
X353187D01*
X353039Y344796D01*
X352872D01*
X352687Y344815D01*
X352465Y344833D01*
X352002Y344907D01*
X351521Y344982D01*
X351040Y345111D01*
X350577Y345278D01*
X350558D01*
X350521Y345296D01*
X350466Y345333D01*
X350392Y345370D01*
X350170Y345481D01*
X349911Y345648D01*
X349615Y345870D01*
X349300Y346129D01*
X349004Y346444D01*
X348726Y346796D01*
Y346814D01*
X348689Y346851D01*
X348671Y346907D01*
X348615Y346981D01*
X348578Y347073D01*
X348522Y347184D01*
X348393Y347462D01*
X348263Y347814D01*
X348152Y348202D01*
X348078Y348646D01*
X348041Y349109D01*
X349633Y349257D01*
Y349239D01*
Y349220D01*
X349652Y349165D01*
Y349091D01*
X349689Y348924D01*
X349744Y348684D01*
X349818Y348443D01*
X349892Y348165D01*
X350022Y347906D01*
X350151Y347666D01*
X350170Y347647D01*
X350225Y347573D01*
X350318Y347443D01*
X350466Y347314D01*
X350651Y347147D01*
X350855Y346981D01*
X351132Y346814D01*
X351429Y346666D01*
X351447D01*
X351466Y346647D01*
X351521Y346629D01*
X351576Y346610D01*
X351762Y346555D01*
X352002Y346481D01*
X352298Y346407D01*
X352632Y346351D01*
X353002Y346314D01*
X353409Y346296D01*
X353576D01*
X353761Y346314D01*
X353983Y346333D01*
X354242Y346370D01*
X354538Y346407D01*
X354834Y346481D01*
X355112Y346573D01*
X355149Y346592D01*
X355241Y346629D01*
X355371Y346703D01*
X355538Y346777D01*
X355704Y346907D01*
X355889Y347036D01*
X356075Y347184D01*
X356223Y347369D01*
X356241Y347388D01*
X356278Y347462D01*
X356334Y347554D01*
X356408Y347703D01*
X356482Y347851D01*
X356537Y348036D01*
X356574Y348239D01*
X356593Y348461D01*
Y348480D01*
Y348572D01*
X356574Y348684D01*
X356556Y348832D01*
X356500Y348980D01*
X356445Y349165D01*
X356352Y349350D01*
X356223Y349517D01*
X356204Y349535D01*
X356149Y349590D01*
X356075Y349665D01*
X355945Y349776D01*
X355797Y349887D01*
X355593Y350016D01*
X355353Y350146D01*
X355075Y350257D01*
X355056Y350275D01*
X354964Y350294D01*
X354816Y350349D01*
X354723Y350368D01*
X354594Y350405D01*
X354464Y350461D01*
X354297Y350498D01*
X354112Y350553D01*
X353890Y350609D01*
X353668Y350664D01*
X353409Y350738D01*
X353113Y350812D01*
X352798Y350886D01*
X352780D01*
X352724Y350905D01*
X352632Y350923D01*
X352521Y350960D01*
X352373Y350997D01*
X352206Y351034D01*
X351836Y351145D01*
X351429Y351275D01*
X351003Y351405D01*
X350633Y351534D01*
X350466Y351608D01*
X350318Y351682D01*
X350299D01*
X350281Y351701D01*
X350170Y351775D01*
X350003Y351867D01*
X349818Y352015D01*
X349596Y352182D01*
X349374Y352385D01*
X349152Y352626D01*
X348967Y352885D01*
X348948Y352922D01*
X348893Y353015D01*
X348819Y353163D01*
X348745Y353348D01*
X348671Y353589D01*
X348596Y353866D01*
X348541Y354163D01*
X348522Y354477D01*
Y354496D01*
Y354514D01*
Y354570D01*
Y354644D01*
X348559Y354829D01*
X348596Y355069D01*
X348652Y355347D01*
X348745Y355662D01*
X348874Y355977D01*
X349059Y356291D01*
Y356310D01*
X349078Y356328D01*
X349170Y356439D01*
X349300Y356587D01*
X349466Y356772D01*
X349689Y356976D01*
X349966Y357198D01*
X350299Y357402D01*
X350670Y357587D01*
X350688D01*
X350725Y357605D01*
X350781Y357624D01*
X350855Y357661D01*
X350947Y357698D01*
X351077Y357735D01*
X351354Y357809D01*
X351706Y357883D01*
X352113Y357957D01*
X352539Y358013D01*
X353020Y358031D01*
X353261D01*
X353391Y358013D01*
D02*
G37*
G36*
X407218Y358013D02*
X407384Y357994D01*
X407588Y357976D01*
X407791Y357957D01*
X408032Y357902D01*
X408532Y357790D01*
X409087Y357624D01*
X409365Y357513D01*
X409624Y357383D01*
X409883Y357217D01*
X410142Y357050D01*
X410161Y357032D01*
X410198Y357013D01*
X410272Y356958D01*
X410364Y356865D01*
X410457Y356772D01*
X410586Y356643D01*
X410716Y356495D01*
X410864Y356347D01*
X411012Y356162D01*
X411160Y355940D01*
X411327Y355717D01*
X411475Y355477D01*
X411604Y355199D01*
X411753Y354921D01*
X411864Y354625D01*
X411975Y354292D01*
X410309Y353903D01*
Y353922D01*
X410290Y353959D01*
X410253Y354033D01*
X410216Y354125D01*
X410179Y354237D01*
X410124Y354385D01*
X409976Y354681D01*
X409791Y355014D01*
X409568Y355347D01*
X409291Y355662D01*
X408995Y355940D01*
X408957Y355977D01*
X408847Y356050D01*
X408661Y356143D01*
X408421Y356273D01*
X408106Y356384D01*
X407754Y356495D01*
X407329Y356569D01*
X406866Y356587D01*
X406718D01*
X406625Y356569D01*
X406496D01*
X406348Y356550D01*
X405996Y356495D01*
X405607Y356421D01*
X405200Y356291D01*
X404774Y356106D01*
X404386Y355865D01*
X404367D01*
X404349Y355828D01*
X404219Y355736D01*
X404052Y355588D01*
X403849Y355366D01*
X403608Y355088D01*
X403386Y354773D01*
X403182Y354385D01*
X402997Y353959D01*
Y353940D01*
X402979Y353903D01*
X402960Y353848D01*
X402942Y353755D01*
X402905Y353644D01*
X402868Y353515D01*
X402812Y353200D01*
X402738Y352830D01*
X402664Y352423D01*
X402627Y351978D01*
X402609Y351497D01*
Y351479D01*
Y351423D01*
Y351330D01*
Y351219D01*
X402627Y351090D01*
Y350923D01*
X402646Y350738D01*
X402664Y350535D01*
X402720Y350090D01*
X402812Y349609D01*
X402923Y349128D01*
X403071Y348646D01*
Y348628D01*
X403090Y348591D01*
X403127Y348535D01*
X403164Y348443D01*
X403275Y348221D01*
X403442Y347962D01*
X403645Y347666D01*
X403904Y347351D01*
X404201Y347073D01*
X404552Y346814D01*
X404571D01*
X404608Y346796D01*
X404663Y346759D01*
X404737Y346722D01*
X404830Y346685D01*
X404941Y346629D01*
X405200Y346518D01*
X405533Y346407D01*
X405903Y346314D01*
X406311Y346240D01*
X406736Y346222D01*
X406866D01*
X406977Y346240D01*
X407106D01*
X407236Y346259D01*
X407569Y346333D01*
X407958Y346425D01*
X408347Y346573D01*
X408754Y346777D01*
X408957Y346888D01*
X409143Y347036D01*
X409161Y347055D01*
X409180Y347073D01*
X409235Y347129D01*
X409309Y347184D01*
X409383Y347277D01*
X409476Y347388D01*
X409587Y347499D01*
X409679Y347647D01*
X409791Y347814D01*
X409920Y347999D01*
X410031Y348184D01*
X410142Y348406D01*
X410235Y348646D01*
X410327Y348906D01*
X410420Y349183D01*
X410494Y349480D01*
X412197Y349054D01*
Y349035D01*
X412178Y348961D01*
X412141Y348850D01*
X412086Y348702D01*
X412030Y348535D01*
X411956Y348332D01*
X411864Y348110D01*
X411753Y347869D01*
X411493Y347351D01*
X411160Y346832D01*
X410957Y346573D01*
X410753Y346314D01*
X410531Y346092D01*
X410272Y345870D01*
X410253Y345851D01*
X410216Y345814D01*
X410124Y345778D01*
X410031Y345703D01*
X409883Y345611D01*
X409735Y345518D01*
X409531Y345426D01*
X409328Y345333D01*
X409087Y345222D01*
X408828Y345130D01*
X408550Y345037D01*
X408254Y344945D01*
X407939Y344870D01*
X407606Y344833D01*
X407255Y344796D01*
X406884Y344778D01*
X406681D01*
X406533Y344796D01*
X406366D01*
X406163Y344815D01*
X405940Y344852D01*
X405681Y344889D01*
X405145Y344982D01*
X404589Y345130D01*
X404034Y345333D01*
X403775Y345463D01*
X403516Y345611D01*
X403497Y345629D01*
X403460Y345648D01*
X403386Y345703D01*
X403312Y345778D01*
X403201Y345851D01*
X403071Y345963D01*
X402923Y346092D01*
X402775Y346240D01*
X402627Y346407D01*
X402460Y346573D01*
X402127Y346999D01*
X401813Y347499D01*
X401535Y348054D01*
Y348073D01*
X401498Y348128D01*
X401479Y348221D01*
X401424Y348332D01*
X401387Y348480D01*
X401331Y348665D01*
X401257Y348869D01*
X401202Y349091D01*
X401146Y349331D01*
X401072Y349609D01*
X400980Y350183D01*
X400906Y350831D01*
X400869Y351497D01*
Y351516D01*
Y351590D01*
Y351701D01*
X400887Y351830D01*
Y352015D01*
X400906Y352200D01*
X400924Y352441D01*
X400961Y352682D01*
X401054Y353219D01*
X401183Y353811D01*
X401368Y354403D01*
X401628Y354977D01*
X401646Y354995D01*
X401665Y355051D01*
X401702Y355125D01*
X401776Y355218D01*
X401850Y355347D01*
X401942Y355495D01*
X402183Y355828D01*
X402498Y356199D01*
X402868Y356569D01*
X403294Y356939D01*
X403793Y357254D01*
X403812Y357272D01*
X403867Y357291D01*
X403941Y357328D01*
X404034Y357383D01*
X404182Y357439D01*
X404330Y357494D01*
X404515Y357568D01*
X404719Y357642D01*
X404941Y357716D01*
X405182Y357790D01*
X405700Y357902D01*
X406292Y357994D01*
X406903Y358031D01*
X407088D01*
X407218Y358013D01*
D02*
G37*
G36*
X139822Y354477D02*
X139952Y354459D01*
X140229Y354422D01*
X140562Y354348D01*
X140914Y354237D01*
X141266Y354070D01*
X141618Y353866D01*
X141636D01*
X141655Y353829D01*
X141766Y353755D01*
X141932Y353607D01*
X142136Y353422D01*
X142358Y353181D01*
X142580Y352885D01*
X142802Y352534D01*
X142987Y352145D01*
Y352126D01*
X143006Y352089D01*
X143024Y352034D01*
X143061Y351960D01*
X143098Y351849D01*
X143135Y351719D01*
X143228Y351423D01*
X143321Y351053D01*
X143395Y350646D01*
X143450Y350183D01*
X143469Y349701D01*
Y349683D01*
Y349646D01*
Y349572D01*
Y349461D01*
X143450Y349331D01*
Y349183D01*
X143413Y348850D01*
X143339Y348443D01*
X143246Y348017D01*
X143117Y347573D01*
X142950Y347129D01*
Y347110D01*
X142932Y347073D01*
X142895Y347018D01*
X142858Y346944D01*
X142728Y346740D01*
X142562Y346481D01*
X142358Y346203D01*
X142099Y345925D01*
X141803Y345648D01*
X141451Y345389D01*
X141432D01*
X141414Y345370D01*
X141358Y345333D01*
X141284Y345296D01*
X141099Y345204D01*
X140840Y345093D01*
X140525Y344982D01*
X140192Y344889D01*
X139804Y344815D01*
X139415Y344796D01*
X139285D01*
X139137Y344815D01*
X138952Y344833D01*
X138730Y344870D01*
X138489Y344926D01*
X138249Y345000D01*
X138008Y345111D01*
X137990Y345130D01*
X137897Y345167D01*
X137786Y345241D01*
X137638Y345352D01*
X137490Y345463D01*
X137305Y345611D01*
X137138Y345777D01*
X136990Y345963D01*
Y341446D01*
X135417D01*
Y354292D01*
X136842D01*
Y353070D01*
X136861Y353107D01*
X136935Y353181D01*
X137027Y353311D01*
X137175Y353459D01*
X137342Y353644D01*
X137527Y353811D01*
X137749Y353977D01*
X137971Y354125D01*
X138008Y354144D01*
X138082Y354181D01*
X138230Y354237D01*
X138415Y354310D01*
X138637Y354385D01*
X138897Y354440D01*
X139193Y354477D01*
X139526Y354496D01*
X139730D01*
X139822Y354477D01*
D02*
G37*
G36*
X395852Y354477D02*
X396056Y354459D01*
X396297Y354422D01*
X396556Y354366D01*
X396833Y354292D01*
X397093Y354181D01*
X397130Y354163D01*
X397204Y354125D01*
X397333Y354070D01*
X397481Y353977D01*
X397666Y353866D01*
X397833Y353718D01*
X398000Y353570D01*
X398148Y353385D01*
X398166Y353367D01*
X398203Y353292D01*
X398259Y353200D01*
X398351Y353070D01*
X398425Y352885D01*
X398499Y352700D01*
X398592Y352478D01*
X398647Y352238D01*
Y352219D01*
X398666Y352145D01*
X398685Y352034D01*
X398703Y351886D01*
Y351664D01*
X398722Y351405D01*
X398740Y351090D01*
Y350701D01*
Y345000D01*
X397167D01*
Y350627D01*
Y350646D01*
Y350664D01*
Y350794D01*
Y350960D01*
X397148Y351164D01*
X397130Y351405D01*
X397093Y351645D01*
X397037Y351867D01*
X396982Y352071D01*
Y352089D01*
X396944Y352145D01*
X396889Y352238D01*
X396833Y352348D01*
X396741Y352460D01*
X396630Y352589D01*
X396482Y352719D01*
X396315Y352830D01*
X396297Y352848D01*
X396241Y352885D01*
X396130Y352922D01*
X396001Y352978D01*
X395852Y353033D01*
X395667Y353089D01*
X395445Y353107D01*
X395223Y353126D01*
X395131D01*
X395057Y353107D01*
X394871Y353089D01*
X394631Y353052D01*
X394372Y352959D01*
X394075Y352848D01*
X393779Y352700D01*
X393502Y352478D01*
X393465Y352441D01*
X393391Y352348D01*
X393335Y352274D01*
X393280Y352182D01*
X393205Y352071D01*
X393150Y351941D01*
X393076Y351793D01*
X393002Y351608D01*
X392946Y351405D01*
X392891Y351182D01*
X392854Y350942D01*
X392817Y350683D01*
X392780Y350368D01*
Y350053D01*
Y345000D01*
X391206D01*
Y354292D01*
X392613D01*
Y352959D01*
X392632Y352978D01*
X392669Y353033D01*
X392724Y353107D01*
X392798Y353200D01*
X392909Y353311D01*
X393039Y353441D01*
X393187Y353589D01*
X393372Y353737D01*
X393557Y353866D01*
X393779Y354014D01*
X394020Y354144D01*
X394279Y354255D01*
X394575Y354348D01*
X394871Y354422D01*
X395205Y354477D01*
X395556Y354496D01*
X395704D01*
X395852Y354477D01*
D02*
G37*
G36*
X323275Y354477D02*
X323478Y354440D01*
X323719Y354366D01*
X323978Y354274D01*
X324274Y354144D01*
X324589Y353977D01*
X324015Y352534D01*
X323997Y352552D01*
X323923Y352589D01*
X323812Y352645D01*
X323663Y352700D01*
X323497Y352756D01*
X323293Y352811D01*
X323090Y352848D01*
X322886Y352867D01*
X322794D01*
X322701Y352848D01*
X322571Y352830D01*
X322442Y352793D01*
X322275Y352737D01*
X322109Y352663D01*
X321960Y352552D01*
X321942Y352534D01*
X321886Y352497D01*
X321831Y352423D01*
X321738Y352330D01*
X321646Y352200D01*
X321553Y352052D01*
X321461Y351886D01*
X321387Y351682D01*
X321368Y351645D01*
X321350Y351534D01*
X321313Y351367D01*
X321257Y351145D01*
X321202Y350868D01*
X321165Y350553D01*
X321146Y350220D01*
X321128Y349850D01*
Y345000D01*
X319554D01*
Y354292D01*
X320979D01*
Y352885D01*
X320998Y352904D01*
X321072Y353033D01*
X321165Y353200D01*
X321313Y353404D01*
X321461Y353607D01*
X321627Y353829D01*
X321794Y354014D01*
X321960Y354163D01*
X321979Y354181D01*
X322035Y354218D01*
X322146Y354274D01*
X322257Y354329D01*
X322405Y354385D01*
X322590Y354440D01*
X322775Y354477D01*
X322979Y354496D01*
X323108D01*
X323275Y354477D01*
D02*
G37*
G36*
X294677Y354477D02*
X294806D01*
X294936Y354459D01*
X295251Y354403D01*
X295584Y354311D01*
X295936Y354163D01*
X296287Y353977D01*
X296583Y353718D01*
X296620Y353681D01*
X296694Y353570D01*
X296824Y353404D01*
X296880Y353274D01*
X296954Y353144D01*
X297028Y352978D01*
X297083Y352811D01*
X297157Y352626D01*
X297213Y352404D01*
X297250Y352182D01*
X297287Y351923D01*
X297324Y351664D01*
Y351367D01*
Y345000D01*
X295750D01*
Y350831D01*
Y350849D01*
Y350868D01*
Y350979D01*
Y351145D01*
X295732Y351349D01*
X295713Y351571D01*
X295695Y351793D01*
X295658Y352015D01*
X295602Y352182D01*
Y352200D01*
X295565Y352256D01*
X295528Y352330D01*
X295473Y352422D01*
X295399Y352534D01*
X295306Y352645D01*
X295195Y352756D01*
X295047Y352867D01*
X295028Y352885D01*
X294973Y352904D01*
X294899Y352941D01*
X294769Y352996D01*
X294640Y353052D01*
X294473Y353089D01*
X294307Y353107D01*
X294103Y353126D01*
X294010D01*
X293936Y353107D01*
X293751Y353089D01*
X293529Y353052D01*
X293270Y352959D01*
X292992Y352848D01*
X292715Y352682D01*
X292456Y352460D01*
X292437Y352422D01*
X292363Y352330D01*
X292252Y352182D01*
X292141Y351960D01*
X292011Y351664D01*
X291919Y351312D01*
X291845Y350886D01*
X291808Y350386D01*
Y345000D01*
X290234D01*
Y351016D01*
Y351034D01*
Y351071D01*
Y351108D01*
Y351182D01*
X290216Y351386D01*
X290179Y351608D01*
X290142Y351867D01*
X290068Y352126D01*
X289975Y352367D01*
X289846Y352589D01*
X289827Y352608D01*
X289772Y352682D01*
X289679Y352756D01*
X289549Y352867D01*
X289383Y352959D01*
X289161Y353052D01*
X288902Y353107D01*
X288587Y353126D01*
X288476D01*
X288346Y353107D01*
X288198Y353089D01*
X288013Y353033D01*
X287791Y352978D01*
X287587Y352885D01*
X287365Y352774D01*
X287347Y352756D01*
X287273Y352700D01*
X287180Y352626D01*
X287051Y352515D01*
X286921Y352367D01*
X286791Y352182D01*
X286662Y351978D01*
X286551Y351738D01*
X286532Y351701D01*
X286514Y351608D01*
X286477Y351460D01*
X286421Y351256D01*
X286366Y350979D01*
X286329Y350646D01*
X286310Y350257D01*
X286292Y349813D01*
Y345000D01*
X284718D01*
Y354292D01*
X286125D01*
Y352959D01*
X286144Y352996D01*
X286199Y353070D01*
X286310Y353200D01*
X286440Y353348D01*
X286606Y353533D01*
X286810Y353718D01*
X287032Y353903D01*
X287291Y354070D01*
X287328Y354088D01*
X287421Y354144D01*
X287569Y354200D01*
X287773Y354292D01*
X288013Y354366D01*
X288291Y354422D01*
X288605Y354477D01*
X288939Y354496D01*
X289105D01*
X289309Y354477D01*
X289531Y354440D01*
X289809Y354385D01*
X290086Y354311D01*
X290364Y354200D01*
X290623Y354051D01*
X290660Y354033D01*
X290734Y353977D01*
X290845Y353885D01*
X290993Y353737D01*
X291141Y353570D01*
X291308Y353367D01*
X291456Y353126D01*
X291567Y352848D01*
X291586Y352867D01*
X291623Y352922D01*
X291678Y352996D01*
X291771Y353107D01*
X291882Y353237D01*
X292011Y353367D01*
X292159Y353515D01*
X292344Y353681D01*
X292548Y353829D01*
X292752Y353977D01*
X292992Y354107D01*
X293251Y354237D01*
X293529Y354348D01*
X293825Y354422D01*
X294122Y354477D01*
X294455Y354496D01*
X294584D01*
X294677Y354477D01*
D02*
G37*
G36*
X251900Y354477D02*
X252030D01*
X252159Y354459D01*
X252474Y354403D01*
X252807Y354311D01*
X253159Y354163D01*
X253511Y353977D01*
X253807Y353718D01*
X253844Y353681D01*
X253918Y353570D01*
X254047Y353404D01*
X254103Y353274D01*
X254177Y353144D01*
X254251Y352978D01*
X254307Y352811D01*
X254380Y352626D01*
X254436Y352404D01*
X254473Y352182D01*
X254510Y351923D01*
X254547Y351664D01*
Y351367D01*
Y345000D01*
X252974D01*
Y350831D01*
Y350849D01*
Y350868D01*
Y350979D01*
Y351145D01*
X252955Y351349D01*
X252937Y351571D01*
X252918Y351793D01*
X252881Y352015D01*
X252826Y352182D01*
Y352200D01*
X252789Y352256D01*
X252752Y352330D01*
X252696Y352422D01*
X252622Y352534D01*
X252530Y352645D01*
X252418Y352756D01*
X252270Y352867D01*
X252252Y352885D01*
X252196Y352904D01*
X252122Y352941D01*
X251993Y352996D01*
X251863Y353052D01*
X251697Y353089D01*
X251530Y353107D01*
X251326Y353126D01*
X251234D01*
X251160Y353107D01*
X250975Y353089D01*
X250753Y353052D01*
X250493Y352959D01*
X250216Y352848D01*
X249938Y352682D01*
X249679Y352460D01*
X249660Y352422D01*
X249586Y352330D01*
X249475Y352182D01*
X249364Y351960D01*
X249235Y351664D01*
X249142Y351312D01*
X249068Y350886D01*
X249031Y350386D01*
Y345000D01*
X247458D01*
Y351016D01*
Y351034D01*
Y351071D01*
Y351108D01*
Y351182D01*
X247439Y351386D01*
X247402Y351608D01*
X247365Y351867D01*
X247291Y352126D01*
X247199Y352367D01*
X247069Y352589D01*
X247051Y352608D01*
X246995Y352682D01*
X246902Y352756D01*
X246773Y352867D01*
X246606Y352959D01*
X246384Y353052D01*
X246125Y353107D01*
X245810Y353126D01*
X245699D01*
X245570Y353107D01*
X245422Y353089D01*
X245237Y353033D01*
X245015Y352978D01*
X244811Y352885D01*
X244589Y352774D01*
X244570Y352756D01*
X244496Y352700D01*
X244404Y352626D01*
X244274Y352515D01*
X244145Y352367D01*
X244015Y352182D01*
X243885Y351978D01*
X243774Y351738D01*
X243756Y351701D01*
X243737Y351608D01*
X243700Y351460D01*
X243645Y351256D01*
X243589Y350979D01*
X243552Y350646D01*
X243534Y350257D01*
X243515Y349813D01*
Y345000D01*
X241942D01*
Y354292D01*
X243349D01*
Y352959D01*
X243367Y352996D01*
X243423Y353070D01*
X243534Y353200D01*
X243663Y353348D01*
X243830Y353533D01*
X244033Y353718D01*
X244256Y353903D01*
X244515Y354070D01*
X244552Y354088D01*
X244644Y354144D01*
X244792Y354200D01*
X244996Y354292D01*
X245237Y354366D01*
X245514Y354422D01*
X245829Y354477D01*
X246162Y354496D01*
X246329D01*
X246532Y354477D01*
X246754Y354440D01*
X247032Y354385D01*
X247310Y354311D01*
X247587Y354200D01*
X247847Y354051D01*
X247884Y354033D01*
X247958Y353977D01*
X248069Y353885D01*
X248217Y353737D01*
X248365Y353570D01*
X248531Y353366D01*
X248679Y353126D01*
X248791Y352848D01*
X248809Y352867D01*
X248846Y352922D01*
X248902Y352996D01*
X248994Y353107D01*
X249105Y353237D01*
X249235Y353366D01*
X249383Y353515D01*
X249568Y353681D01*
X249771Y353829D01*
X249975Y353977D01*
X250216Y354107D01*
X250475Y354237D01*
X250753Y354348D01*
X251049Y354422D01*
X251345Y354477D01*
X251678Y354496D01*
X251808D01*
X251900Y354477D01*
D02*
G37*
G36*
X272150Y345000D02*
X270447D01*
Y351034D01*
X263821D01*
Y345000D01*
X262118D01*
Y357809D01*
X263821D01*
Y352552D01*
X270447D01*
Y357809D01*
X272150D01*
Y345000D01*
D02*
G37*
G36*
X156555Y352497D02*
X154760D01*
Y354292D01*
X156555D01*
Y352497D01*
D02*
G37*
G36*
X148800Y354477D02*
X149077Y354459D01*
X149373Y354422D01*
X149688Y354348D01*
X150021Y354274D01*
X150336Y354163D01*
X150354D01*
X150373Y354144D01*
X150465Y354107D01*
X150613Y354033D01*
X150799Y353940D01*
X151002Y353811D01*
X151206Y353663D01*
X151391Y353496D01*
X151558Y353311D01*
X151576Y353292D01*
X151613Y353218D01*
X151687Y353089D01*
X151780Y352941D01*
X151872Y352719D01*
X151965Y352478D01*
X152039Y352200D01*
X152113Y351886D01*
X150576Y351682D01*
Y351719D01*
X150558Y351793D01*
X150521Y351923D01*
X150465Y352089D01*
X150373Y352256D01*
X150262Y352441D01*
X150132Y352626D01*
X149947Y352793D01*
X149929Y352811D01*
X149855Y352848D01*
X149743Y352922D01*
X149577Y352996D01*
X149392Y353070D01*
X149151Y353144D01*
X148855Y353181D01*
X148540Y353200D01*
X148355D01*
X148170Y353181D01*
X147930Y353163D01*
X147689Y353107D01*
X147430Y353052D01*
X147189Y352959D01*
X146985Y352830D01*
X146967Y352811D01*
X146912Y352774D01*
X146837Y352700D01*
X146763Y352589D01*
X146671Y352478D01*
X146597Y352330D01*
X146541Y352163D01*
X146523Y351997D01*
Y351978D01*
Y351941D01*
X146541Y351886D01*
Y351812D01*
X146597Y351627D01*
X146708Y351442D01*
X146726Y351423D01*
X146745Y351405D01*
X146782Y351349D01*
X146856Y351293D01*
X146930Y351238D01*
X147041Y351164D01*
X147171Y351108D01*
X147319Y351034D01*
X147337D01*
X147374Y351016D01*
X147448Y350997D01*
X147578Y350942D01*
X147763Y350886D01*
X148004Y350831D01*
X148152Y350775D01*
X148318Y350738D01*
X148503Y350683D01*
X148707Y350627D01*
X148725D01*
X148781Y350608D01*
X148873Y350590D01*
X148985Y350553D01*
X149114Y350516D01*
X149281Y350479D01*
X149632Y350368D01*
X150021Y350257D01*
X150410Y350127D01*
X150762Y349998D01*
X150910Y349942D01*
X151039Y349887D01*
X151076Y349868D01*
X151150Y349831D01*
X151261Y349776D01*
X151428Y349683D01*
X151594Y349572D01*
X151761Y349424D01*
X151928Y349257D01*
X152076Y349072D01*
X152094Y349054D01*
X152131Y348980D01*
X152205Y348869D01*
X152279Y348702D01*
X152335Y348498D01*
X152409Y348276D01*
X152446Y348017D01*
X152464Y347721D01*
Y347684D01*
Y347591D01*
X152446Y347443D01*
X152409Y347240D01*
X152353Y347018D01*
X152261Y346777D01*
X152150Y346499D01*
X152002Y346240D01*
X151983Y346203D01*
X151909Y346129D01*
X151817Y346000D01*
X151669Y345851D01*
X151465Y345685D01*
X151243Y345500D01*
X150984Y345333D01*
X150669Y345167D01*
X150651D01*
X150632Y345148D01*
X150521Y345111D01*
X150336Y345056D01*
X150095Y344982D01*
X149799Y344907D01*
X149466Y344852D01*
X149114Y344815D01*
X148707Y344796D01*
X148540D01*
X148411Y344815D01*
X148263D01*
X148078Y344833D01*
X147892Y344852D01*
X147689Y344889D01*
X147245Y344982D01*
X146782Y345111D01*
X146338Y345296D01*
X146134Y345407D01*
X145949Y345537D01*
X145930Y345555D01*
X145912Y345574D01*
X145801Y345685D01*
X145634Y345851D01*
X145449Y346111D01*
X145246Y346425D01*
X145042Y346796D01*
X144875Y347258D01*
X144746Y347777D01*
X146301Y348017D01*
Y347999D01*
Y347980D01*
X146338Y347869D01*
X146375Y347684D01*
X146449Y347480D01*
X146541Y347258D01*
X146652Y347018D01*
X146819Y346777D01*
X147022Y346573D01*
X147060Y346555D01*
X147134Y346499D01*
X147282Y346425D01*
X147467Y346333D01*
X147707Y346240D01*
X147985Y346166D01*
X148318Y346111D01*
X148707Y346092D01*
X148892D01*
X149077Y346111D01*
X149318Y346148D01*
X149577Y346203D01*
X149855Y346277D01*
X150095Y346370D01*
X150317Y346518D01*
X150336Y346536D01*
X150410Y346592D01*
X150484Y346684D01*
X150595Y346814D01*
X150688Y346962D01*
X150780Y347147D01*
X150836Y347332D01*
X150854Y347554D01*
Y347573D01*
Y347647D01*
X150836Y347740D01*
X150799Y347869D01*
X150743Y347999D01*
X150651Y348128D01*
X150539Y348276D01*
X150373Y348387D01*
X150354Y348406D01*
X150299Y348424D01*
X150206Y348480D01*
X150058Y348535D01*
X149836Y348609D01*
X149706Y348665D01*
X149558Y348702D01*
X149392Y348758D01*
X149207Y348813D01*
X149003Y348869D01*
X148763Y348924D01*
X148744D01*
X148688Y348943D01*
X148596Y348961D01*
X148485Y348998D01*
X148337Y349035D01*
X148170Y349091D01*
X147819Y349183D01*
X147411Y349313D01*
X147022Y349424D01*
X146652Y349553D01*
X146486Y349627D01*
X146356Y349683D01*
X146319Y349701D01*
X146245Y349739D01*
X146134Y349813D01*
X145986Y349905D01*
X145819Y350035D01*
X145653Y350183D01*
X145486Y350349D01*
X145338Y350553D01*
X145320Y350571D01*
X145283Y350646D01*
X145227Y350775D01*
X145171Y350923D01*
X145116Y351108D01*
X145061Y351330D01*
X145024Y351553D01*
X145005Y351812D01*
Y351849D01*
Y351923D01*
X145024Y352034D01*
X145042Y352200D01*
X145079Y352367D01*
X145116Y352571D01*
X145190Y352756D01*
X145283Y352959D01*
X145301Y352978D01*
X145338Y353052D01*
X145394Y353144D01*
X145486Y353274D01*
X145597Y353403D01*
X145727Y353570D01*
X145875Y353718D01*
X146060Y353848D01*
X146079Y353866D01*
X146134Y353885D01*
X146208Y353940D01*
X146319Y353996D01*
X146467Y354070D01*
X146634Y354144D01*
X146837Y354218D01*
X147060Y354292D01*
X147097Y354310D01*
X147171Y354329D01*
X147300Y354366D01*
X147467Y354403D01*
X147670Y354440D01*
X147892Y354459D01*
X148152Y354496D01*
X148596D01*
X148800Y354477D01*
D02*
G37*
G36*
X376306Y354477D02*
X376417D01*
X376565Y354459D01*
X376917Y354403D01*
X377305Y354311D01*
X377713Y354163D01*
X378120Y353977D01*
X378509Y353718D01*
X378527D01*
X378546Y353681D01*
X378657Y353570D01*
X378823Y353404D01*
X379027Y353163D01*
X379230Y352867D01*
X379434Y352497D01*
X379619Y352071D01*
X379749Y351571D01*
X378212Y351330D01*
Y351349D01*
X378194Y351367D01*
X378175Y351479D01*
X378120Y351645D01*
X378027Y351849D01*
X377935Y352071D01*
X377787Y352311D01*
X377620Y352534D01*
X377435Y352719D01*
X377416Y352737D01*
X377343Y352793D01*
X377213Y352867D01*
X377065Y352959D01*
X376861Y353052D01*
X376639Y353126D01*
X376380Y353182D01*
X376102Y353200D01*
X375991D01*
X375899Y353182D01*
X375695Y353163D01*
X375417Y353089D01*
X375121Y352996D01*
X374788Y352848D01*
X374473Y352626D01*
X374325Y352497D01*
X374177Y352348D01*
Y352330D01*
X374140Y352311D01*
X374103Y352256D01*
X374066Y352182D01*
X374011Y352089D01*
X373937Y351978D01*
X373881Y351849D01*
X373807Y351701D01*
X373733Y351516D01*
X373677Y351312D01*
X373603Y351090D01*
X373548Y350849D01*
X373511Y350590D01*
X373474Y350294D01*
X373437Y349979D01*
Y349646D01*
Y349628D01*
Y349572D01*
Y349461D01*
X373455Y349350D01*
Y349183D01*
X373474Y349017D01*
X373529Y348609D01*
X373603Y348165D01*
X373733Y347703D01*
X373900Y347295D01*
X374011Y347092D01*
X374140Y346925D01*
X374177Y346888D01*
X374270Y346796D01*
X374436Y346666D01*
X374640Y346518D01*
X374918Y346351D01*
X375232Y346222D01*
X375603Y346129D01*
X375806Y346111D01*
X376010Y346092D01*
X376047D01*
X376158Y346111D01*
X376343Y346129D01*
X376547Y346166D01*
X376787Y346222D01*
X377046Y346333D01*
X377305Y346462D01*
X377546Y346647D01*
X377583Y346666D01*
X377639Y346759D01*
X377750Y346888D01*
X377879Y347092D01*
X378009Y347332D01*
X378157Y347628D01*
X378268Y347999D01*
X378342Y348406D01*
X379897Y348202D01*
Y348184D01*
X379878Y348128D01*
X379860Y348054D01*
X379841Y347943D01*
X379804Y347795D01*
X379767Y347647D01*
X379638Y347277D01*
X379471Y346888D01*
X379230Y346462D01*
X378934Y346055D01*
X378768Y345870D01*
X378583Y345685D01*
X378564Y345666D01*
X378527Y345648D01*
X378472Y345611D01*
X378397Y345555D01*
X378305Y345481D01*
X378175Y345407D01*
X378027Y345333D01*
X377879Y345241D01*
X377509Y345074D01*
X377065Y344945D01*
X376584Y344833D01*
X376306Y344815D01*
X376028Y344796D01*
X375843D01*
X375714Y344815D01*
X375547Y344833D01*
X375362Y344870D01*
X375158Y344907D01*
X374936Y344945D01*
X374436Y345093D01*
X374196Y345204D01*
X373937Y345315D01*
X373677Y345463D01*
X373437Y345629D01*
X373196Y345814D01*
X372974Y346037D01*
X372956Y346055D01*
X372919Y346092D01*
X372863Y346166D01*
X372789Y346259D01*
X372715Y346388D01*
X372604Y346555D01*
X372511Y346740D01*
X372400Y346944D01*
X372289Y347184D01*
X372197Y347462D01*
X372086Y347740D01*
X372012Y348073D01*
X371937Y348406D01*
X371882Y348795D01*
X371845Y349183D01*
X371827Y349609D01*
Y349627D01*
Y349683D01*
Y349757D01*
Y349868D01*
X371845Y349998D01*
Y350146D01*
X371864Y350312D01*
X371882Y350498D01*
X371937Y350905D01*
X372030Y351349D01*
X372141Y351793D01*
X372308Y352237D01*
Y352256D01*
X372326Y352293D01*
X372363Y352348D01*
X372400Y352423D01*
X372511Y352626D01*
X372678Y352867D01*
X372900Y353145D01*
X373159Y353422D01*
X373474Y353700D01*
X373826Y353922D01*
X373844D01*
X373881Y353940D01*
X373937Y353977D01*
X374011Y354014D01*
X374103Y354051D01*
X374214Y354107D01*
X374492Y354218D01*
X374807Y354311D01*
X375195Y354403D01*
X375603Y354477D01*
X376047Y354496D01*
X376195D01*
X376306Y354477D01*
D02*
G37*
G36*
X227060Y354477D02*
X227171D01*
X227319Y354459D01*
X227671Y354403D01*
X228059Y354311D01*
X228467Y354163D01*
X228874Y353977D01*
X229262Y353718D01*
X229281D01*
X229299Y353681D01*
X229411Y353570D01*
X229577Y353404D01*
X229781Y353163D01*
X229984Y352867D01*
X230188Y352497D01*
X230373Y352071D01*
X230503Y351571D01*
X228966Y351330D01*
Y351349D01*
X228948Y351367D01*
X228929Y351479D01*
X228874Y351645D01*
X228781Y351849D01*
X228689Y352071D01*
X228541Y352311D01*
X228374Y352534D01*
X228189Y352719D01*
X228170Y352737D01*
X228096Y352793D01*
X227967Y352867D01*
X227819Y352959D01*
X227615Y353052D01*
X227393Y353126D01*
X227134Y353181D01*
X226856Y353200D01*
X226745D01*
X226653Y353181D01*
X226449Y353163D01*
X226171Y353089D01*
X225875Y352996D01*
X225542Y352848D01*
X225227Y352626D01*
X225079Y352497D01*
X224931Y352348D01*
Y352330D01*
X224894Y352311D01*
X224857Y352256D01*
X224820Y352182D01*
X224764Y352089D01*
X224691Y351978D01*
X224635Y351849D01*
X224561Y351701D01*
X224487Y351516D01*
X224431Y351312D01*
X224357Y351090D01*
X224302Y350849D01*
X224265Y350590D01*
X224228Y350294D01*
X224191Y349979D01*
Y349646D01*
Y349627D01*
Y349572D01*
Y349461D01*
X224209Y349350D01*
Y349183D01*
X224228Y349017D01*
X224283Y348609D01*
X224357Y348165D01*
X224487Y347703D01*
X224654Y347295D01*
X224764Y347092D01*
X224894Y346925D01*
X224931Y346888D01*
X225024Y346796D01*
X225190Y346666D01*
X225394Y346518D01*
X225672Y346351D01*
X225986Y346222D01*
X226356Y346129D01*
X226560Y346111D01*
X226764Y346092D01*
X226801D01*
X226912Y346111D01*
X227097Y346129D01*
X227300Y346166D01*
X227541Y346222D01*
X227800Y346333D01*
X228059Y346462D01*
X228300Y346647D01*
X228337Y346666D01*
X228393Y346759D01*
X228503Y346888D01*
X228633Y347092D01*
X228763Y347332D01*
X228911Y347628D01*
X229022Y347999D01*
X229096Y348406D01*
X230651Y348202D01*
Y348184D01*
X230632Y348128D01*
X230614Y348054D01*
X230595Y347943D01*
X230558Y347795D01*
X230521Y347647D01*
X230392Y347277D01*
X230225Y346888D01*
X229984Y346462D01*
X229688Y346055D01*
X229522Y345870D01*
X229337Y345685D01*
X229318Y345666D01*
X229281Y345648D01*
X229225Y345611D01*
X229151Y345555D01*
X229059Y345481D01*
X228929Y345407D01*
X228781Y345333D01*
X228633Y345241D01*
X228263Y345074D01*
X227819Y344945D01*
X227337Y344833D01*
X227060Y344815D01*
X226782Y344796D01*
X226597D01*
X226467Y344815D01*
X226301Y344833D01*
X226116Y344870D01*
X225912Y344907D01*
X225690Y344945D01*
X225190Y345093D01*
X224950Y345204D01*
X224691Y345315D01*
X224431Y345463D01*
X224191Y345629D01*
X223950Y345814D01*
X223728Y346037D01*
X223710Y346055D01*
X223672Y346092D01*
X223617Y346166D01*
X223543Y346259D01*
X223469Y346388D01*
X223358Y346555D01*
X223265Y346740D01*
X223154Y346944D01*
X223043Y347184D01*
X222951Y347462D01*
X222839Y347740D01*
X222765Y348073D01*
X222691Y348406D01*
X222636Y348795D01*
X222599Y349183D01*
X222580Y349609D01*
Y349627D01*
Y349683D01*
Y349757D01*
Y349868D01*
X222599Y349998D01*
Y350146D01*
X222617Y350312D01*
X222636Y350498D01*
X222691Y350905D01*
X222784Y351349D01*
X222895Y351793D01*
X223062Y352237D01*
Y352256D01*
X223080Y352293D01*
X223117Y352348D01*
X223154Y352422D01*
X223265Y352626D01*
X223432Y352867D01*
X223654Y353144D01*
X223913Y353422D01*
X224228Y353700D01*
X224579Y353922D01*
X224598D01*
X224635Y353940D01*
X224691Y353977D01*
X224764Y354014D01*
X224857Y354051D01*
X224968Y354107D01*
X225246Y354218D01*
X225560Y354311D01*
X225949Y354403D01*
X226356Y354477D01*
X226801Y354496D01*
X226949D01*
X227060Y354477D01*
D02*
G37*
G36*
X344154Y345000D02*
X342544D01*
X341063Y350553D01*
X340693Y352145D01*
X338823Y345000D01*
X337157D01*
X334344Y354292D01*
X335991D01*
X337472Y348924D01*
X337990Y346925D01*
Y346944D01*
X338009Y346981D01*
X338027Y347073D01*
X338046Y347129D01*
X338064Y347221D01*
X338083Y347332D01*
X338120Y347462D01*
X338157Y347610D01*
X338212Y347795D01*
X338268Y347999D01*
X338323Y348239D01*
X338397Y348517D01*
X338472Y348832D01*
X339952Y354292D01*
X341563D01*
X342951Y348887D01*
X343414Y347110D01*
X343950Y348906D01*
X345542Y354292D01*
X347079D01*
X344154Y345000D01*
D02*
G37*
G36*
X425561Y345000D02*
X424154D01*
Y346351D01*
X424136Y346333D01*
X424099Y346277D01*
X424043Y346203D01*
X423951Y346111D01*
X423840Y346000D01*
X423710Y345851D01*
X423562Y345722D01*
X423377Y345574D01*
X423173Y345426D01*
X422951Y345296D01*
X422711Y345167D01*
X422451Y345037D01*
X422155Y344945D01*
X421859Y344870D01*
X421526Y344815D01*
X421193Y344796D01*
X421063D01*
X420896Y344815D01*
X420693Y344833D01*
X420452Y344870D01*
X420193Y344926D01*
X419934Y345000D01*
X419656Y345111D01*
X419619Y345130D01*
X419545Y345167D01*
X419416Y345241D01*
X419268Y345333D01*
X419082Y345444D01*
X418916Y345574D01*
X418749Y345722D01*
X418601Y345888D01*
X418583Y345907D01*
X418546Y345981D01*
X418490Y346074D01*
X418416Y346222D01*
X418324Y346388D01*
X418250Y346592D01*
X418176Y346814D01*
X418120Y347055D01*
Y347073D01*
X418102Y347147D01*
X418083Y347258D01*
Y347406D01*
X418064Y347628D01*
X418046Y347869D01*
X418027Y348184D01*
Y348535D01*
Y354292D01*
X419601D01*
Y349128D01*
Y349109D01*
Y349072D01*
Y349017D01*
Y348924D01*
Y348721D01*
X419619Y348461D01*
Y348184D01*
X419638Y347906D01*
X419656Y347666D01*
X419693Y347462D01*
Y347443D01*
X419730Y347369D01*
X419767Y347258D01*
X419823Y347110D01*
X419915Y346962D01*
X420026Y346796D01*
X420156Y346647D01*
X420323Y346499D01*
X420341Y346481D01*
X420415Y346444D01*
X420508Y346388D01*
X420656Y346333D01*
X420822Y346259D01*
X421026Y346203D01*
X421248Y346166D01*
X421507Y346148D01*
X421637D01*
X421767Y346166D01*
X421933Y346185D01*
X422137Y346240D01*
X422359Y346296D01*
X422599Y346388D01*
X422840Y346499D01*
X422877Y346518D01*
X422951Y346573D01*
X423062Y346647D01*
X423192Y346759D01*
X423340Y346907D01*
X423488Y347073D01*
X423618Y347258D01*
X423729Y347480D01*
X423747Y347517D01*
X423766Y347591D01*
X423803Y347740D01*
X423858Y347943D01*
X423914Y348202D01*
X423951Y348517D01*
X423969Y348887D01*
X423988Y349313D01*
Y354292D01*
X425561D01*
Y345000D01*
D02*
G37*
G36*
X205644Y345000D02*
X204237D01*
Y346351D01*
X204218Y346333D01*
X204181Y346277D01*
X204126Y346203D01*
X204033Y346111D01*
X203922Y346000D01*
X203793Y345851D01*
X203645Y345722D01*
X203460Y345574D01*
X203256Y345426D01*
X203034Y345296D01*
X202793Y345167D01*
X202534Y345037D01*
X202238Y344945D01*
X201942Y344870D01*
X201608Y344815D01*
X201275Y344796D01*
X201146D01*
X200979Y344815D01*
X200776Y344833D01*
X200535Y344870D01*
X200276Y344926D01*
X200017Y345000D01*
X199739Y345111D01*
X199702Y345130D01*
X199628Y345167D01*
X199498Y345241D01*
X199350Y345333D01*
X199165Y345444D01*
X198999Y345574D01*
X198832Y345722D01*
X198684Y345888D01*
X198665Y345907D01*
X198628Y345981D01*
X198573Y346074D01*
X198499Y346222D01*
X198406Y346388D01*
X198332Y346592D01*
X198258Y346814D01*
X198203Y347055D01*
Y347073D01*
X198184Y347147D01*
X198166Y347258D01*
Y347406D01*
X198147Y347628D01*
X198129Y347869D01*
X198110Y348184D01*
Y348535D01*
Y354292D01*
X199683D01*
Y349128D01*
Y349109D01*
Y349072D01*
Y349017D01*
Y348924D01*
Y348721D01*
X199702Y348461D01*
Y348184D01*
X199721Y347906D01*
X199739Y347666D01*
X199776Y347462D01*
Y347443D01*
X199813Y347369D01*
X199850Y347258D01*
X199906Y347110D01*
X199998Y346962D01*
X200109Y346796D01*
X200239Y346647D01*
X200405Y346499D01*
X200424Y346481D01*
X200498Y346444D01*
X200590Y346388D01*
X200739Y346333D01*
X200905Y346259D01*
X201109Y346203D01*
X201331Y346166D01*
X201590Y346148D01*
X201720D01*
X201849Y346166D01*
X202016Y346185D01*
X202219Y346240D01*
X202442Y346296D01*
X202682Y346388D01*
X202923Y346499D01*
X202960Y346518D01*
X203034Y346573D01*
X203145Y346647D01*
X203274Y346759D01*
X203422Y346907D01*
X203571Y347073D01*
X203700Y347258D01*
X203811Y347480D01*
X203830Y347517D01*
X203848Y347591D01*
X203885Y347740D01*
X203941Y347943D01*
X203996Y348202D01*
X204033Y348517D01*
X204052Y348887D01*
X204070Y349313D01*
Y354292D01*
X205644D01*
Y345000D01*
D02*
G37*
G36*
X415621Y345000D02*
X414048D01*
Y357809D01*
X415621D01*
Y345000D01*
D02*
G37*
G36*
X369883Y345000D02*
X368310D01*
Y354292D01*
X369883D01*
Y345000D01*
D02*
G37*
G36*
X365866D02*
X364293D01*
Y357809D01*
X365866D01*
Y345000D01*
D02*
G37*
G36*
X361924D02*
X360350D01*
Y354292D01*
X361924D01*
Y345000D01*
D02*
G37*
G36*
X220304Y345000D02*
X218508D01*
Y346796D01*
X220304D01*
Y345000D01*
D02*
G37*
G36*
X189762Y353218D02*
X189781Y353237D01*
X189818Y353274D01*
X189873Y353329D01*
X189966Y353422D01*
X190058Y353515D01*
X190188Y353626D01*
X190354Y353737D01*
X190521Y353866D01*
X190706Y353977D01*
X190910Y354088D01*
X191391Y354292D01*
X191650Y354385D01*
X191928Y354440D01*
X192224Y354477D01*
X192520Y354496D01*
X192687D01*
X192890Y354477D01*
X193131Y354440D01*
X193409Y354403D01*
X193705Y354329D01*
X194001Y354218D01*
X194297Y354088D01*
X194334Y354070D01*
X194427Y354014D01*
X194556Y353922D01*
X194723Y353792D01*
X194889Y353626D01*
X195074Y353441D01*
X195241Y353218D01*
X195389Y352959D01*
X195408Y352922D01*
X195445Y352830D01*
X195500Y352663D01*
X195556Y352422D01*
X195611Y352126D01*
X195667Y351775D01*
X195704Y351349D01*
X195722Y350868D01*
Y345000D01*
X194149D01*
Y350886D01*
Y350905D01*
Y350942D01*
Y350997D01*
Y351071D01*
X194131Y351275D01*
X194094Y351534D01*
X194019Y351812D01*
X193927Y352089D01*
X193797Y352367D01*
X193631Y352589D01*
X193612Y352608D01*
X193538Y352682D01*
X193427Y352774D01*
X193261Y352867D01*
X193057Y352978D01*
X192816Y353052D01*
X192520Y353126D01*
X192187Y353144D01*
X192076D01*
X191946Y353126D01*
X191761Y353107D01*
X191576Y353052D01*
X191354Y352996D01*
X191132Y352904D01*
X190891Y352774D01*
X190873Y352756D01*
X190799Y352700D01*
X190688Y352626D01*
X190558Y352515D01*
X190410Y352367D01*
X190262Y352200D01*
X190132Y351997D01*
X190021Y351775D01*
X190003Y351738D01*
X189984Y351664D01*
X189947Y351516D01*
X189892Y351330D01*
X189836Y351090D01*
X189799Y350794D01*
X189781Y350461D01*
X189762Y350072D01*
Y345000D01*
X188189D01*
Y357809D01*
X189762D01*
Y353218D01*
D02*
G37*
G36*
X180803Y345000D02*
X179230D01*
Y354292D01*
X180803D01*
Y345000D01*
D02*
G37*
G36*
X156555D02*
X154760D01*
Y346796D01*
X156555D01*
Y345000D01*
D02*
G37*
G36*
X117073Y353218D02*
X117092Y353237D01*
X117129Y353274D01*
X117184Y353329D01*
X117277Y353422D01*
X117369Y353515D01*
X117499Y353626D01*
X117666Y353737D01*
X117832Y353866D01*
X118017Y353977D01*
X118221Y354088D01*
X118702Y354292D01*
X118961Y354385D01*
X119239Y354440D01*
X119535Y354477D01*
X119831Y354496D01*
X119998D01*
X120202Y354477D01*
X120442Y354440D01*
X120720Y354403D01*
X121016Y354329D01*
X121312Y354218D01*
X121608Y354088D01*
X121645Y354070D01*
X121738Y354014D01*
X121867Y353922D01*
X122034Y353792D01*
X122201Y353626D01*
X122386Y353441D01*
X122552Y353218D01*
X122700Y352959D01*
X122719Y352922D01*
X122756Y352830D01*
X122811Y352663D01*
X122867Y352422D01*
X122923Y352126D01*
X122978Y351775D01*
X123015Y351349D01*
X123034Y350868D01*
Y345000D01*
X121460D01*
Y350886D01*
Y350905D01*
Y350942D01*
Y350997D01*
Y351071D01*
X121442Y351275D01*
X121405Y351534D01*
X121331Y351812D01*
X121238Y352089D01*
X121108Y352367D01*
X120942Y352589D01*
X120923Y352608D01*
X120849Y352682D01*
X120738Y352774D01*
X120572Y352867D01*
X120368Y352978D01*
X120127Y353052D01*
X119831Y353126D01*
X119498Y353144D01*
X119387D01*
X119257Y353126D01*
X119072Y353107D01*
X118887Y353052D01*
X118665Y352996D01*
X118443Y352904D01*
X118202Y352774D01*
X118184Y352756D01*
X118110Y352700D01*
X117999Y352626D01*
X117869Y352515D01*
X117721Y352367D01*
X117573Y352200D01*
X117444Y351997D01*
X117332Y351775D01*
X117314Y351738D01*
X117296Y351664D01*
X117258Y351516D01*
X117203Y351330D01*
X117147Y351090D01*
X117110Y350794D01*
X117092Y350460D01*
X117073Y350072D01*
Y345000D01*
X115500D01*
Y357809D01*
X117073D01*
Y353218D01*
D02*
G37*
G36*
X185042Y354292D02*
X186634D01*
Y353070D01*
X185042D01*
Y347610D01*
Y347573D01*
Y347499D01*
Y347388D01*
X185061Y347258D01*
X185079Y346962D01*
X185098Y346832D01*
X185116Y346740D01*
X185135Y346703D01*
X185190Y346629D01*
X185264Y346536D01*
X185394Y346444D01*
X185431Y346425D01*
X185523Y346388D01*
X185690Y346351D01*
X185931Y346333D01*
X186116D01*
X186208Y346351D01*
X186338D01*
X186486Y346370D01*
X186634Y346388D01*
X186837Y345000D01*
X186801D01*
X186726Y344982D01*
X186597Y344963D01*
X186430Y344945D01*
X186245Y344907D01*
X186042Y344889D01*
X185634Y344870D01*
X185486D01*
X185338Y344889D01*
X185153Y344907D01*
X184931Y344926D01*
X184709Y344982D01*
X184505Y345037D01*
X184302Y345130D01*
X184283Y345148D01*
X184228Y345185D01*
X184154Y345241D01*
X184043Y345333D01*
X183950Y345426D01*
X183839Y345555D01*
X183728Y345685D01*
X183654Y345851D01*
Y345870D01*
X183617Y345944D01*
X183598Y346074D01*
X183561Y346259D01*
X183524Y346499D01*
X183506Y346647D01*
Y346814D01*
X183487Y347018D01*
X183469Y347221D01*
Y347443D01*
Y347703D01*
Y353070D01*
X182303D01*
Y354292D01*
X183469D01*
Y356587D01*
X185042Y357531D01*
Y354292D01*
D02*
G37*
G36*
X132270Y354292D02*
X133862D01*
Y353070D01*
X132270D01*
Y347610D01*
Y347573D01*
Y347499D01*
Y347388D01*
X132289Y347258D01*
X132307Y346962D01*
X132326Y346832D01*
X132344Y346740D01*
X132363Y346703D01*
X132418Y346629D01*
X132492Y346536D01*
X132622Y346444D01*
X132659Y346425D01*
X132751Y346388D01*
X132918Y346351D01*
X133159Y346333D01*
X133344D01*
X133436Y346351D01*
X133566D01*
X133714Y346370D01*
X133862Y346388D01*
X134065Y345000D01*
X134028D01*
X133955Y344982D01*
X133825Y344963D01*
X133658Y344945D01*
X133473Y344907D01*
X133270Y344889D01*
X132862Y344870D01*
X132714D01*
X132566Y344889D01*
X132381Y344907D01*
X132159Y344926D01*
X131937Y344982D01*
X131733Y345037D01*
X131530Y345130D01*
X131511Y345148D01*
X131456Y345185D01*
X131382Y345241D01*
X131271Y345333D01*
X131178Y345426D01*
X131067Y345555D01*
X130956Y345685D01*
X130882Y345851D01*
Y345870D01*
X130845Y345944D01*
X130826Y346074D01*
X130789Y346259D01*
X130752Y346499D01*
X130734Y346647D01*
Y346814D01*
X130715Y347018D01*
X130697Y347221D01*
Y347443D01*
Y347703D01*
Y353070D01*
X129531D01*
Y354292D01*
X130697D01*
Y356587D01*
X132270Y357531D01*
Y354292D01*
D02*
G37*
G36*
X127291D02*
X128883D01*
Y353070D01*
X127291D01*
Y347610D01*
Y347573D01*
Y347499D01*
Y347388D01*
X127309Y347258D01*
X127328Y346962D01*
X127346Y346832D01*
X127365Y346740D01*
X127383Y346703D01*
X127439Y346629D01*
X127513Y346536D01*
X127643Y346444D01*
X127680Y346425D01*
X127772Y346388D01*
X127939Y346351D01*
X128179Y346333D01*
X128365D01*
X128457Y346351D01*
X128587D01*
X128735Y346370D01*
X128883Y346388D01*
X129086Y345000D01*
X129049D01*
X128975Y344982D01*
X128846Y344963D01*
X128679Y344945D01*
X128494Y344907D01*
X128290Y344889D01*
X127883Y344870D01*
X127735D01*
X127587Y344889D01*
X127402Y344907D01*
X127180Y344926D01*
X126958Y344982D01*
X126754Y345037D01*
X126550Y345130D01*
X126532Y345148D01*
X126476Y345185D01*
X126402Y345241D01*
X126291Y345333D01*
X126199Y345426D01*
X126088Y345555D01*
X125977Y345685D01*
X125903Y345851D01*
Y345870D01*
X125866Y345944D01*
X125847Y346074D01*
X125810Y346259D01*
X125773Y346499D01*
X125754Y346647D01*
Y346814D01*
X125736Y347018D01*
X125717Y347221D01*
Y347443D01*
Y347703D01*
Y353070D01*
X124551D01*
Y354292D01*
X125717D01*
Y356587D01*
X127291Y357531D01*
Y354292D01*
D02*
G37*
G36*
X429559Y353237D02*
X429578Y353256D01*
X429596Y353292D01*
X429652Y353348D01*
X429744Y353441D01*
X429837Y353533D01*
X429948Y353644D01*
X430096Y353755D01*
X430244Y353866D01*
X430614Y354107D01*
X431040Y354292D01*
X431281Y354385D01*
X431540Y354440D01*
X431817Y354477D01*
X432095Y354496D01*
X432243D01*
X432410Y354477D01*
X432613Y354459D01*
X432854Y354403D01*
X433132Y354348D01*
X433428Y354255D01*
X433705Y354144D01*
X433742Y354125D01*
X433835Y354088D01*
X433983Y353996D01*
X434150Y353885D01*
X434353Y353755D01*
X434557Y353589D01*
X434779Y353385D01*
X434964Y353163D01*
X434983Y353145D01*
X435038Y353052D01*
X435131Y352922D01*
X435242Y352756D01*
X435371Y352534D01*
X435501Y352274D01*
X435631Y351978D01*
X435742Y351664D01*
Y351645D01*
X435760Y351627D01*
X435779Y351571D01*
X435797Y351516D01*
X435834Y351330D01*
X435890Y351090D01*
X435945Y350812D01*
X436001Y350498D01*
X436019Y350146D01*
X436038Y349776D01*
Y349757D01*
Y349665D01*
Y349553D01*
X436019Y349387D01*
X436001Y349183D01*
X435982Y348961D01*
X435945Y348702D01*
X435890Y348424D01*
X435742Y347832D01*
X435649Y347517D01*
X435538Y347221D01*
X435408Y346907D01*
X435242Y346629D01*
X435057Y346351D01*
X434853Y346092D01*
X434834Y346074D01*
X434797Y346037D01*
X434742Y345981D01*
X434649Y345888D01*
X434520Y345796D01*
X434390Y345685D01*
X434242Y345574D01*
X434057Y345444D01*
X433853Y345333D01*
X433650Y345204D01*
X433150Y345000D01*
X432891Y344907D01*
X432613Y344852D01*
X432317Y344815D01*
X432021Y344796D01*
X431947D01*
X431854Y344815D01*
X431743D01*
X431614Y344833D01*
X431447Y344870D01*
X431077Y344963D01*
X430873Y345037D01*
X430670Y345130D01*
X430448Y345241D01*
X430244Y345370D01*
X430022Y345537D01*
X429818Y345722D01*
X429633Y345926D01*
X429448Y346166D01*
Y345000D01*
X427986D01*
Y357809D01*
X429559D01*
Y353237D01*
D02*
G37*
G36*
X385320Y354477D02*
X385487Y354459D01*
X385672Y354422D01*
X385876Y354385D01*
X386116Y354348D01*
X386616Y354181D01*
X386875Y354088D01*
X387134Y353959D01*
X387393Y353829D01*
X387652Y353644D01*
X387893Y353459D01*
X388134Y353237D01*
X388152Y353219D01*
X388189Y353182D01*
X388245Y353107D01*
X388319Y353015D01*
X388411Y352885D01*
X388523Y352719D01*
X388634Y352534D01*
X388745Y352330D01*
X388856Y352108D01*
X388967Y351830D01*
X389078Y351553D01*
X389170Y351238D01*
X389244Y350905D01*
X389300Y350553D01*
X389337Y350183D01*
X389355Y349776D01*
Y349757D01*
Y349702D01*
Y349609D01*
Y349480D01*
X389337Y349331D01*
X389318Y349146D01*
Y348961D01*
X389281Y348758D01*
X389226Y348295D01*
X389115Y347832D01*
X388985Y347369D01*
X388800Y346944D01*
Y346925D01*
X388782Y346907D01*
X388745Y346851D01*
X388708Y346777D01*
X388578Y346592D01*
X388411Y346370D01*
X388189Y346111D01*
X387912Y345851D01*
X387597Y345592D01*
X387227Y345352D01*
X387208D01*
X387190Y345333D01*
X387134Y345296D01*
X387042Y345259D01*
X386949Y345222D01*
X386838Y345185D01*
X386560Y345074D01*
X386246Y344982D01*
X385857Y344889D01*
X385450Y344815D01*
X385006Y344796D01*
X384821D01*
X384672Y344815D01*
X384506Y344833D01*
X384321Y344870D01*
X384099Y344907D01*
X383876Y344945D01*
X383377Y345093D01*
X383099Y345204D01*
X382840Y345315D01*
X382581Y345463D01*
X382322Y345629D01*
X382081Y345814D01*
X381840Y346037D01*
X381822Y346055D01*
X381785Y346092D01*
X381729Y346166D01*
X381655Y346277D01*
X381563Y346407D01*
X381470Y346555D01*
X381359Y346740D01*
X381248Y346962D01*
X381137Y347203D01*
X381026Y347480D01*
X380933Y347777D01*
X380841Y348091D01*
X380767Y348443D01*
X380711Y348813D01*
X380674Y349220D01*
X380656Y349646D01*
Y349683D01*
Y349757D01*
X380674Y349887D01*
Y350072D01*
X380693Y350275D01*
X380730Y350535D01*
X380767Y350794D01*
X380841Y351090D01*
X380915Y351386D01*
X381007Y351701D01*
X381118Y352034D01*
X381267Y352348D01*
X381415Y352645D01*
X381618Y352941D01*
X381822Y353219D01*
X382081Y353459D01*
X382100Y353478D01*
X382137Y353496D01*
X382211Y353552D01*
X382303Y353626D01*
X382414Y353700D01*
X382562Y353792D01*
X382710Y353885D01*
X382895Y353977D01*
X383099Y354070D01*
X383321Y354163D01*
X383821Y354329D01*
X384395Y354459D01*
X384691Y354477D01*
X385006Y354496D01*
X385191D01*
X385320Y354477D01*
D02*
G37*
G36*
X329642Y354477D02*
X329790Y354459D01*
X329975Y354422D01*
X330179Y354385D01*
X330420Y354329D01*
X330642Y354274D01*
X330901Y354181D01*
X331141Y354088D01*
X331401Y353959D01*
X331660Y353811D01*
X331919Y353644D01*
X332159Y353441D01*
X332382Y353219D01*
X332400Y353200D01*
X332437Y353163D01*
X332493Y353089D01*
X332567Y352978D01*
X332659Y352848D01*
X332752Y352700D01*
X332863Y352515D01*
X332974Y352293D01*
X333085Y352052D01*
X333196Y351793D01*
X333289Y351497D01*
X333381Y351182D01*
X333455Y350831D01*
X333511Y350461D01*
X333548Y350072D01*
X333566Y349646D01*
Y349627D01*
Y349553D01*
Y349424D01*
X333548Y349239D01*
X326607D01*
Y349220D01*
Y349165D01*
X326625Y349091D01*
Y348980D01*
X326644Y348850D01*
X326681Y348702D01*
X326736Y348369D01*
X326847Y347999D01*
X326995Y347591D01*
X327199Y347221D01*
X327458Y346888D01*
X327477D01*
X327495Y346851D01*
X327606Y346759D01*
X327773Y346629D01*
X327995Y346499D01*
X328291Y346351D01*
X328624Y346222D01*
X328994Y346129D01*
X329198Y346111D01*
X329420Y346092D01*
X329568D01*
X329735Y346111D01*
X329938Y346148D01*
X330160Y346203D01*
X330420Y346277D01*
X330660Y346388D01*
X330901Y346536D01*
X330919Y346555D01*
X331012Y346629D01*
X331123Y346740D01*
X331253Y346888D01*
X331401Y347092D01*
X331567Y347351D01*
X331734Y347647D01*
X331882Y347999D01*
X333511Y347795D01*
Y347777D01*
X333492Y347740D01*
X333474Y347666D01*
X333437Y347554D01*
X333381Y347443D01*
X333326Y347295D01*
X333178Y346981D01*
X332993Y346629D01*
X332733Y346259D01*
X332437Y345907D01*
X332067Y345574D01*
X332049D01*
X332012Y345537D01*
X331956Y345500D01*
X331882Y345444D01*
X331771Y345389D01*
X331660Y345333D01*
X331512Y345259D01*
X331345Y345185D01*
X331160Y345111D01*
X330975Y345037D01*
X330512Y344926D01*
X329994Y344833D01*
X329420Y344796D01*
X329217D01*
X329087Y344815D01*
X328920Y344833D01*
X328717Y344870D01*
X328495Y344907D01*
X328254Y344945D01*
X327736Y345093D01*
X327458Y345204D01*
X327199Y345315D01*
X326921Y345463D01*
X326662Y345629D01*
X326421Y345814D01*
X326181Y346037D01*
X326162Y346055D01*
X326125Y346092D01*
X326070Y346166D01*
X325996Y346277D01*
X325903Y346407D01*
X325811Y346555D01*
X325700Y346740D01*
X325588Y346944D01*
X325477Y347184D01*
X325366Y347443D01*
X325274Y347740D01*
X325181Y348054D01*
X325107Y348387D01*
X325052Y348758D01*
X325015Y349146D01*
X324996Y349553D01*
Y349572D01*
Y349665D01*
Y349776D01*
X325015Y349942D01*
X325033Y350146D01*
X325052Y350368D01*
X325089Y350627D01*
X325144Y350886D01*
X325292Y351479D01*
X325385Y351775D01*
X325496Y352089D01*
X325644Y352385D01*
X325811Y352663D01*
X325996Y352941D01*
X326199Y353200D01*
X326218Y353219D01*
X326255Y353256D01*
X326329Y353311D01*
X326421Y353404D01*
X326533Y353496D01*
X326681Y353607D01*
X326847Y353737D01*
X327051Y353848D01*
X327254Y353977D01*
X327495Y354088D01*
X327754Y354200D01*
X328032Y354292D01*
X328328Y354385D01*
X328643Y354440D01*
X328976Y354477D01*
X329328Y354496D01*
X329513D01*
X329642Y354477D01*
D02*
G37*
G36*
X311151Y353237D02*
X311169Y353256D01*
X311188Y353292D01*
X311243Y353348D01*
X311336Y353441D01*
X311428Y353533D01*
X311539Y353644D01*
X311687Y353755D01*
X311836Y353866D01*
X312206Y354107D01*
X312632Y354292D01*
X312872Y354385D01*
X313131Y354440D01*
X313409Y354477D01*
X313687Y354496D01*
X313835D01*
X314001Y354477D01*
X314205Y354459D01*
X314445Y354403D01*
X314723Y354348D01*
X315019Y354255D01*
X315297Y354144D01*
X315334Y354125D01*
X315426Y354088D01*
X315575Y353996D01*
X315741Y353885D01*
X315945Y353755D01*
X316148Y353589D01*
X316371Y353385D01*
X316556Y353163D01*
X316574Y353144D01*
X316630Y353052D01*
X316722Y352922D01*
X316833Y352756D01*
X316963Y352534D01*
X317092Y352274D01*
X317222Y351978D01*
X317333Y351664D01*
Y351645D01*
X317352Y351627D01*
X317370Y351571D01*
X317389Y351516D01*
X317426Y351330D01*
X317481Y351090D01*
X317537Y350812D01*
X317592Y350498D01*
X317611Y350146D01*
X317629Y349776D01*
Y349757D01*
Y349665D01*
Y349553D01*
X317611Y349387D01*
X317592Y349183D01*
X317574Y348961D01*
X317537Y348702D01*
X317481Y348424D01*
X317333Y347832D01*
X317241Y347517D01*
X317129Y347221D01*
X317000Y346907D01*
X316833Y346629D01*
X316648Y346351D01*
X316445Y346092D01*
X316426Y346074D01*
X316389Y346037D01*
X316334Y345981D01*
X316241Y345888D01*
X316111Y345796D01*
X315982Y345685D01*
X315834Y345574D01*
X315649Y345444D01*
X315445Y345333D01*
X315241Y345204D01*
X314742Y345000D01*
X314482Y344907D01*
X314205Y344852D01*
X313909Y344815D01*
X313613Y344796D01*
X313539D01*
X313446Y344815D01*
X313335D01*
X313205Y344833D01*
X313039Y344870D01*
X312668Y344963D01*
X312465Y345037D01*
X312261Y345130D01*
X312039Y345241D01*
X311836Y345370D01*
X311613Y345537D01*
X311410Y345722D01*
X311225Y345925D01*
X311040Y346166D01*
Y345000D01*
X309577D01*
Y357809D01*
X311151D01*
Y353237D01*
D02*
G37*
G36*
X303765Y354477D02*
X303913Y354459D01*
X304098Y354422D01*
X304302Y354385D01*
X304543Y354329D01*
X304765Y354274D01*
X305024Y354181D01*
X305264Y354088D01*
X305524Y353959D01*
X305783Y353811D01*
X306042Y353644D01*
X306283Y353441D01*
X306505Y353219D01*
X306523Y353200D01*
X306560Y353163D01*
X306616Y353089D01*
X306690Y352978D01*
X306782Y352848D01*
X306875Y352700D01*
X306986Y352515D01*
X307097Y352293D01*
X307208Y352052D01*
X307319Y351793D01*
X307412Y351497D01*
X307504Y351182D01*
X307578Y350831D01*
X307634Y350461D01*
X307671Y350072D01*
X307689Y349646D01*
Y349627D01*
Y349553D01*
Y349424D01*
X307671Y349239D01*
X300730D01*
Y349220D01*
Y349165D01*
X300748Y349091D01*
Y348980D01*
X300767Y348850D01*
X300804Y348702D01*
X300859Y348369D01*
X300970Y347999D01*
X301118Y347591D01*
X301322Y347221D01*
X301581Y346888D01*
X301600D01*
X301618Y346851D01*
X301729Y346759D01*
X301896Y346629D01*
X302118Y346499D01*
X302414Y346351D01*
X302747Y346222D01*
X303117Y346129D01*
X303321Y346111D01*
X303543Y346092D01*
X303691D01*
X303858Y346111D01*
X304061Y346148D01*
X304283Y346203D01*
X304543Y346277D01*
X304783Y346388D01*
X305024Y346536D01*
X305042Y346555D01*
X305135Y346629D01*
X305246Y346740D01*
X305376Y346888D01*
X305524Y347092D01*
X305690Y347351D01*
X305857Y347647D01*
X306005Y347999D01*
X307634Y347795D01*
Y347777D01*
X307615Y347740D01*
X307597Y347666D01*
X307560Y347554D01*
X307504Y347443D01*
X307449Y347295D01*
X307301Y346981D01*
X307116Y346629D01*
X306856Y346259D01*
X306560Y345907D01*
X306190Y345574D01*
X306171D01*
X306135Y345537D01*
X306079Y345500D01*
X306005Y345444D01*
X305894Y345389D01*
X305783Y345333D01*
X305635Y345259D01*
X305468Y345185D01*
X305283Y345111D01*
X305098Y345037D01*
X304635Y344926D01*
X304117Y344833D01*
X303543Y344796D01*
X303340D01*
X303210Y344815D01*
X303043Y344833D01*
X302840Y344870D01*
X302618Y344907D01*
X302377Y344945D01*
X301859Y345093D01*
X301581Y345204D01*
X301322Y345315D01*
X301044Y345463D01*
X300785Y345629D01*
X300545Y345814D01*
X300304Y346037D01*
X300285Y346055D01*
X300248Y346092D01*
X300193Y346166D01*
X300119Y346277D01*
X300026Y346407D01*
X299934Y346555D01*
X299823Y346740D01*
X299711Y346944D01*
X299601Y347184D01*
X299489Y347443D01*
X299397Y347740D01*
X299304Y348054D01*
X299230Y348387D01*
X299175Y348758D01*
X299138Y349146D01*
X299119Y349553D01*
Y349572D01*
Y349665D01*
Y349776D01*
X299138Y349942D01*
X299156Y350146D01*
X299175Y350368D01*
X299212Y350627D01*
X299267Y350886D01*
X299415Y351479D01*
X299508Y351775D01*
X299619Y352089D01*
X299767Y352385D01*
X299934Y352663D01*
X300119Y352941D01*
X300322Y353200D01*
X300341Y353219D01*
X300378Y353256D01*
X300452Y353311D01*
X300545Y353404D01*
X300656Y353496D01*
X300804Y353607D01*
X300970Y353737D01*
X301174Y353848D01*
X301377Y353977D01*
X301618Y354088D01*
X301877Y354200D01*
X302155Y354292D01*
X302451Y354385D01*
X302766Y354440D01*
X303099Y354477D01*
X303450Y354496D01*
X303636D01*
X303765Y354477D01*
D02*
G37*
G36*
X278851D02*
X279017Y354459D01*
X279202Y354422D01*
X279406Y354385D01*
X279647Y354348D01*
X280147Y354181D01*
X280406Y354088D01*
X280665Y353959D01*
X280924Y353829D01*
X281183Y353644D01*
X281424Y353459D01*
X281664Y353237D01*
X281683Y353219D01*
X281720Y353181D01*
X281775Y353107D01*
X281849Y353015D01*
X281942Y352885D01*
X282053Y352719D01*
X282164Y352534D01*
X282275Y352330D01*
X282386Y352108D01*
X282497Y351830D01*
X282608Y351553D01*
X282701Y351238D01*
X282775Y350905D01*
X282830Y350553D01*
X282867Y350183D01*
X282886Y349776D01*
Y349757D01*
Y349702D01*
Y349609D01*
Y349479D01*
X282867Y349331D01*
X282849Y349146D01*
Y348961D01*
X282812Y348758D01*
X282756Y348295D01*
X282645Y347832D01*
X282516Y347369D01*
X282331Y346944D01*
Y346925D01*
X282312Y346907D01*
X282275Y346851D01*
X282238Y346777D01*
X282108Y346592D01*
X281942Y346370D01*
X281720Y346111D01*
X281442Y345851D01*
X281128Y345592D01*
X280757Y345352D01*
X280739D01*
X280720Y345333D01*
X280665Y345296D01*
X280572Y345259D01*
X280480Y345222D01*
X280369Y345185D01*
X280091Y345074D01*
X279776Y344982D01*
X279387Y344889D01*
X278980Y344815D01*
X278536Y344796D01*
X278351D01*
X278203Y344815D01*
X278036Y344833D01*
X277851Y344870D01*
X277629Y344907D01*
X277407Y344945D01*
X276907Y345093D01*
X276630Y345204D01*
X276370Y345315D01*
X276111Y345463D01*
X275852Y345629D01*
X275611Y345814D01*
X275371Y346037D01*
X275352Y346055D01*
X275315Y346092D01*
X275260Y346166D01*
X275186Y346277D01*
X275093Y346407D01*
X275001Y346555D01*
X274890Y346740D01*
X274779Y346962D01*
X274668Y347203D01*
X274556Y347480D01*
X274464Y347777D01*
X274371Y348091D01*
X274297Y348443D01*
X274242Y348813D01*
X274205Y349220D01*
X274186Y349646D01*
Y349683D01*
Y349757D01*
X274205Y349887D01*
Y350072D01*
X274223Y350275D01*
X274260Y350535D01*
X274297Y350794D01*
X274371Y351090D01*
X274445Y351386D01*
X274538Y351701D01*
X274649Y352034D01*
X274797Y352348D01*
X274945Y352645D01*
X275149Y352941D01*
X275352Y353219D01*
X275611Y353459D01*
X275630Y353478D01*
X275667Y353496D01*
X275741Y353552D01*
X275834Y353626D01*
X275945Y353700D01*
X276093Y353792D01*
X276241Y353885D01*
X276426Y353977D01*
X276630Y354070D01*
X276852Y354163D01*
X277351Y354329D01*
X277925Y354459D01*
X278221Y354477D01*
X278536Y354496D01*
X278721D01*
X278851Y354477D01*
D02*
G37*
G36*
X236074Y354477D02*
X236241Y354459D01*
X236426Y354422D01*
X236629Y354385D01*
X236870Y354348D01*
X237370Y354181D01*
X237629Y354088D01*
X237888Y353959D01*
X238147Y353829D01*
X238406Y353644D01*
X238647Y353459D01*
X238888Y353237D01*
X238906Y353219D01*
X238943Y353181D01*
X238999Y353107D01*
X239073Y353015D01*
X239165Y352885D01*
X239276Y352719D01*
X239387Y352534D01*
X239498Y352330D01*
X239610Y352108D01*
X239721Y351830D01*
X239832Y351553D01*
X239924Y351238D01*
X239998Y350905D01*
X240054Y350553D01*
X240091Y350183D01*
X240109Y349776D01*
Y349757D01*
Y349702D01*
Y349609D01*
Y349479D01*
X240091Y349331D01*
X240072Y349146D01*
Y348961D01*
X240035Y348758D01*
X239980Y348295D01*
X239869Y347832D01*
X239739Y347369D01*
X239554Y346944D01*
Y346925D01*
X239535Y346907D01*
X239498Y346851D01*
X239461Y346777D01*
X239332Y346592D01*
X239165Y346370D01*
X238943Y346111D01*
X238666Y345851D01*
X238351Y345592D01*
X237981Y345352D01*
X237962D01*
X237944Y345333D01*
X237888Y345296D01*
X237796Y345259D01*
X237703Y345222D01*
X237592Y345185D01*
X237314Y345074D01*
X237000Y344982D01*
X236611Y344889D01*
X236204Y344815D01*
X235759Y344796D01*
X235574D01*
X235426Y344815D01*
X235260Y344833D01*
X235075Y344870D01*
X234853Y344907D01*
X234630Y344945D01*
X234131Y345093D01*
X233853Y345204D01*
X233594Y345315D01*
X233335Y345463D01*
X233075Y345629D01*
X232835Y345814D01*
X232594Y346037D01*
X232576Y346055D01*
X232539Y346092D01*
X232483Y346166D01*
X232409Y346277D01*
X232317Y346407D01*
X232224Y346555D01*
X232113Y346740D01*
X232002Y346962D01*
X231891Y347203D01*
X231780Y347480D01*
X231687Y347777D01*
X231595Y348091D01*
X231521Y348443D01*
X231465Y348813D01*
X231428Y349220D01*
X231410Y349646D01*
Y349683D01*
Y349757D01*
X231428Y349887D01*
Y350072D01*
X231447Y350275D01*
X231484Y350535D01*
X231521Y350794D01*
X231595Y351090D01*
X231669Y351386D01*
X231761Y351701D01*
X231872Y352034D01*
X232020Y352348D01*
X232169Y352645D01*
X232372Y352941D01*
X232576Y353219D01*
X232835Y353459D01*
X232853Y353478D01*
X232890Y353496D01*
X232964Y353552D01*
X233057Y353626D01*
X233168Y353700D01*
X233316Y353792D01*
X233464Y353885D01*
X233649Y353977D01*
X233853Y354070D01*
X234075Y354163D01*
X234575Y354329D01*
X235149Y354459D01*
X235445Y354477D01*
X235759Y354496D01*
X235945D01*
X236074Y354477D01*
D02*
G37*
G36*
X209642Y353237D02*
X209660Y353256D01*
X209679Y353292D01*
X209734Y353348D01*
X209827Y353441D01*
X209920Y353533D01*
X210031Y353644D01*
X210179Y353755D01*
X210327Y353866D01*
X210697Y354107D01*
X211123Y354292D01*
X211363Y354385D01*
X211622Y354440D01*
X211900Y354477D01*
X212178Y354496D01*
X212326D01*
X212492Y354477D01*
X212696Y354459D01*
X212937Y354403D01*
X213214Y354348D01*
X213510Y354255D01*
X213788Y354144D01*
X213825Y354125D01*
X213918Y354088D01*
X214066Y353996D01*
X214232Y353885D01*
X214436Y353755D01*
X214640Y353589D01*
X214862Y353385D01*
X215047Y353163D01*
X215065Y353144D01*
X215121Y353052D01*
X215213Y352922D01*
X215324Y352756D01*
X215454Y352534D01*
X215584Y352274D01*
X215713Y351978D01*
X215824Y351664D01*
Y351645D01*
X215843Y351627D01*
X215861Y351571D01*
X215880Y351516D01*
X215917Y351330D01*
X215972Y351090D01*
X216028Y350812D01*
X216083Y350498D01*
X216102Y350146D01*
X216120Y349776D01*
Y349757D01*
Y349664D01*
Y349553D01*
X216102Y349387D01*
X216083Y349183D01*
X216065Y348961D01*
X216028Y348702D01*
X215972Y348424D01*
X215824Y347832D01*
X215732Y347517D01*
X215621Y347221D01*
X215491Y346907D01*
X215324Y346629D01*
X215139Y346351D01*
X214936Y346092D01*
X214917Y346074D01*
X214880Y346037D01*
X214825Y345981D01*
X214732Y345888D01*
X214602Y345796D01*
X214473Y345685D01*
X214325Y345574D01*
X214140Y345444D01*
X213936Y345333D01*
X213733Y345204D01*
X213233Y345000D01*
X212974Y344907D01*
X212696Y344852D01*
X212400Y344815D01*
X212104Y344796D01*
X212030D01*
X211937Y344815D01*
X211826D01*
X211697Y344833D01*
X211530Y344870D01*
X211160Y344963D01*
X210956Y345037D01*
X210753Y345130D01*
X210530Y345241D01*
X210327Y345370D01*
X210105Y345537D01*
X209901Y345722D01*
X209716Y345925D01*
X209531Y346166D01*
Y345000D01*
X208068D01*
Y357809D01*
X209642D01*
Y353237D01*
D02*
G37*
G36*
X256953Y344778D02*
X255695D01*
X259415Y358031D01*
X260674D01*
X256953Y344778D01*
D02*
G37*
G36*
X164366Y344778D02*
X163108D01*
X166828Y358031D01*
X168087D01*
X164366Y344778D01*
D02*
G37*
G36*
X159387D02*
X158128D01*
X161849Y358031D01*
X163108D01*
X159387Y344778D01*
D02*
G37*
G36*
X172955Y354477D02*
X173085Y354459D01*
X173251Y354422D01*
X173436Y354385D01*
X173640Y354329D01*
X173844Y354255D01*
X174066Y354163D01*
X174288Y354051D01*
X174528Y353922D01*
X174750Y353774D01*
X174973Y353589D01*
X175195Y353385D01*
X175398Y353144D01*
Y354292D01*
X176842D01*
Y346259D01*
Y346240D01*
Y346166D01*
Y346055D01*
Y345907D01*
X176824Y345740D01*
Y345537D01*
X176805Y345315D01*
X176787Y345074D01*
X176731Y344574D01*
X176657Y344056D01*
X176602Y343815D01*
X176546Y343593D01*
X176472Y343390D01*
X176398Y343204D01*
Y343186D01*
X176379Y343167D01*
X176305Y343057D01*
X176213Y342890D01*
X176065Y342686D01*
X175861Y342464D01*
X175620Y342224D01*
X175324Y341983D01*
X174991Y341779D01*
X174973D01*
X174954Y341761D01*
X174899Y341724D01*
X174825Y341705D01*
X174732Y341650D01*
X174621Y341613D01*
X174343Y341520D01*
X174010Y341409D01*
X173603Y341335D01*
X173140Y341261D01*
X172640Y341243D01*
X172474D01*
X172363Y341261D01*
X172215D01*
X172067Y341280D01*
X171881Y341298D01*
X171678Y341335D01*
X171252Y341428D01*
X170808Y341557D01*
X170364Y341742D01*
X169956Y342001D01*
X169938Y342020D01*
X169919Y342038D01*
X169790Y342149D01*
X169642Y342316D01*
X169457Y342557D01*
X169272Y342871D01*
X169105Y343260D01*
X169049Y343482D01*
X169012Y343723D01*
X168975Y343964D01*
Y344241D01*
X170512Y344038D01*
Y344001D01*
X170530Y343926D01*
X170567Y343797D01*
X170604Y343630D01*
X170678Y343464D01*
X170771Y343297D01*
X170882Y343130D01*
X171030Y343001D01*
X171067Y342982D01*
X171141Y342927D01*
X171271Y342853D01*
X171456Y342779D01*
X171678Y342686D01*
X171956Y342612D01*
X172289Y342557D01*
X172640Y342538D01*
X172826D01*
X173011Y342557D01*
X173270Y342594D01*
X173529Y342649D01*
X173807Y342723D01*
X174084Y342834D01*
X174325Y342982D01*
X174343Y343001D01*
X174417Y343057D01*
X174528Y343167D01*
X174658Y343297D01*
X174787Y343482D01*
X174917Y343686D01*
X175047Y343926D01*
X175139Y344204D01*
Y344223D01*
X175158Y344297D01*
X175176Y344445D01*
X175195Y344630D01*
X175213Y344759D01*
Y344907D01*
X175232Y345074D01*
Y345259D01*
Y345463D01*
X175250Y345703D01*
Y345944D01*
Y346222D01*
X175232Y346203D01*
X175195Y346166D01*
X175139Y346111D01*
X175065Y346037D01*
X174973Y345944D01*
X174843Y345833D01*
X174695Y345722D01*
X174547Y345611D01*
X174158Y345389D01*
X173732Y345185D01*
X173492Y345111D01*
X173233Y345056D01*
X172955Y345019D01*
X172677Y345000D01*
X172585D01*
X172492Y345019D01*
X172363D01*
X172196Y345037D01*
X172011Y345074D01*
X171807Y345111D01*
X171585Y345167D01*
X171345Y345241D01*
X171104Y345333D01*
X170863Y345444D01*
X170604Y345574D01*
X170364Y345740D01*
X170123Y345925D01*
X169901Y346129D01*
X169697Y346370D01*
X169679Y346388D01*
X169660Y346425D01*
X169605Y346518D01*
X169531Y346610D01*
X169457Y346759D01*
X169364Y346906D01*
X169272Y347092D01*
X169179Y347314D01*
X169086Y347536D01*
X168994Y347795D01*
X168901Y348054D01*
X168827Y348350D01*
X168698Y348980D01*
X168679Y349331D01*
X168661Y349683D01*
Y349701D01*
Y349739D01*
Y349813D01*
Y349905D01*
X168679Y350035D01*
Y350164D01*
X168716Y350498D01*
X168772Y350868D01*
X168864Y351275D01*
X168975Y351701D01*
X169142Y352126D01*
Y352145D01*
X169160Y352182D01*
X169197Y352237D01*
X169235Y352311D01*
X169346Y352515D01*
X169494Y352774D01*
X169697Y353052D01*
X169938Y353329D01*
X170216Y353626D01*
X170530Y353866D01*
X170549D01*
X170567Y353885D01*
X170623Y353922D01*
X170697Y353959D01*
X170882Y354070D01*
X171141Y354181D01*
X171456Y354292D01*
X171826Y354403D01*
X172233Y354477D01*
X172677Y354496D01*
X172844D01*
X172955Y354477D01*
D02*
G37*
%LPC*%
G36*
X139378Y353256D02*
X139285D01*
X139211Y353237D01*
X139026Y353200D01*
X138786Y353144D01*
X138508Y353033D01*
X138212Y352867D01*
X138045Y352756D01*
X137897Y352626D01*
X137749Y352478D01*
X137601Y352311D01*
Y352293D01*
X137564Y352274D01*
X137527Y352219D01*
X137490Y352145D01*
X137434Y352034D01*
X137360Y351923D01*
X137286Y351775D01*
X137231Y351627D01*
X137157Y351442D01*
X137083Y351238D01*
X137027Y351016D01*
X136953Y350775D01*
X136916Y350498D01*
X136879Y350220D01*
X136842Y349924D01*
Y349590D01*
Y349572D01*
Y349516D01*
Y349424D01*
X136861Y349294D01*
Y349146D01*
X136879Y348980D01*
X136935Y348591D01*
X137027Y348147D01*
X137138Y347721D01*
X137323Y347295D01*
X137434Y347110D01*
X137564Y346944D01*
X137601Y346906D01*
X137694Y346814D01*
X137842Y346666D01*
X138045Y346518D01*
X138304Y346370D01*
X138601Y346222D01*
X138934Y346129D01*
X139119Y346111D01*
X139304Y346092D01*
X139415D01*
X139489Y346111D01*
X139674Y346148D01*
X139933Y346203D01*
X140211Y346314D01*
X140507Y346462D01*
X140803Y346684D01*
X140951Y346814D01*
X141099Y346962D01*
Y346981D01*
X141136Y346999D01*
X141173Y347055D01*
X141210Y347129D01*
X141284Y347221D01*
X141340Y347351D01*
X141414Y347480D01*
X141488Y347647D01*
X141544Y347814D01*
X141618Y348036D01*
X141692Y348258D01*
X141747Y348498D01*
X141784Y348776D01*
X141821Y349072D01*
X141858Y349387D01*
Y349720D01*
Y349739D01*
Y349794D01*
Y349887D01*
X141840Y350016D01*
Y350164D01*
X141821Y350331D01*
X141766Y350720D01*
X141673Y351145D01*
X141544Y351571D01*
X141358Y351997D01*
X141247Y352200D01*
X141118Y352367D01*
Y352385D01*
X141081Y352404D01*
X140988Y352515D01*
X140840Y352645D01*
X140637Y352811D01*
X140377Y352978D01*
X140081Y353126D01*
X139748Y353218D01*
X139563Y353237D01*
X139378Y353256D01*
D02*
G37*
G36*
X432132Y353200D02*
X431854D01*
X431780Y353182D01*
X431577Y353145D01*
X431336Y353089D01*
X431059Y352978D01*
X430762Y352811D01*
X430614Y352719D01*
X430466Y352589D01*
X430318Y352460D01*
X430170Y352293D01*
Y352274D01*
X430133Y352256D01*
X430096Y352201D01*
X430059Y352126D01*
X430003Y352034D01*
X429929Y351923D01*
X429874Y351793D01*
X429800Y351645D01*
X429726Y351460D01*
X429670Y351275D01*
X429596Y351053D01*
X429541Y350831D01*
X429504Y350572D01*
X429467Y350294D01*
X429430Y350016D01*
Y349702D01*
Y349683D01*
Y349628D01*
Y349535D01*
Y349424D01*
X429448Y349294D01*
Y349128D01*
X429485Y348776D01*
X429541Y348387D01*
X429615Y347980D01*
X429726Y347610D01*
X429800Y347443D01*
X429874Y347295D01*
Y347277D01*
X429911Y347240D01*
X429948Y347184D01*
X430003Y347110D01*
X430170Y346907D01*
X430411Y346703D01*
X430688Y346481D01*
X431040Y346277D01*
X431225Y346203D01*
X431447Y346148D01*
X431651Y346111D01*
X431891Y346092D01*
X431984D01*
X432058Y346111D01*
X432262Y346148D01*
X432502Y346203D01*
X432780Y346314D01*
X433076Y346462D01*
X433372Y346685D01*
X433520Y346832D01*
X433668Y346981D01*
Y346999D01*
X433705Y347018D01*
X433742Y347073D01*
X433779Y347147D01*
X433853Y347240D01*
X433909Y347351D01*
X433983Y347499D01*
X434057Y347647D01*
X434113Y347832D01*
X434187Y348017D01*
X434261Y348239D01*
X434316Y348480D01*
X434353Y348739D01*
X434390Y349017D01*
X434427Y349331D01*
Y349646D01*
Y349665D01*
Y349720D01*
Y349813D01*
X434409Y349942D01*
Y350090D01*
X434390Y350275D01*
X434335Y350664D01*
X434261Y351090D01*
X434131Y351553D01*
X433946Y351960D01*
X433835Y352163D01*
X433705Y352330D01*
Y352348D01*
X433668Y352367D01*
X433576Y352460D01*
X433428Y352608D01*
X433224Y352774D01*
X432965Y352922D01*
X432669Y353070D01*
X432317Y353163D01*
X432132Y353200D01*
D02*
G37*
G36*
X385006Y353200D02*
X384894D01*
X384802Y353182D01*
X384598Y353163D01*
X384321Y353089D01*
X384006Y352978D01*
X383673Y352830D01*
X383358Y352608D01*
X383192Y352460D01*
X383044Y352311D01*
Y352293D01*
X383007Y352274D01*
X382969Y352219D01*
X382914Y352145D01*
X382858Y352052D01*
X382803Y351941D01*
X382729Y351793D01*
X382655Y351645D01*
X382581Y351460D01*
X382507Y351275D01*
X382451Y351053D01*
X382396Y350812D01*
X382340Y350553D01*
X382303Y350275D01*
X382285Y349961D01*
X382266Y349646D01*
Y349628D01*
Y349572D01*
Y349480D01*
X382285Y349350D01*
Y349202D01*
X382303Y349035D01*
X382359Y348646D01*
X382451Y348202D01*
X382599Y347758D01*
X382784Y347332D01*
X382914Y347147D01*
X383044Y346962D01*
X383062D01*
X383081Y346925D01*
X383192Y346832D01*
X383358Y346685D01*
X383580Y346536D01*
X383858Y346370D01*
X384191Y346222D01*
X384580Y346129D01*
X384784Y346111D01*
X385006Y346092D01*
X385117D01*
X385209Y346111D01*
X385413Y346148D01*
X385690Y346203D01*
X385987Y346314D01*
X386320Y346462D01*
X386634Y346685D01*
X386801Y346832D01*
X386949Y346981D01*
X386968Y346999D01*
X386986Y347018D01*
X387023Y347073D01*
X387079Y347147D01*
X387134Y347240D01*
X387208Y347351D01*
X387282Y347499D01*
X387356Y347647D01*
X387430Y347832D01*
X387486Y348036D01*
X387560Y348258D01*
X387615Y348498D01*
X387671Y348776D01*
X387708Y349054D01*
X387745Y349368D01*
Y349702D01*
Y349720D01*
Y349776D01*
Y349868D01*
X387727Y349979D01*
Y350127D01*
X387708Y350294D01*
X387652Y350683D01*
X387560Y351090D01*
X387412Y351534D01*
X387208Y351941D01*
X387097Y352145D01*
X386949Y352311D01*
Y352330D01*
X386912Y352348D01*
X386801Y352460D01*
X386634Y352589D01*
X386412Y352756D01*
X386135Y352922D01*
X385802Y353070D01*
X385431Y353163D01*
X385228Y353182D01*
X385006Y353200D01*
D02*
G37*
G36*
X329346Y353200D02*
X329235D01*
X329161Y353182D01*
X328957Y353163D01*
X328717Y353107D01*
X328420Y353015D01*
X328106Y352885D01*
X327810Y352700D01*
X327514Y352460D01*
X327477Y352423D01*
X327402Y352330D01*
X327273Y352163D01*
X327143Y351941D01*
X326995Y351682D01*
X326866Y351349D01*
X326755Y350960D01*
X326699Y350535D01*
X331900D01*
Y350553D01*
Y350590D01*
X331882Y350646D01*
Y350720D01*
X331845Y350942D01*
X331789Y351182D01*
X331697Y351479D01*
X331604Y351756D01*
X331456Y352034D01*
X331290Y352274D01*
Y352293D01*
X331253Y352311D01*
X331160Y352423D01*
X330993Y352571D01*
X330771Y352737D01*
X330494Y352904D01*
X330160Y353052D01*
X329772Y353163D01*
X329568Y353182D01*
X329346Y353200D01*
D02*
G37*
G36*
X313724Y353200D02*
X313446D01*
X313372Y353181D01*
X313168Y353144D01*
X312928Y353089D01*
X312650Y352978D01*
X312354Y352811D01*
X312206Y352719D01*
X312058Y352589D01*
X311910Y352460D01*
X311761Y352293D01*
Y352274D01*
X311724Y352256D01*
X311687Y352200D01*
X311650Y352126D01*
X311595Y352034D01*
X311521Y351923D01*
X311465Y351793D01*
X311391Y351645D01*
X311317Y351460D01*
X311262Y351275D01*
X311188Y351053D01*
X311132Y350831D01*
X311095Y350571D01*
X311058Y350294D01*
X311021Y350016D01*
Y349702D01*
Y349683D01*
Y349627D01*
Y349535D01*
Y349424D01*
X311040Y349294D01*
Y349128D01*
X311077Y348776D01*
X311132Y348387D01*
X311206Y347980D01*
X311317Y347610D01*
X311391Y347443D01*
X311465Y347295D01*
Y347277D01*
X311502Y347240D01*
X311539Y347184D01*
X311595Y347110D01*
X311761Y346907D01*
X312002Y346703D01*
X312280Y346481D01*
X312632Y346277D01*
X312817Y346203D01*
X313039Y346148D01*
X313242Y346111D01*
X313483Y346092D01*
X313576D01*
X313650Y346111D01*
X313853Y346148D01*
X314094Y346203D01*
X314371Y346314D01*
X314668Y346462D01*
X314964Y346684D01*
X315112Y346832D01*
X315260Y346981D01*
Y346999D01*
X315297Y347018D01*
X315334Y347073D01*
X315371Y347147D01*
X315445Y347240D01*
X315501Y347351D01*
X315575Y347499D01*
X315649Y347647D01*
X315704Y347832D01*
X315778Y348017D01*
X315852Y348239D01*
X315908Y348480D01*
X315945Y348739D01*
X315982Y349017D01*
X316019Y349331D01*
Y349646D01*
Y349665D01*
Y349720D01*
Y349813D01*
X316000Y349942D01*
Y350090D01*
X315982Y350275D01*
X315926Y350664D01*
X315852Y351090D01*
X315723Y351553D01*
X315538Y351960D01*
X315426Y352163D01*
X315297Y352330D01*
Y352348D01*
X315260Y352367D01*
X315167Y352460D01*
X315019Y352608D01*
X314816Y352774D01*
X314557Y352922D01*
X314260Y353070D01*
X313909Y353163D01*
X313724Y353200D01*
D02*
G37*
G36*
X303469D02*
X303358D01*
X303284Y353181D01*
X303080Y353163D01*
X302840Y353107D01*
X302544Y353015D01*
X302229Y352885D01*
X301933Y352700D01*
X301637Y352460D01*
X301600Y352422D01*
X301525Y352330D01*
X301396Y352163D01*
X301266Y351941D01*
X301118Y351682D01*
X300989Y351349D01*
X300878Y350960D01*
X300822Y350535D01*
X306023D01*
Y350553D01*
Y350590D01*
X306005Y350646D01*
Y350720D01*
X305968Y350942D01*
X305912Y351182D01*
X305820Y351479D01*
X305727Y351756D01*
X305579Y352034D01*
X305413Y352274D01*
Y352293D01*
X305376Y352311D01*
X305283Y352422D01*
X305116Y352571D01*
X304894Y352737D01*
X304617Y352904D01*
X304283Y353052D01*
X303895Y353163D01*
X303691Y353181D01*
X303469Y353200D01*
D02*
G37*
G36*
X278536D02*
X278425D01*
X278332Y353181D01*
X278129Y353163D01*
X277851Y353089D01*
X277537Y352978D01*
X277203Y352830D01*
X276889Y352608D01*
X276722Y352460D01*
X276574Y352311D01*
Y352293D01*
X276537Y352274D01*
X276500Y352219D01*
X276445Y352145D01*
X276389Y352052D01*
X276333Y351941D01*
X276259Y351793D01*
X276185Y351645D01*
X276111Y351460D01*
X276037Y351275D01*
X275982Y351053D01*
X275926Y350812D01*
X275871Y350553D01*
X275834Y350275D01*
X275815Y349961D01*
X275797Y349646D01*
Y349627D01*
Y349572D01*
Y349479D01*
X275815Y349350D01*
Y349202D01*
X275834Y349035D01*
X275889Y348646D01*
X275982Y348202D01*
X276130Y347758D01*
X276315Y347332D01*
X276445Y347147D01*
X276574Y346962D01*
X276592D01*
X276611Y346925D01*
X276722Y346832D01*
X276889Y346684D01*
X277111Y346536D01*
X277389Y346370D01*
X277722Y346222D01*
X278110Y346129D01*
X278314Y346111D01*
X278536Y346092D01*
X278647D01*
X278740Y346111D01*
X278943Y346148D01*
X279221Y346203D01*
X279517Y346314D01*
X279850Y346462D01*
X280165Y346684D01*
X280332Y346832D01*
X280480Y346981D01*
X280498Y346999D01*
X280517Y347018D01*
X280554Y347073D01*
X280609Y347147D01*
X280665Y347240D01*
X280739Y347351D01*
X280813Y347499D01*
X280887Y347647D01*
X280961Y347832D01*
X281016Y348036D01*
X281090Y348258D01*
X281146Y348498D01*
X281202Y348776D01*
X281239Y349054D01*
X281276Y349368D01*
Y349702D01*
Y349720D01*
Y349776D01*
Y349868D01*
X281257Y349979D01*
Y350127D01*
X281239Y350294D01*
X281183Y350683D01*
X281090Y351090D01*
X280942Y351534D01*
X280739Y351941D01*
X280628Y352145D01*
X280480Y352311D01*
Y352330D01*
X280443Y352348D01*
X280332Y352460D01*
X280165Y352589D01*
X279943Y352756D01*
X279665Y352922D01*
X279332Y353070D01*
X278962Y353163D01*
X278758Y353181D01*
X278536Y353200D01*
D02*
G37*
G36*
X235759Y353200D02*
X235648D01*
X235556Y353181D01*
X235352Y353163D01*
X235075Y353089D01*
X234760Y352978D01*
X234427Y352830D01*
X234112Y352608D01*
X233945Y352460D01*
X233797Y352311D01*
Y352293D01*
X233760Y352274D01*
X233723Y352219D01*
X233668Y352145D01*
X233612Y352052D01*
X233557Y351941D01*
X233483Y351793D01*
X233409Y351645D01*
X233335Y351460D01*
X233261Y351275D01*
X233205Y351053D01*
X233150Y350812D01*
X233094Y350553D01*
X233057Y350275D01*
X233038Y349961D01*
X233020Y349646D01*
Y349627D01*
Y349572D01*
Y349479D01*
X233038Y349350D01*
Y349202D01*
X233057Y349035D01*
X233113Y348646D01*
X233205Y348202D01*
X233353Y347758D01*
X233538Y347332D01*
X233668Y347147D01*
X233797Y346962D01*
X233816D01*
X233834Y346925D01*
X233945Y346832D01*
X234112Y346684D01*
X234334Y346536D01*
X234612Y346370D01*
X234945Y346222D01*
X235334Y346129D01*
X235537Y346111D01*
X235759Y346092D01*
X235871D01*
X235963Y346111D01*
X236167Y346148D01*
X236444Y346203D01*
X236740Y346314D01*
X237074Y346462D01*
X237388Y346684D01*
X237555Y346832D01*
X237703Y346981D01*
X237721Y346999D01*
X237740Y347018D01*
X237777Y347073D01*
X237833Y347147D01*
X237888Y347240D01*
X237962Y347351D01*
X238036Y347499D01*
X238110Y347647D01*
X238184Y347832D01*
X238240Y348036D01*
X238314Y348258D01*
X238369Y348498D01*
X238425Y348776D01*
X238462Y349054D01*
X238499Y349368D01*
Y349702D01*
Y349720D01*
Y349776D01*
Y349868D01*
X238480Y349979D01*
Y350127D01*
X238462Y350294D01*
X238406Y350683D01*
X238314Y351090D01*
X238166Y351534D01*
X237962Y351941D01*
X237851Y352145D01*
X237703Y352311D01*
Y352330D01*
X237666Y352348D01*
X237555Y352460D01*
X237388Y352589D01*
X237166Y352756D01*
X236889Y352922D01*
X236555Y353070D01*
X236185Y353163D01*
X235982Y353181D01*
X235759Y353200D01*
D02*
G37*
G36*
X212215D02*
X211937D01*
X211863Y353181D01*
X211660Y353144D01*
X211419Y353089D01*
X211141Y352978D01*
X210845Y352811D01*
X210697Y352719D01*
X210549Y352589D01*
X210401Y352460D01*
X210253Y352293D01*
Y352274D01*
X210216Y352256D01*
X210179Y352200D01*
X210142Y352126D01*
X210086Y352034D01*
X210012Y351923D01*
X209957Y351793D01*
X209882Y351645D01*
X209808Y351460D01*
X209753Y351275D01*
X209679Y351053D01*
X209623Y350831D01*
X209586Y350571D01*
X209549Y350294D01*
X209512Y350016D01*
Y349702D01*
Y349683D01*
Y349627D01*
Y349535D01*
Y349424D01*
X209531Y349294D01*
Y349128D01*
X209568Y348776D01*
X209623Y348387D01*
X209697Y347980D01*
X209808Y347610D01*
X209882Y347443D01*
X209957Y347295D01*
Y347277D01*
X209994Y347240D01*
X210031Y347184D01*
X210086Y347110D01*
X210253Y346907D01*
X210493Y346703D01*
X210771Y346481D01*
X211123Y346277D01*
X211308Y346203D01*
X211530Y346148D01*
X211734Y346111D01*
X211974Y346092D01*
X212067D01*
X212141Y346111D01*
X212344Y346148D01*
X212585Y346203D01*
X212863Y346314D01*
X213159Y346462D01*
X213455Y346684D01*
X213603Y346832D01*
X213751Y346981D01*
Y346999D01*
X213788Y347018D01*
X213825Y347073D01*
X213862Y347147D01*
X213936Y347240D01*
X213992Y347351D01*
X214066Y347499D01*
X214140Y347647D01*
X214195Y347832D01*
X214269Y348017D01*
X214343Y348239D01*
X214399Y348480D01*
X214436Y348739D01*
X214473Y349017D01*
X214510Y349331D01*
Y349646D01*
Y349664D01*
Y349720D01*
Y349813D01*
X214492Y349942D01*
Y350090D01*
X214473Y350275D01*
X214417Y350664D01*
X214343Y351090D01*
X214214Y351553D01*
X214029Y351960D01*
X213918Y352163D01*
X213788Y352330D01*
Y352348D01*
X213751Y352367D01*
X213658Y352460D01*
X213510Y352608D01*
X213307Y352774D01*
X213048Y352922D01*
X212752Y353070D01*
X212400Y353163D01*
X212215Y353200D01*
D02*
G37*
G36*
X172992Y353200D02*
X172696D01*
X172622Y353181D01*
X172418Y353163D01*
X172178Y353089D01*
X171881Y352996D01*
X171585Y352830D01*
X171289Y352626D01*
X171141Y352478D01*
X170993Y352330D01*
Y352311D01*
X170956Y352293D01*
X170919Y352237D01*
X170882Y352163D01*
X170826Y352089D01*
X170771Y351978D01*
X170697Y351849D01*
X170641Y351701D01*
X170567Y351534D01*
X170493Y351330D01*
X170438Y351127D01*
X170382Y350905D01*
X170345Y350646D01*
X170308Y350386D01*
X170271Y350109D01*
Y349794D01*
Y349776D01*
Y349720D01*
Y349627D01*
X170290Y349498D01*
Y349350D01*
X170308Y349165D01*
X170364Y348776D01*
X170456Y348332D01*
X170567Y347906D01*
X170752Y347480D01*
X170863Y347295D01*
X170993Y347129D01*
X171030Y347092D01*
X171123Y346999D01*
X171271Y346869D01*
X171493Y346721D01*
X171752Y346555D01*
X172067Y346425D01*
X172418Y346333D01*
X172603Y346314D01*
X172807Y346296D01*
X172918D01*
X172992Y346314D01*
X173196Y346333D01*
X173455Y346407D01*
X173732Y346499D01*
X174047Y346647D01*
X174343Y346851D01*
X174491Y346981D01*
X174639Y347129D01*
Y347147D01*
X174677Y347166D01*
X174714Y347221D01*
X174750Y347295D01*
X174806Y347369D01*
X174880Y347480D01*
X174936Y347610D01*
X175010Y347777D01*
X175084Y347943D01*
X175139Y348128D01*
X175213Y348350D01*
X175269Y348591D01*
X175306Y348832D01*
X175343Y349109D01*
X175380Y349424D01*
Y349739D01*
Y349757D01*
Y349813D01*
Y349905D01*
X175361Y350016D01*
Y350164D01*
X175343Y350331D01*
X175287Y350701D01*
X175195Y351127D01*
X175065Y351553D01*
X174880Y351978D01*
X174750Y352163D01*
X174621Y352330D01*
Y352348D01*
X174584Y352367D01*
X174491Y352460D01*
X174325Y352608D01*
X174103Y352774D01*
X173844Y352922D01*
X173529Y353070D01*
X173177Y353163D01*
X172992Y353200D01*
D02*
G37*
%LPD*%
D10*
X256992Y67500D02*
G03*
X256992Y67500I-492J0D01*
G01*
X62492Y325500D02*
G03*
X62492Y325500I-492J0D01*
G01*
X179992Y100500D02*
G03*
X179992Y100500I-492J0D01*
G01*
X233970Y211740D02*
G03*
X233970Y211740I-492J0D01*
G01*
X344492Y118500D02*
G03*
X344492Y118500I-492J0D01*
G01*
X395067Y249354D02*
G03*
X395067Y249354I-492J0D01*
G01*
X250122Y185378D02*
G03*
X250122Y185378I-492J0D01*
G01*
X233953Y159669D02*
G03*
X233953Y159669I-492J0D01*
G01*
D11*
X263398Y76185D02*
G03*
X263398Y76185I-394J0D01*
G01*
X187194Y95000D02*
G03*
X187194Y95000I-394J0D01*
G01*
X355429Y112898D02*
G03*
X355429Y112898I-1181J0D01*
G01*
X388866Y239709D02*
G03*
X388866Y239709I-1181J0D01*
G01*
X256716Y193252D02*
G03*
X256716Y193252I-1181J0D01*
G01*
D12*
X222371Y214740D02*
G03*
X222371Y214740I-394J0D01*
G01*
X222354Y162669D02*
G03*
X222354Y162669I-394J0D01*
G01*
D13*
X114827Y80870D02*
X143173D01*
Y102130D01*
X114827D02*
X143173D01*
X114827Y80870D02*
Y102130D01*
X200978Y262240D02*
X226978D01*
X200978Y211240D02*
X231478D01*
X399500Y129000D02*
X408500D01*
X399500D02*
Y145000D01*
X408500D01*
Y129000D02*
Y145000D01*
X112387Y310000D02*
X124387D01*
X112387Y303000D02*
X124387D01*
Y310000D01*
X188000Y67000D02*
Y74000D01*
Y67000D02*
X202000D01*
X188000Y74000D02*
X202000D01*
Y67000D02*
Y74000D01*
X181516Y43000D02*
Y53000D01*
Y43000D02*
X343484D01*
X181516Y53000D02*
X343484D01*
Y43000D02*
Y53000D01*
X366500Y154500D02*
Y161500D01*
Y154500D02*
X380500D01*
X366500Y161500D02*
X380500D01*
Y154500D02*
Y161500D01*
X132063Y247000D02*
Y254000D01*
Y247000D02*
X146063D01*
X132063Y254000D02*
X146063D01*
Y247000D02*
Y254000D01*
X134827Y326130D02*
X163173D01*
X134827Y304870D02*
Y326130D01*
Y304870D02*
X163173D01*
Y326130D01*
X238000Y106500D02*
X254000D01*
X238000D02*
Y115500D01*
X254000D01*
Y106500D02*
Y115500D01*
X29000Y290000D02*
X38000D01*
X29000D02*
Y306000D01*
X38000D01*
Y290000D02*
Y306000D01*
X90000Y335000D02*
X106000D01*
X90000D02*
Y344000D01*
X106000D01*
Y335000D02*
Y344000D01*
X12722Y312778D02*
X28722D01*
X12722D02*
Y321778D01*
X28722D01*
Y312778D02*
Y321778D01*
X366500Y294000D02*
X382500D01*
X366500D02*
Y303000D01*
X382500D01*
Y294000D02*
Y303000D01*
X388500Y294000D02*
X404500D01*
X388500D02*
Y303000D01*
X404500D01*
Y294000D02*
Y303000D01*
X167500Y65000D02*
X176500D01*
X167500D02*
Y81000D01*
X176500D01*
Y65000D02*
Y81000D01*
X332000Y57500D02*
X348000D01*
X332000D02*
Y66500D01*
X348000D01*
Y57500D02*
Y66500D01*
X200961Y210169D02*
X226961D01*
X200961Y159169D02*
X231461D01*
X238500Y193000D02*
Y207000D01*
Y193000D02*
X245500D01*
X238500Y207000D02*
X245500D01*
Y193000D02*
Y207000D01*
X279437Y245000D02*
Y252000D01*
Y245000D02*
X293437D01*
X279437Y252000D02*
X293437D01*
Y245000D02*
Y252000D01*
X51000Y314000D02*
Y328000D01*
Y314000D02*
X58000D01*
X51000Y328000D02*
X58000D01*
Y314000D02*
Y328000D01*
X87500Y303563D02*
Y317563D01*
Y303563D02*
X94500D01*
X87500Y317563D02*
X94500D01*
Y303563D02*
Y317563D01*
X234500Y231000D02*
Y245000D01*
Y231000D02*
X241500D01*
X234500Y245000D02*
X241500D01*
Y231000D02*
Y245000D01*
X195500Y101500D02*
Y115500D01*
Y101500D02*
X202500D01*
X195500Y115500D02*
X202500D01*
Y101500D02*
Y115500D01*
X389000Y111937D02*
Y125937D01*
Y111937D02*
X396000D01*
X389000Y125937D02*
X396000D01*
Y111937D02*
Y125937D01*
X139063Y55937D02*
Y62937D01*
Y55937D02*
X153063D01*
X139063Y62937D02*
X153063D01*
Y55937D02*
Y62937D01*
X96500Y83824D02*
Y95824D01*
X103500Y83824D02*
Y95824D01*
X96500D02*
X103500D01*
X398113Y40500D02*
X410113D01*
X398113Y47500D02*
X410113D01*
X398113Y40500D02*
Y47500D01*
X86500Y83887D02*
Y95887D01*
X93500Y83887D02*
Y95887D01*
X86500D02*
X93500D01*
X398113Y50500D02*
X410113D01*
X398113Y57500D02*
X410113D01*
X398113Y50500D02*
Y57500D01*
X76500Y83887D02*
Y95887D01*
X83500Y83887D02*
Y95887D01*
X76500D02*
X83500D01*
X398113Y60500D02*
X410113D01*
X398113Y67500D02*
X410113D01*
X398113Y60500D02*
Y67500D01*
X66500Y83887D02*
Y95887D01*
X73500Y83887D02*
Y95887D01*
X66500D02*
X73500D01*
X398113Y70500D02*
X410113D01*
X398113Y77500D02*
X410113D01*
X398113Y70500D02*
Y77500D01*
X56500Y84387D02*
Y96387D01*
X63500Y84387D02*
Y96387D01*
X56500D02*
X63500D01*
X398113Y80500D02*
X410113D01*
X398113Y87500D02*
X410113D01*
X398113Y80500D02*
Y87500D01*
X46500Y84387D02*
Y96387D01*
X53500Y84387D02*
Y96387D01*
X46500D02*
X53500D01*
X398176Y90500D02*
X410176D01*
X398176Y97500D02*
X410176D01*
X398176Y90500D02*
Y97500D01*
X36500Y84387D02*
Y96387D01*
X43500Y84387D02*
Y96387D01*
X36500D02*
X43500D01*
X398176Y100500D02*
X410176D01*
X398176Y107500D02*
X410176D01*
X398176Y100500D02*
Y107500D01*
X26500Y84387D02*
Y96387D01*
X33500Y84387D02*
Y96387D01*
X26500D02*
X33500D01*
X398176Y110500D02*
X410176D01*
X398176Y117500D02*
X410176D01*
X398176Y110500D02*
Y117500D01*
X16500Y84387D02*
Y96387D01*
X23500Y84387D02*
Y96387D01*
X16500D02*
X23500D01*
X248954Y82189D02*
Y96189D01*
Y82189D02*
X255954D01*
X248954Y96189D02*
X255954D01*
Y82189D02*
Y96189D01*
X240954Y82252D02*
Y96252D01*
Y82252D02*
X247954D01*
X240954Y96252D02*
X247954D01*
Y82252D02*
Y96252D01*
X4016Y43000D02*
Y53000D01*
Y43000D02*
X165984D01*
X4016Y53000D02*
X165984D01*
Y43000D02*
Y53000D01*
X434500Y38016D02*
Y199984D01*
Y38016D02*
X444500D01*
X434500Y199984D02*
X444500D01*
Y38016D02*
Y199984D01*
X132000Y146000D02*
Y153000D01*
Y146000D02*
X146000D01*
X132000Y153000D02*
X146000D01*
Y146000D02*
Y153000D01*
X260332Y262441D02*
X267333D01*
X260332Y248441D02*
Y262441D01*
X267333Y248441D02*
Y262441D01*
X260332Y248441D02*
X267333D01*
X260000Y295500D02*
Y309500D01*
Y295500D02*
X267000D01*
X260000Y309500D02*
X267000D01*
Y295500D02*
Y309500D01*
X278000Y295000D02*
Y302000D01*
Y295000D02*
X292000D01*
X278000Y302000D02*
X292000D01*
Y295000D02*
Y302000D01*
X300000Y160354D02*
Y174354D01*
Y160354D02*
X307000D01*
X300000Y174354D02*
X307000D01*
Y160354D02*
Y174354D01*
X255699Y159917D02*
Y166917D01*
Y159917D02*
X269699D01*
X255699Y166917D02*
X269699D01*
Y159917D02*
Y166917D01*
X132000Y154500D02*
Y161500D01*
Y154500D02*
X146000D01*
X132000Y161500D02*
X146000D01*
Y154500D02*
Y161500D01*
X132063Y203000D02*
Y210000D01*
Y203000D02*
X146063D01*
X132063Y210000D02*
X146063D01*
Y203000D02*
Y210000D01*
X132063Y194500D02*
Y201500D01*
Y194500D02*
X146063D01*
X132063Y201500D02*
X146063D01*
Y194500D02*
Y201500D01*
X132063Y211500D02*
Y218500D01*
Y211500D02*
X146063D01*
X132063Y218500D02*
X146063D01*
Y211500D02*
Y218500D01*
X132063Y220000D02*
Y227000D01*
Y220000D02*
X146063D01*
X132063Y227000D02*
X146063D01*
Y220000D02*
Y227000D01*
X132063Y255500D02*
Y262500D01*
Y255500D02*
X146063D01*
X132063Y262500D02*
X146063D01*
Y255500D02*
Y262500D01*
X381500Y146063D02*
Y160063D01*
Y146063D02*
X388500D01*
X381500Y160063D02*
X388500D01*
Y146063D02*
Y160063D01*
X35000Y314063D02*
Y328063D01*
Y314063D02*
X42000D01*
X35000Y328063D02*
X42000D01*
Y314063D02*
Y328063D01*
X326063Y171500D02*
Y178500D01*
Y171500D02*
X340063D01*
X326063Y178500D02*
X340063D01*
Y171500D02*
Y178500D01*
X326063Y158500D02*
Y165500D01*
Y158500D02*
X340063D01*
X326063Y165500D02*
X340063D01*
Y158500D02*
Y165500D01*
X96562Y289500D02*
Y296500D01*
Y289500D02*
X110562D01*
X96562Y296500D02*
X110562D01*
Y289500D02*
Y296500D01*
X414039Y273571D02*
Y287571D01*
Y273571D02*
X421039D01*
X414039Y287571D02*
X421039D01*
Y273571D02*
Y287571D01*
X406039Y273571D02*
Y287571D01*
Y273571D02*
X413039D01*
X406039Y287571D02*
X413039D01*
Y273571D02*
Y287571D01*
X390039Y273571D02*
Y287571D01*
Y273571D02*
X397039D01*
X390039Y287571D02*
X397039D01*
Y273571D02*
Y287571D01*
X389500Y146063D02*
Y160063D01*
Y146063D02*
X396500D01*
X389500Y160063D02*
X396500D01*
Y146063D02*
Y160063D01*
X398039Y273571D02*
Y287571D01*
Y273571D02*
X405039D01*
X398039Y287571D02*
X405039D01*
Y273571D02*
Y287571D01*
X179000Y303937D02*
Y317937D01*
Y303937D02*
X186000D01*
X179000Y317937D02*
X186000D01*
Y303937D02*
Y317937D01*
X188000Y75000D02*
Y82000D01*
Y75000D02*
X202000D01*
X188000Y82000D02*
X202000D01*
Y75000D02*
Y82000D01*
X228000Y81937D02*
Y95937D01*
Y81937D02*
X235000D01*
X228000Y95937D02*
X235000D01*
Y81937D02*
Y95937D01*
X204000Y93500D02*
Y107500D01*
Y93500D02*
X211000D01*
X204000Y107500D02*
X211000D01*
Y93500D02*
Y107500D01*
X177937Y111000D02*
Y118000D01*
Y111000D02*
X191937D01*
X177937Y118000D02*
X191937D01*
Y111000D02*
Y118000D01*
X157000Y102874D02*
Y116874D01*
Y102874D02*
X164000D01*
X157000Y116874D02*
X164000D01*
Y102874D02*
Y116874D01*
X178063Y103000D02*
Y110000D01*
Y103000D02*
X192063D01*
X178063Y110000D02*
X192063D01*
Y103000D02*
Y110000D01*
X165000Y95000D02*
Y109000D01*
Y95000D02*
X172000D01*
X165000Y109000D02*
X172000D01*
Y95000D02*
Y109000D01*
X220000Y82000D02*
Y96000D01*
Y82000D02*
X227000D01*
X220000Y96000D02*
X227000D01*
Y82000D02*
Y96000D01*
X212000Y93500D02*
Y107500D01*
Y93500D02*
X219000D01*
X212000Y107500D02*
X219000D01*
Y93500D02*
Y107500D01*
X96500Y60500D02*
Y74500D01*
Y60500D02*
X103500D01*
X96500Y74500D02*
X103500D01*
Y60500D02*
Y74500D01*
X414500Y40500D02*
Y47500D01*
Y40500D02*
X428500D01*
X414500Y47500D02*
X428500D01*
Y40500D02*
Y47500D01*
X86500Y60500D02*
Y74500D01*
Y60500D02*
X93500D01*
X86500Y74500D02*
X93500D01*
Y60500D02*
Y74500D01*
X414500Y50500D02*
Y57500D01*
Y50500D02*
X428500D01*
X414500Y57500D02*
X428500D01*
Y50500D02*
Y57500D01*
X76500Y60500D02*
Y74500D01*
Y60500D02*
X83500D01*
X76500Y74500D02*
X83500D01*
Y60500D02*
Y74500D01*
X414437Y60500D02*
Y67500D01*
Y60500D02*
X428437D01*
X414437Y67500D02*
X428437D01*
Y60500D02*
Y67500D01*
X66500Y60500D02*
Y74500D01*
Y60500D02*
X73500D01*
X66500Y74500D02*
X73500D01*
Y60500D02*
Y74500D01*
X414437Y70500D02*
Y77500D01*
Y70500D02*
X428437D01*
X414437Y77500D02*
X428437D01*
Y70500D02*
Y77500D01*
X331500Y110500D02*
Y124500D01*
Y110500D02*
X338500D01*
X331500Y124500D02*
X338500D01*
Y110500D02*
Y124500D01*
X384500Y20500D02*
Y34500D01*
Y20500D02*
X391500D01*
X384500Y34500D02*
X391500D01*
Y20500D02*
Y34500D01*
X360500Y20563D02*
Y34563D01*
Y20563D02*
X367500D01*
X360500Y34563D02*
X367500D01*
Y20563D02*
Y34563D01*
X352000Y20500D02*
Y34500D01*
Y20500D02*
X359000D01*
X352000Y34500D02*
X359000D01*
Y20500D02*
Y34500D01*
X323500Y106000D02*
Y120000D01*
Y106000D02*
X330500D01*
X323500Y120000D02*
X330500D01*
Y106000D02*
Y120000D01*
X315500Y100937D02*
Y114937D01*
Y100937D02*
X322500D01*
X315500Y114937D02*
X322500D01*
Y100937D02*
Y114937D01*
X352000Y39500D02*
Y53500D01*
Y39500D02*
X359000D01*
X352000Y53500D02*
X359000D01*
Y39500D02*
Y53500D01*
X56500Y60500D02*
Y74500D01*
Y60500D02*
X63500D01*
X56500Y74500D02*
X63500D01*
Y60500D02*
Y74500D01*
X414437Y80500D02*
Y87500D01*
Y80500D02*
X428437D01*
X414437Y87500D02*
X428437D01*
Y80500D02*
Y87500D01*
X376500Y20500D02*
Y34500D01*
Y20500D02*
X383500D01*
X376500Y34500D02*
X383500D01*
Y20500D02*
Y34500D01*
X368500Y20563D02*
Y34563D01*
Y20563D02*
X375500D01*
X368500Y34563D02*
X375500D01*
Y20563D02*
Y34563D01*
X330000Y80437D02*
Y94437D01*
Y80437D02*
X337000D01*
X330000Y94437D02*
X337000D01*
Y80437D02*
Y94437D01*
X46500Y60500D02*
Y74500D01*
Y60500D02*
X53500D01*
X46500Y74500D02*
X53500D01*
Y60500D02*
Y74500D01*
X414437Y90500D02*
Y97500D01*
Y90500D02*
X428437D01*
X414437Y97500D02*
X428437D01*
Y90500D02*
Y97500D01*
X36500Y60500D02*
Y74500D01*
Y60500D02*
X43500D01*
X36500Y74500D02*
X43500D01*
Y60500D02*
Y74500D01*
X414437Y100500D02*
Y107500D01*
Y100500D02*
X428437D01*
X414437Y107500D02*
X428437D01*
Y100500D02*
Y107500D01*
X26500Y60500D02*
Y74500D01*
Y60500D02*
X33500D01*
X26500Y74500D02*
X33500D01*
Y60500D02*
Y74500D01*
X414437Y110500D02*
Y117500D01*
Y110500D02*
X428437D01*
X414437Y117500D02*
X428437D01*
Y110500D02*
Y117500D01*
X16500Y60500D02*
Y74500D01*
Y60500D02*
X23500D01*
X16500Y74500D02*
X23500D01*
Y60500D02*
Y74500D01*
X319452Y61032D02*
Y75032D01*
Y61032D02*
X326452D01*
X319452Y75032D02*
X326452D01*
Y61032D02*
Y75032D01*
X311398Y60905D02*
Y74906D01*
Y60905D02*
X318398D01*
X311398Y74906D02*
X318398D01*
Y60905D02*
Y74906D01*
X293306Y81532D02*
Y95531D01*
Y81532D02*
X300306D01*
X293306Y95531D02*
X300306D01*
Y81532D02*
Y95531D01*
X301806Y81595D02*
Y95595D01*
Y81595D02*
X308806D01*
X301806Y95595D02*
X308806D01*
Y81595D02*
Y95595D01*
X319452Y81468D02*
Y95468D01*
Y81468D02*
X326452D01*
X319452Y95468D02*
X326452D01*
Y81468D02*
Y95468D01*
X311398Y81532D02*
Y95531D01*
Y81532D02*
X318398D01*
X311398Y95531D02*
X318398D01*
Y81532D02*
Y95531D01*
X293306Y60969D02*
Y74968D01*
Y60969D02*
X300306D01*
X293306Y74968D02*
X300306D01*
Y60969D02*
Y74968D01*
X301806Y61032D02*
Y75032D01*
Y61032D02*
X308806D01*
X301806Y75032D02*
X308806D01*
Y61032D02*
Y75032D01*
X272000Y98000D02*
Y105000D01*
Y98000D02*
X286000D01*
X272000Y105000D02*
X286000D01*
Y98000D02*
Y105000D01*
X238563Y66500D02*
Y73500D01*
Y66500D02*
X252563D01*
X238563Y73500D02*
X252563D01*
Y66500D02*
Y73500D01*
X118827Y273370D02*
X147173D01*
Y294630D01*
X118827D02*
X147173D01*
X118827Y273370D02*
Y294630D01*
X80000Y318500D02*
Y325500D01*
Y318500D02*
X94000D01*
X80000Y325500D02*
X94000D01*
Y318500D02*
Y325500D01*
X43000Y313937D02*
Y327937D01*
Y313937D02*
X50000D01*
X43000Y327937D02*
X50000D01*
Y313937D02*
Y327937D01*
X61000Y285143D02*
X70000D01*
X61000D02*
Y301143D01*
X70000D01*
Y285143D02*
Y301143D01*
X170000Y303937D02*
Y317937D01*
Y303937D02*
X177000D01*
X170000Y317937D02*
X177000D01*
Y303937D02*
Y317937D01*
X6500Y60937D02*
Y74937D01*
Y60937D02*
X13500D01*
X6500Y74937D02*
X13500D01*
Y60937D02*
Y74937D01*
X41500Y335000D02*
X57500D01*
X41500D02*
Y344000D01*
X57500D01*
Y335000D02*
Y344000D01*
X100513Y303437D02*
Y317437D01*
Y303437D02*
X107513D01*
X100513Y317437D02*
X107513D01*
Y303437D02*
Y317437D01*
X129000Y138000D02*
Y147000D01*
X113000Y138000D02*
X129000D01*
X113000D02*
Y147000D01*
X129000D01*
X243000Y245000D02*
Y254000D01*
X259000D01*
Y245000D02*
Y254000D01*
X243000Y245000D02*
X259000D01*
X117000Y201000D02*
Y210000D01*
X101000Y201000D02*
X117000D01*
X101000D02*
Y210000D01*
X117000D01*
X101000Y210500D02*
X117000D01*
X101000D02*
Y219500D01*
X117000D01*
Y210500D02*
Y219500D01*
X108500Y220500D02*
X124500D01*
X108500D02*
Y229500D01*
X124500D01*
Y220500D02*
Y229500D01*
X106000Y252500D02*
X122000D01*
X106000D02*
Y261500D01*
X122000D01*
Y252500D02*
Y261500D01*
X330000Y246500D02*
X339000D01*
X330000D02*
Y262500D01*
X339000D01*
Y246500D02*
Y262500D01*
X324500Y292500D02*
X340500D01*
X324500D02*
Y301500D01*
X340500D01*
Y292500D02*
Y301500D01*
X276500Y156500D02*
X292500D01*
X276500D02*
Y165500D01*
X292500D01*
Y156500D02*
Y165500D01*
X107000Y191500D02*
X123000D01*
X107000D02*
Y200500D01*
X123000D01*
Y191500D02*
Y200500D01*
X191000Y319000D02*
X207000D01*
X191000D02*
Y328000D01*
X207000D01*
Y319000D02*
Y328000D01*
X0Y0D02*
X475000D01*
Y362500D01*
X0Y0D02*
Y362500D01*
X475000D01*
D14*
X258500Y67500D02*
Y90500D01*
X280500Y72500D02*
Y90500D01*
X67000Y312000D02*
X74000D01*
X64000Y325000D02*
X74000D01*
X183500Y84500D02*
X196500D01*
X180000Y98500D02*
X196500D01*
X348500Y70500D02*
X378500D01*
X345500Y117500D02*
X378500D01*
X343394Y172583D02*
Y245417D01*
X392606Y172583D02*
Y251028D01*
X251598Y183409D02*
Y229669D01*
X326402Y188331D02*
Y229669D01*
D15*
X1260Y136350D02*
Y282020D01*
X9134Y138319D02*
Y280051D01*
X1260Y136350D02*
X99685D01*
X9134Y138319D02*
X24882D01*
Y280051D01*
X9134D02*
X24882D01*
X1260Y282020D02*
X99685D01*
X76063Y138319D02*
Y280051D01*
Y138319D02*
X91811D01*
X99685Y136350D02*
Y282020D01*
X91811Y138319D02*
Y280051D01*
X76063D02*
X91811D01*
X42500Y288498D02*
Y284333D01*
X43333Y283500D01*
X44999D01*
X45832Y284333D01*
Y288498D01*
X50831Y287665D02*
X49998Y288498D01*
X48331D01*
X47498Y287665D01*
Y286832D01*
X48331Y285999D01*
X49998D01*
X50831Y285166D01*
Y284333D01*
X49998Y283500D01*
X48331D01*
X47498Y284333D01*
X52497Y288498D02*
Y283500D01*
X54996D01*
X55829Y284333D01*
Y285166D01*
X54996Y285999D01*
X52497D01*
X54996D01*
X55829Y286832D01*
Y287665D01*
X54996Y288498D01*
X52497D01*
D16*
X40472Y269185D02*
X60473D01*
X40472D02*
Y281685D01*
X60473Y269185D02*
Y281685D01*
X101000Y169500D02*
Y176500D01*
X103000Y269000D02*
X110000D01*
X104500Y136500D02*
X112500D01*
X406000Y147000D02*
Y159500D01*
X399501Y146000D02*
Y148666D01*
Y147333D01*
X403500D01*
Y149999D02*
X399501D01*
Y151998D01*
X400168Y152664D01*
X401501D01*
X402167Y151998D01*
Y149999D01*
X403500Y156663D02*
Y153997D01*
X400834Y156663D01*
X400168D01*
X399501Y155997D01*
Y154664D01*
X400168Y153997D01*
X403500Y159995D02*
X399501D01*
X401501Y157996D01*
Y160662D01*
X6561Y145209D02*
X7227Y144542D01*
Y143209D01*
X6561Y142543D01*
X5894D01*
X5228Y143209D01*
Y143876D01*
Y143209D01*
X4561Y142543D01*
X3895D01*
X3228Y143209D01*
Y144542D01*
X3895Y145209D01*
X7227Y138544D02*
X6561Y139877D01*
X5228Y141210D01*
X3895D01*
X3228Y140543D01*
Y139211D01*
X3895Y138544D01*
X4561D01*
X5228Y139211D01*
Y141210D01*
X30183Y145209D02*
X30849Y144542D01*
Y143209D01*
X30183Y142543D01*
X29516D01*
X28850Y143209D01*
Y143876D01*
Y143209D01*
X28183Y142543D01*
X27517D01*
X26850Y143209D01*
Y144542D01*
X27517Y145209D01*
X30849Y138544D02*
Y141210D01*
X28850D01*
X29516Y139877D01*
Y139211D01*
X28850Y138544D01*
X27517D01*
X26850Y139211D01*
Y140543D01*
X27517Y141210D01*
X3228Y275417D02*
Y278083D01*
X5894Y275417D01*
X6561D01*
X7227Y276083D01*
Y277416D01*
X6561Y278083D01*
X21732Y287531D02*
Y283533D01*
X19733D01*
X19067Y284199D01*
Y285532D01*
X19733Y286199D01*
X21732D01*
X17734Y283533D02*
Y287531D01*
X15068D01*
X13735Y284199D02*
X13068Y283533D01*
X11735D01*
X11069Y284199D01*
Y284866D01*
X11735Y285532D01*
X12402D01*
X11735D01*
X11069Y286199D01*
Y286865D01*
X11735Y287531D01*
X13068D01*
X13735Y286865D01*
X27835Y277098D02*
Y275765D01*
Y276432D01*
X31833D01*
X31167Y277098D01*
X73490Y145209D02*
X74156Y144542D01*
Y143209D01*
X73490Y142543D01*
X72823D01*
X72157Y143209D01*
Y143876D01*
Y143209D01*
X71490Y142543D01*
X70824D01*
X70157Y143209D01*
Y144542D01*
X70824Y145209D01*
X74156Y138544D02*
X73490Y139877D01*
X72157Y141210D01*
X70824D01*
X70157Y140543D01*
Y139211D01*
X70824Y138544D01*
X71490D01*
X72157Y139211D01*
Y141210D01*
X97112Y145209D02*
X97778Y144542D01*
Y143209D01*
X97112Y142543D01*
X96445D01*
X95779Y143209D01*
Y143876D01*
Y143209D01*
X95112Y142543D01*
X94446D01*
X93779Y143209D01*
Y144542D01*
X94446Y145209D01*
X97778Y138544D02*
Y141210D01*
X95779D01*
X96445Y139877D01*
Y139211D01*
X95779Y138544D01*
X94446D01*
X93779Y139211D01*
Y140543D01*
X94446Y141210D01*
X70157Y275417D02*
Y278083D01*
X72823Y275417D01*
X73490D01*
X74156Y276083D01*
Y277416D01*
X73490Y278083D01*
X88858Y287925D02*
Y283927D01*
X86859D01*
X86193Y284593D01*
Y285926D01*
X86859Y286592D01*
X88858D01*
X84860Y283927D02*
Y287925D01*
X82194D01*
X78195D02*
X80861D01*
X78195Y285259D01*
Y284593D01*
X78861Y283927D01*
X80194D01*
X80861Y284593D01*
X93779Y277098D02*
Y275765D01*
Y276432D01*
X97778D01*
X97112Y277098D01*
X183500Y54500D02*
X184833D01*
X184167D01*
Y58499D01*
X183500Y57832D01*
X189498Y58499D02*
X188165Y57832D01*
X186832Y56499D01*
Y55166D01*
X187499Y54500D01*
X188832D01*
X189498Y55166D01*
Y55833D01*
X188832Y56499D01*
X186832D01*
X345500Y47000D02*
X346833D01*
X346166D01*
Y50999D01*
X345500Y50332D01*
X6500Y54000D02*
X7833D01*
X7166D01*
Y57999D01*
X6500Y57332D01*
X12498Y57999D02*
X11165Y57332D01*
X9832Y55999D01*
Y54666D01*
X10499Y54000D01*
X11832D01*
X12498Y54666D01*
Y55333D01*
X11832Y55999D01*
X9832D01*
X169000Y45500D02*
X170333D01*
X169667D01*
Y49499D01*
X169000Y48832D01*
X446500Y29500D02*
Y30833D01*
Y30166D01*
X442501D01*
X443168Y29500D01*
X442501Y35498D02*
X443168Y34165D01*
X444501Y32832D01*
X445834D01*
X446500Y33499D01*
Y34832D01*
X445834Y35498D01*
X445167D01*
X444501Y34832D01*
Y32832D01*
X441000Y203500D02*
Y204833D01*
Y204167D01*
X437001D01*
X437668Y203500D01*
X113000Y152499D02*
X115666D01*
X114333D01*
Y148500D01*
X116999D02*
Y152499D01*
X118998D01*
X119665Y151832D01*
Y150499D01*
X118998Y149833D01*
X116999D01*
X120997Y148500D02*
X122330D01*
X121664D01*
Y152499D01*
X120997Y151832D01*
X124330D02*
X124996Y152499D01*
X126329D01*
X126996Y151832D01*
Y149167D01*
X126329Y148500D01*
X124996D01*
X124330Y149167D01*
Y151832D01*
X244500Y259499D02*
X247166D01*
X245833D01*
Y255500D01*
X248499D02*
Y259499D01*
X250498D01*
X251165Y258832D01*
Y257499D01*
X250498Y256833D01*
X248499D01*
X252497Y255500D02*
X253830D01*
X253164D01*
Y259499D01*
X252497Y258832D01*
X255830D02*
X256496Y259499D01*
X257829D01*
X258495Y258832D01*
Y258166D01*
X257829Y257499D01*
X257163D01*
X257829D01*
X258495Y256833D01*
Y256166D01*
X257829Y255500D01*
X256496D01*
X255830Y256166D01*
X117500Y207499D02*
X120166D01*
X118833D01*
Y203500D01*
X121499D02*
Y207499D01*
X123498D01*
X124164Y206832D01*
Y205499D01*
X123498Y204833D01*
X121499D01*
X125497Y203500D02*
X126830D01*
X126164D01*
Y207499D01*
X125497Y206832D01*
X130829Y203500D02*
Y207499D01*
X128830Y205499D01*
X131495D01*
X117500Y216999D02*
X120166D01*
X118833D01*
Y213000D01*
X121499D02*
Y216999D01*
X123498D01*
X124164Y216332D01*
Y214999D01*
X123498Y214333D01*
X121499D01*
X125497Y213000D02*
X126830D01*
X126164D01*
Y216999D01*
X125497Y216332D01*
X131495Y216999D02*
X128830D01*
Y214999D01*
X130163Y215666D01*
X130829D01*
X131495Y214999D01*
Y213666D01*
X130829Y213000D01*
X129496D01*
X128830Y213666D01*
X110000Y234999D02*
X112666D01*
X111333D01*
Y231000D01*
X113999D02*
Y234999D01*
X115998D01*
X116665Y234332D01*
Y232999D01*
X115998Y232333D01*
X113999D01*
X117997Y231000D02*
X119330D01*
X118664D01*
Y234999D01*
X117997Y234332D01*
X123995Y234999D02*
X122663Y234332D01*
X121330Y232999D01*
Y231666D01*
X121996Y231000D01*
X123329D01*
X123995Y231666D01*
Y232333D01*
X123329Y232999D01*
X121330D01*
X106500Y251499D02*
X109166D01*
X107833D01*
Y247500D01*
X110499D02*
Y251499D01*
X112498D01*
X113164Y250832D01*
Y249499D01*
X112498Y248833D01*
X110499D01*
X114497Y247500D02*
X115830D01*
X115164D01*
Y251499D01*
X114497Y250832D01*
X117830Y251499D02*
X120495D01*
Y250832D01*
X117830Y248166D01*
Y247500D01*
X323501Y248000D02*
Y250666D01*
Y249333D01*
X327500D01*
Y251999D02*
X323501D01*
Y253998D01*
X324168Y254664D01*
X325501D01*
X326167Y253998D01*
Y251999D01*
X327500Y255997D02*
Y257330D01*
Y256664D01*
X323501D01*
X324168Y255997D01*
Y259330D02*
X323501Y259996D01*
Y261329D01*
X324168Y261996D01*
X324834D01*
X325501Y261329D01*
X326167Y261996D01*
X326834D01*
X327500Y261329D01*
Y259996D01*
X326834Y259330D01*
X326167D01*
X325501Y259996D01*
X324834Y259330D01*
X324168D01*
X325501Y259996D02*
Y261329D01*
X325000Y307499D02*
X327666D01*
X326333D01*
Y303500D01*
X328999D02*
Y307499D01*
X330998D01*
X331664Y306832D01*
Y305499D01*
X330998Y304833D01*
X328999D01*
X332997Y303500D02*
X334330D01*
X333664D01*
Y307499D01*
X332997Y306832D01*
X336330Y304166D02*
X336996Y303500D01*
X338329D01*
X338996Y304166D01*
Y306832D01*
X338329Y307499D01*
X336996D01*
X336330Y306832D01*
Y306166D01*
X336996Y305499D01*
X338996D01*
X276905Y171353D02*
X279571D01*
X278238D01*
Y167354D01*
X280903D02*
Y171353D01*
X282903D01*
X283569Y170687D01*
Y169354D01*
X282903Y168687D01*
X280903D01*
X287568Y167354D02*
X284902D01*
X287568Y170020D01*
Y170687D01*
X286901Y171353D01*
X285569D01*
X284902Y170687D01*
X288901D02*
X289567Y171353D01*
X290900D01*
X291567Y170687D01*
Y168021D01*
X290900Y167354D01*
X289567D01*
X288901Y168021D01*
Y170687D01*
X107500Y190499D02*
X110166D01*
X108833D01*
Y186500D01*
X111499D02*
Y190499D01*
X113498D01*
X114164Y189832D01*
Y188499D01*
X113498Y187833D01*
X111499D01*
X118163Y186500D02*
X115497D01*
X118163Y189166D01*
Y189832D01*
X117497Y190499D01*
X116164D01*
X115497Y189832D01*
X122162Y186500D02*
X119496D01*
X122162Y189166D01*
Y189832D01*
X121495Y190499D01*
X120163D01*
X119496Y189832D01*
X192000Y317999D02*
X194666D01*
X193333D01*
Y314000D01*
X195999D02*
Y317999D01*
X197998D01*
X198664Y317332D01*
Y315999D01*
X197998Y315333D01*
X195999D01*
X202663Y314000D02*
X199997D01*
X202663Y316666D01*
Y317332D01*
X201997Y317999D01*
X200664D01*
X199997Y317332D01*
X203996D02*
X204663Y317999D01*
X205995D01*
X206662Y317332D01*
Y316666D01*
X205995Y315999D01*
X205329D01*
X205995D01*
X206662Y315333D01*
Y314666D01*
X205995Y314000D01*
X204663D01*
X203996Y314666D01*
X245500Y261500D02*
Y264166D01*
X246833Y265499D01*
X248166Y264166D01*
Y261500D01*
Y263499D01*
X245500D01*
X252165Y261500D02*
X249499D01*
X252165Y264166D01*
Y264832D01*
X251498Y265499D01*
X250165D01*
X249499Y264832D01*
X253497Y262166D02*
X254164Y261500D01*
X255497D01*
X256163Y262166D01*
Y264832D01*
X255497Y265499D01*
X254164D01*
X253497Y264832D01*
Y264166D01*
X254164Y263499D01*
X256163D01*
X101001Y222999D02*
Y221666D01*
X101668Y221000D01*
X104333D01*
X105000Y221666D01*
Y222999D01*
X104333Y223666D01*
X101668D01*
X101001Y222999D01*
Y227664D02*
Y224999D01*
X105000D01*
Y227664D01*
X103001Y224999D02*
Y226332D01*
X105666Y228997D02*
Y231663D01*
X101001Y232996D02*
X105000D01*
Y234996D01*
X104333Y235662D01*
X103667D01*
X103001Y234996D01*
Y232996D01*
Y234996D01*
X102334Y235662D01*
X101668D01*
X101001Y234996D01*
Y232996D01*
Y236995D02*
X101668D01*
X103001Y238328D01*
X101668Y239661D01*
X101001D01*
X103001Y238328D02*
X105000D01*
X101001Y240994D02*
Y243659D01*
Y242326D01*
X105000D01*
X101001Y247658D02*
Y244992D01*
X105000D01*
Y247658D01*
X103001Y244992D02*
Y246325D01*
X105000Y248991D02*
Y250324D01*
Y249657D01*
X101001D01*
X101668Y248991D01*
X102001Y171499D02*
Y170167D01*
X102668Y169500D01*
X105333D01*
X106000Y170167D01*
Y171499D01*
X105333Y172166D01*
X102668D01*
X102001Y171499D01*
Y176164D02*
Y173499D01*
X106000D01*
Y176164D01*
X104001Y173499D02*
Y174832D01*
X106667Y177497D02*
Y180163D01*
X102001Y181496D02*
X106000D01*
Y183495D01*
X105333Y184162D01*
X104667D01*
X104001Y183495D01*
Y181496D01*
Y183495D01*
X103334Y184162D01*
X102668D01*
X102001Y183495D01*
Y181496D01*
Y185495D02*
X102668D01*
X104001Y186828D01*
X102668Y188161D01*
X102001D01*
X104001Y186828D02*
X106000D01*
X102001Y189494D02*
Y192159D01*
Y190826D01*
X106000D01*
X102001Y196158D02*
Y193492D01*
X106000D01*
Y196158D01*
X104001Y193492D02*
Y194825D01*
X106000Y200157D02*
Y197491D01*
X103334Y200157D01*
X102668D01*
X102001Y199490D01*
Y198157D01*
X102668Y197491D01*
X110019Y236150D02*
Y238815D01*
X111352Y240148D01*
X112685Y238815D01*
Y236150D01*
Y238149D01*
X110019D01*
X114017Y240148D02*
Y236150D01*
X116683D01*
X120682Y240148D02*
X118016D01*
Y236150D01*
X120682D01*
X118016Y238149D02*
X119349D01*
X122015Y239482D02*
X122681Y240148D01*
X124014D01*
X124681Y239482D01*
Y236816D01*
X124014Y236150D01*
X122681D01*
X122015Y236816D01*
Y239482D01*
X104999Y267499D02*
X103666D01*
X103000Y266832D01*
Y264166D01*
X103666Y263500D01*
X104999D01*
X105666Y264166D01*
Y266832D01*
X104999Y267499D01*
X109664D02*
X106999D01*
Y263500D01*
X109664D01*
X106999Y265499D02*
X108332D01*
X110997Y262834D02*
X113663D01*
X114996Y267499D02*
Y263500D01*
X116996D01*
X117662Y264166D01*
Y264833D01*
X116996Y265499D01*
X114996D01*
X116996D01*
X117662Y266166D01*
Y266832D01*
X116996Y267499D01*
X114996D01*
X118995D02*
Y266832D01*
X120328Y265499D01*
X121661Y266832D01*
Y267499D01*
X120328Y265499D02*
Y263500D01*
X122994Y267499D02*
X125659D01*
X124326D01*
Y263500D01*
X129658Y267499D02*
X126992D01*
Y263500D01*
X129658D01*
X126992Y265499D02*
X128325D01*
X130991Y266832D02*
X131657Y267499D01*
X132990D01*
X133657Y266832D01*
Y266166D01*
X132990Y265499D01*
X132324D01*
X132990D01*
X133657Y264833D01*
Y264166D01*
X132990Y263500D01*
X131657D01*
X130991Y264166D01*
X322000Y250500D02*
X319334D01*
X318001Y251833D01*
X319334Y253166D01*
X322000D01*
X320001D01*
Y250500D01*
X318668Y254499D02*
X318001Y255165D01*
Y256498D01*
X318668Y257165D01*
X319334D01*
X320001Y256498D01*
Y255832D01*
Y256498D01*
X320667Y257165D01*
X321334D01*
X322000Y256498D01*
Y255165D01*
X321334Y254499D01*
X318668Y258497D02*
X318001Y259164D01*
Y260497D01*
X318668Y261163D01*
X321334D01*
X322000Y260497D01*
Y259164D01*
X321334Y258497D01*
X318668D01*
X391000Y314999D02*
Y311000D01*
X392333Y312333D01*
X393666Y311000D01*
Y314999D01*
X394999Y311000D02*
Y314999D01*
X396998D01*
X397664Y314332D01*
Y312999D01*
X396998Y312333D01*
X394999D01*
X399664Y311000D02*
Y314999D01*
X400997D02*
Y311000D01*
X398997Y313666D02*
X400997D01*
X401663D01*
X398997Y312333D02*
X401663D01*
X328414Y313499D02*
X327081D01*
X326415Y312832D01*
Y310166D01*
X327081Y309500D01*
X328414D01*
X329080Y310166D01*
Y312832D01*
X328414Y313499D01*
X333079D02*
X330413D01*
Y309500D01*
X333079D01*
X330413Y311499D02*
X331746D01*
X335079Y309500D02*
Y313499D01*
X336411D02*
Y309500D01*
X334412Y312166D02*
X336411D01*
X337078D01*
X334412Y310833D02*
X337078D01*
X279500Y154999D02*
Y151000D01*
X280833Y152333D01*
X282166Y151000D01*
Y154999D01*
X286164D02*
X283499D01*
Y151000D01*
X286164D01*
X283499Y152999D02*
X284832D01*
X288164Y151000D02*
Y154999D01*
X289497D02*
Y151000D01*
X287497Y153666D02*
X289497D01*
X290163D01*
X287497Y152333D02*
X290163D01*
X188500Y309000D02*
Y312999D01*
X190499D01*
X191166Y312332D01*
Y310999D01*
X190499Y310333D01*
X188500D01*
X189833D02*
X191166Y309000D01*
X195165Y312999D02*
X192499D01*
Y309000D01*
X195165D01*
X192499Y310999D02*
X193832D01*
X199163Y312332D02*
X198497Y312999D01*
X197164D01*
X196497Y312332D01*
Y311666D01*
X197164Y310999D01*
X198497D01*
X199163Y310333D01*
Y309666D01*
X198497Y309000D01*
X197164D01*
X196497Y309666D01*
X203162Y312999D02*
X200496D01*
Y309000D01*
X203162D01*
X200496Y310999D02*
X201829D01*
X204495Y312999D02*
X207161D01*
X205828D01*
Y309000D01*
X208494D02*
Y311666D01*
X210493D01*
X211159Y310999D01*
Y309000D01*
X106999Y135499D02*
X105666D01*
X105000Y134832D01*
Y132167D01*
X105666Y131500D01*
X106999D01*
X107666Y132167D01*
Y134832D01*
X106999Y135499D01*
X111664D02*
X108999D01*
Y131500D01*
X111664D01*
X108999Y133499D02*
X110332D01*
X112997Y130833D02*
X115663D01*
X116996Y135499D02*
Y131500D01*
X118995D01*
X119662Y132167D01*
Y132833D01*
X118995Y133499D01*
X116996D01*
X118995D01*
X119662Y134166D01*
Y134832D01*
X118995Y135499D01*
X116996D01*
X120995D02*
Y134832D01*
X122328Y133499D01*
X123661Y134832D01*
Y135499D01*
X122328Y133499D02*
Y131500D01*
X124994Y135499D02*
X127659D01*
X126326D01*
Y131500D01*
X131658Y135499D02*
X128992D01*
Y131500D01*
X131658D01*
X128992Y133499D02*
X130325D01*
X132991Y134832D02*
X133657Y135499D01*
X134990D01*
X135657Y134832D01*
Y132167D01*
X134990Y131500D01*
X133657D01*
X132991Y132167D01*
Y134832D01*
X115000Y163000D02*
Y165666D01*
X116333Y166999D01*
X117666Y165666D01*
Y163000D01*
Y164999D01*
X115000D01*
X118999Y166999D02*
Y163000D01*
X121665D01*
X125663Y166999D02*
X122997D01*
Y163000D01*
X125663D01*
X122997Y164999D02*
X124330D01*
X126996Y166332D02*
X127663Y166999D01*
X128996D01*
X129662Y166332D01*
Y163666D01*
X128996Y163000D01*
X127663D01*
X126996Y163666D01*
Y166332D01*
X108500Y180500D02*
Y183166D01*
X109833Y184499D01*
X111166Y183166D01*
Y180500D01*
Y182499D01*
X108500D01*
X112499Y184499D02*
Y180500D01*
X115164D01*
X119163Y184499D02*
X116497D01*
Y180500D01*
X119163D01*
X116497Y182499D02*
X117830D01*
X120496Y180500D02*
X121829D01*
X121163D01*
Y184499D01*
X120496Y183832D01*
X156501Y72499D02*
Y71166D01*
X157168Y70500D01*
X159834D01*
X160500Y71166D01*
Y72499D01*
X159834Y73166D01*
X157168D01*
X156501Y72499D01*
X157168Y77165D02*
X156501Y76498D01*
Y75165D01*
X157168Y74499D01*
X157834D01*
X158501Y75165D01*
Y76498D01*
X159167Y77165D01*
X159834D01*
X160500Y76498D01*
Y75165D01*
X159834Y74499D01*
X351000Y61999D02*
X352333D01*
X351666D01*
Y58000D01*
X351000D01*
X352333D01*
X354332D02*
Y61999D01*
X356998Y58000D01*
Y61999D01*
X358331D02*
X360997D01*
X359664D01*
Y58000D01*
X407001Y148000D02*
X411000D01*
Y149999D01*
X410334Y150666D01*
X409667D01*
X409001Y149999D01*
Y148000D01*
Y149999D01*
X408334Y150666D01*
X407668D01*
X407001Y149999D01*
Y148000D01*
Y151999D02*
X411000D01*
X409001D01*
Y154665D01*
X407001D01*
X411000D01*
X407001Y158663D02*
Y155997D01*
X411000D01*
Y158663D01*
X409001Y155997D02*
Y157330D01*
X42666Y356499D02*
X40000D01*
Y354499D01*
X41333Y355166D01*
X41999D01*
X42666Y354499D01*
Y353166D01*
X41999Y352500D01*
X40666D01*
X40000Y353166D01*
X43999Y356499D02*
Y353833D01*
X45332Y352500D01*
X46665Y353833D01*
Y356499D01*
X47997Y351834D02*
X50663D01*
X51996Y356499D02*
X53329D01*
X52663D01*
Y352500D01*
X51996D01*
X53329D01*
X55328D02*
Y356499D01*
X57994Y352500D01*
Y356499D01*
X91500Y348832D02*
X92166Y349499D01*
X93499D01*
X94166Y348832D01*
Y348166D01*
X93499Y347499D01*
X92833D01*
X93499D01*
X94166Y346833D01*
Y346166D01*
X93499Y345500D01*
X92166D01*
X91500Y346166D01*
X95499Y345500D02*
Y346166D01*
X96165D01*
Y345500D01*
X95499D01*
X98831Y348832D02*
X99497Y349499D01*
X100830D01*
X101497Y348832D01*
Y348166D01*
X100830Y347499D01*
X100164D01*
X100830D01*
X101497Y346833D01*
Y346166D01*
X100830Y345500D01*
X99497D01*
X98831Y346166D01*
X102830Y349499D02*
Y346833D01*
X104163Y345500D01*
X105496Y346833D01*
Y349499D01*
X243166Y120832D02*
X242499Y121499D01*
X241166D01*
X240500Y120832D01*
Y118166D01*
X241166Y117500D01*
X242499D01*
X243166Y118166D01*
Y119499D01*
X241833D01*
X244499Y117500D02*
Y121499D01*
X247165Y117500D01*
Y121499D01*
X248497D02*
Y117500D01*
X250497D01*
X251163Y118166D01*
Y120832D01*
X250497Y121499D01*
X248497D01*
X19666Y326999D02*
X17000D01*
Y324999D01*
X18333Y325666D01*
X18999D01*
X19666Y324999D01*
Y323666D01*
X18999Y323000D01*
X17666D01*
X17000Y323666D01*
X20999Y326999D02*
Y324333D01*
X22332Y323000D01*
X23664Y324333D01*
Y326999D01*
X24668Y295166D02*
X24001Y294499D01*
Y293166D01*
X24668Y292500D01*
X27334D01*
X28000Y293166D01*
Y294499D01*
X27334Y295166D01*
X26001D01*
Y293833D01*
X28000Y296499D02*
X24001D01*
X28000Y299165D01*
X24001D01*
Y300497D02*
X28000D01*
Y302497D01*
X27334Y303163D01*
X24668D01*
X24001Y302497D01*
Y300497D01*
X446000Y195999D02*
Y192666D01*
X446666Y192000D01*
X447999D01*
X448666Y192666D01*
Y195999D01*
X449999Y192000D02*
Y194666D01*
X451332Y195999D01*
X452665Y194666D01*
Y192000D01*
Y193999D01*
X449999D01*
X453997Y192000D02*
Y195999D01*
X455997D01*
X456663Y195332D01*
Y193999D01*
X455997Y193333D01*
X453997D01*
X455330D02*
X456663Y192000D01*
X457996Y195999D02*
X460662D01*
X459329D01*
Y192000D01*
X461995Y191333D02*
X464661D01*
X465993Y192000D02*
Y195999D01*
X467993D01*
X468659Y195332D01*
Y193999D01*
X467993Y193333D01*
X465993D01*
X467326D02*
X468659Y192000D01*
X469992Y195999D02*
X472658Y192000D01*
Y195999D02*
X469992Y192000D01*
X446000Y185999D02*
Y182667D01*
X446666Y182000D01*
X447999D01*
X448666Y182667D01*
Y185999D01*
X449999Y182000D02*
Y184666D01*
X451332Y185999D01*
X452665Y184666D01*
Y182000D01*
Y183999D01*
X449999D01*
X453997Y182000D02*
Y185999D01*
X455997D01*
X456663Y185332D01*
Y183999D01*
X455997Y183333D01*
X453997D01*
X455330D02*
X456663Y182000D01*
X457996Y185999D02*
X460662D01*
X459329D01*
Y182000D01*
X461995Y181333D02*
X464661D01*
X465993Y185999D02*
X468659D01*
X467326D01*
Y182000D01*
X469992Y185999D02*
X472658Y182000D01*
Y185999D02*
X469992Y182000D01*
X448666Y165332D02*
X447999Y165999D01*
X446666D01*
X446000Y165332D01*
Y164666D01*
X446666Y163999D01*
X447999D01*
X448666Y163333D01*
Y162666D01*
X447999Y162000D01*
X446666D01*
X446000Y162666D01*
X452665Y165332D02*
X451998Y165999D01*
X450665D01*
X449999Y165332D01*
Y162666D01*
X450665Y162000D01*
X451998D01*
X452665Y162666D01*
X453997Y165999D02*
Y162000D01*
Y163333D01*
X456663Y165999D01*
X454664Y163999D01*
X456663Y162000D01*
X446000Y152000D02*
Y155999D01*
X447333Y154666D01*
X448666Y155999D01*
Y152000D01*
X449999Y155999D02*
X451332D01*
X450665D01*
Y152000D01*
X449999D01*
X451332D01*
X455997Y155332D02*
X455330Y155999D01*
X453997D01*
X453331Y155332D01*
Y154666D01*
X453997Y153999D01*
X455330D01*
X455997Y153333D01*
Y152666D01*
X455330Y152000D01*
X453997D01*
X453331Y152666D01*
X459329Y155999D02*
X457996D01*
X457330Y155332D01*
Y152666D01*
X457996Y152000D01*
X459329D01*
X459996Y152666D01*
Y155332D01*
X459329Y155999D01*
X446000Y142000D02*
Y145999D01*
X447333Y144666D01*
X448666Y145999D01*
Y142000D01*
X451998Y145999D02*
X450665D01*
X449999Y145332D01*
Y142666D01*
X450665Y142000D01*
X451998D01*
X452665Y142666D01*
Y145332D01*
X451998Y145999D01*
X456663Y145332D02*
X455997Y145999D01*
X454664D01*
X453997Y145332D01*
Y144666D01*
X454664Y143999D01*
X455997D01*
X456663Y143333D01*
Y142666D01*
X455997Y142000D01*
X454664D01*
X453997Y142666D01*
X457996Y145999D02*
X459329D01*
X458663D01*
Y142000D01*
X457996D01*
X459329D01*
X448666Y134832D02*
X447999Y135499D01*
X446666D01*
X446000Y134832D01*
Y134166D01*
X446666Y133499D01*
X447999D01*
X448666Y132833D01*
Y132167D01*
X447999Y131500D01*
X446666D01*
X446000Y132167D01*
X452665Y134832D02*
X451998Y135499D01*
X450665D01*
X449999Y134832D01*
Y132167D01*
X450665Y131500D01*
X451998D01*
X452665Y132167D01*
X453997Y135499D02*
Y131500D01*
X456663D01*
X448666Y125832D02*
X447999Y126499D01*
X446666D01*
X446000Y125832D01*
Y125166D01*
X446666Y124499D01*
X447999D01*
X448666Y123833D01*
Y123167D01*
X447999Y122500D01*
X446666D01*
X446000Y123167D01*
X449999Y126499D02*
Y122500D01*
X451998D01*
X452665Y123167D01*
Y125832D01*
X451998Y126499D01*
X449999D01*
X453997Y122500D02*
Y125166D01*
X455330Y126499D01*
X456663Y125166D01*
Y122500D01*
Y124499D01*
X453997D01*
X446000Y115999D02*
X447333D01*
X446666D01*
Y112000D01*
X446000D01*
X447333D01*
X451332Y115999D02*
X449999D01*
X449332Y115332D01*
Y112666D01*
X449999Y112000D01*
X451332D01*
X451998Y112666D01*
Y115332D01*
X451332Y115999D01*
X455997D02*
X453331D01*
Y112000D01*
X455997D01*
X453331Y113999D02*
X454664D01*
X457330Y115999D02*
X459996Y112000D01*
Y115999D02*
X457330Y112000D01*
X461328D02*
Y115999D01*
X463328D01*
X463994Y115332D01*
Y113999D01*
X463328Y113333D01*
X461328D01*
X465327Y115999D02*
X467993D01*
Y115332D01*
X465327Y112666D01*
Y112000D01*
X446000Y106499D02*
X447333D01*
X446666D01*
Y102500D01*
X446000D01*
X447333D01*
X451332Y106499D02*
X449999D01*
X449332Y105832D01*
Y103166D01*
X449999Y102500D01*
X451332D01*
X451998Y103166D01*
Y105832D01*
X451332Y106499D01*
X455997D02*
X453331D01*
Y102500D01*
X455997D01*
X453331Y104499D02*
X454664D01*
X457330Y106499D02*
X459996Y102500D01*
Y106499D02*
X457330Y102500D01*
X461328D02*
Y106499D01*
X463328D01*
X463994Y105832D01*
Y104499D01*
X463328Y103833D01*
X461328D01*
X467993Y106499D02*
X466660Y105832D01*
X465327Y104499D01*
Y103166D01*
X465993Y102500D01*
X467326D01*
X467993Y103166D01*
Y103833D01*
X467326Y104499D01*
X465327D01*
X446000Y96499D02*
X447333D01*
X446666D01*
Y92500D01*
X446000D01*
X447333D01*
X451332Y96499D02*
X449999D01*
X449332Y95832D01*
Y93166D01*
X449999Y92500D01*
X451332D01*
X451998Y93166D01*
Y95832D01*
X451332Y96499D01*
X455997D02*
X453331D01*
Y92500D01*
X455997D01*
X453331Y94499D02*
X454664D01*
X457330Y96499D02*
X459996Y92500D01*
Y96499D02*
X457330Y92500D01*
X461328D02*
Y96499D01*
X463328D01*
X463994Y95832D01*
Y94499D01*
X463328Y93833D01*
X461328D01*
X467993Y96499D02*
X465327D01*
Y94499D01*
X466660Y95166D01*
X467326D01*
X467993Y94499D01*
Y93166D01*
X467326Y92500D01*
X465993D01*
X465327Y93166D01*
X446000Y86499D02*
X447333D01*
X446666D01*
Y82500D01*
X446000D01*
X447333D01*
X451332Y86499D02*
X449999D01*
X449332Y85832D01*
Y83166D01*
X449999Y82500D01*
X451332D01*
X451998Y83166D01*
Y85832D01*
X451332Y86499D01*
X455997D02*
X453331D01*
Y82500D01*
X455997D01*
X453331Y84499D02*
X454664D01*
X457330Y86499D02*
X459996Y82500D01*
Y86499D02*
X457330Y82500D01*
X461328D02*
Y86499D01*
X463328D01*
X463994Y85832D01*
Y84499D01*
X463328Y83833D01*
X461328D01*
X467326Y82500D02*
Y86499D01*
X465327Y84499D01*
X467993D01*
X446000Y76499D02*
X447333D01*
X446666D01*
Y72500D01*
X446000D01*
X447333D01*
X451332Y76499D02*
X449999D01*
X449332Y75832D01*
Y73166D01*
X449999Y72500D01*
X451332D01*
X451998Y73166D01*
Y75832D01*
X451332Y76499D01*
X455997D02*
X453331D01*
Y72500D01*
X455997D01*
X453331Y74499D02*
X454664D01*
X457330Y76499D02*
X459996Y72500D01*
Y76499D02*
X457330Y72500D01*
X461328D02*
Y76499D01*
X463328D01*
X463994Y75832D01*
Y74499D01*
X463328Y73833D01*
X461328D01*
X465327Y75832D02*
X465993Y76499D01*
X467326D01*
X467993Y75832D01*
Y75166D01*
X467326Y74499D01*
X466660D01*
X467326D01*
X467993Y73833D01*
Y73166D01*
X467326Y72500D01*
X465993D01*
X465327Y73166D01*
X446000Y66499D02*
X447333D01*
X446666D01*
Y62500D01*
X446000D01*
X447333D01*
X451332Y66499D02*
X449999D01*
X449332Y65832D01*
Y63166D01*
X449999Y62500D01*
X451332D01*
X451998Y63166D01*
Y65832D01*
X451332Y66499D01*
X455997D02*
X453331D01*
Y62500D01*
X455997D01*
X453331Y64499D02*
X454664D01*
X457330Y66499D02*
X459996Y62500D01*
Y66499D02*
X457330Y62500D01*
X461328D02*
Y66499D01*
X463328D01*
X463994Y65832D01*
Y64499D01*
X463328Y63833D01*
X461328D01*
X467993Y62500D02*
X465327D01*
X467993Y65166D01*
Y65832D01*
X467326Y66499D01*
X465993D01*
X465327Y65832D01*
X446000Y55999D02*
X447333D01*
X446666D01*
Y52000D01*
X446000D01*
X447333D01*
X451332Y55999D02*
X449999D01*
X449332Y55332D01*
Y52666D01*
X449999Y52000D01*
X451332D01*
X451998Y52666D01*
Y55332D01*
X451332Y55999D01*
X455997D02*
X453331D01*
Y52000D01*
X455997D01*
X453331Y53999D02*
X454664D01*
X457330Y55999D02*
X459996Y52000D01*
Y55999D02*
X457330Y52000D01*
X461328D02*
Y55999D01*
X463328D01*
X463994Y55332D01*
Y53999D01*
X463328Y53333D01*
X461328D01*
X465327Y52000D02*
X466660D01*
X465993D01*
Y55999D01*
X465327Y55332D01*
X446000Y45999D02*
X447333D01*
X446666D01*
Y42000D01*
X446000D01*
X447333D01*
X451332Y45999D02*
X449999D01*
X449332Y45332D01*
Y42666D01*
X449999Y42000D01*
X451332D01*
X451998Y42666D01*
Y45332D01*
X451332Y45999D01*
X455997D02*
X453331D01*
Y42000D01*
X455997D01*
X453331Y43999D02*
X454664D01*
X457330Y45999D02*
X459996Y42000D01*
Y45999D02*
X457330Y42000D01*
X461328D02*
Y45999D01*
X463328D01*
X463994Y45332D01*
Y43999D01*
X463328Y43333D01*
X461328D01*
X465327Y45332D02*
X465993Y45999D01*
X467326D01*
X467993Y45332D01*
Y42666D01*
X467326Y42000D01*
X465993D01*
X465327Y42666D01*
Y45332D01*
X448666Y175332D02*
X447999Y175999D01*
X446666D01*
X446000Y175332D01*
Y172667D01*
X446666Y172000D01*
X447999D01*
X448666Y172667D01*
Y173999D01*
X447333D01*
X449999Y172000D02*
Y175999D01*
X452665Y172000D01*
Y175999D01*
X453997D02*
Y172000D01*
X455997D01*
X456663Y172667D01*
Y175332D01*
X455997Y175999D01*
X453997D01*
X123166Y106832D02*
X122499Y107499D01*
X121167D01*
X120500Y106832D01*
Y104166D01*
X121167Y103500D01*
X122499D01*
X123166Y104166D01*
Y105499D01*
X121833D01*
X124499Y103500D02*
Y107499D01*
X126498D01*
X127164Y106832D01*
Y105499D01*
X126498Y104833D01*
X124499D01*
X128497Y107499D02*
X129830D01*
X129164D01*
Y103500D01*
X128497D01*
X129830D01*
X133829Y107499D02*
X132496D01*
X131830Y106832D01*
Y104166D01*
X132496Y103500D01*
X133829D01*
X134495Y104166D01*
Y106832D01*
X133829Y107499D01*
X135828Y104166D02*
X136495Y103500D01*
X137828D01*
X138494Y104166D01*
Y106832D01*
X137828Y107499D01*
X136495D01*
X135828Y106832D01*
Y106166D01*
X136495Y105499D01*
X138494D01*
X90168Y27168D02*
X89501Y26501D01*
Y25168D01*
X90168Y24502D01*
X92834D01*
X93500Y25168D01*
Y26501D01*
X92834Y27168D01*
X91501D01*
Y25835D01*
X93500Y28501D02*
X89501D01*
Y30500D01*
X90168Y31166D01*
X91501D01*
X92167Y30500D01*
Y28501D01*
X89501Y32499D02*
Y33832D01*
Y33166D01*
X93500D01*
Y32499D01*
Y33832D01*
X89501Y37831D02*
Y36498D01*
X90168Y35832D01*
X92834D01*
X93500Y36498D01*
Y37831D01*
X92834Y38497D01*
X90168D01*
X89501Y37831D01*
X93500Y39830D02*
Y41163D01*
Y40497D01*
X89501D01*
X90168Y39830D01*
X79168Y25835D02*
X78501Y25168D01*
Y23835D01*
X79168Y23169D01*
X81834D01*
X82500Y23835D01*
Y25168D01*
X81834Y25835D01*
X80501D01*
Y24502D01*
X82500Y27168D02*
X78501D01*
Y29167D01*
X79168Y29833D01*
X80501D01*
X81167Y29167D01*
Y27168D01*
X78501Y31166D02*
Y32499D01*
Y31833D01*
X82500D01*
Y31166D01*
Y32499D01*
X78501Y36498D02*
Y35165D01*
X79168Y34499D01*
X81834D01*
X82500Y35165D01*
Y36498D01*
X81834Y37165D01*
X79168D01*
X78501Y36498D01*
X82500Y41163D02*
Y38497D01*
X79834Y41163D01*
X79168D01*
X78501Y40497D01*
Y39164D01*
X79168Y38497D01*
X69168Y25835D02*
X68501Y25168D01*
Y23835D01*
X69168Y23169D01*
X71834D01*
X72500Y23835D01*
Y25168D01*
X71834Y25835D01*
X70501D01*
Y24502D01*
X72500Y27168D02*
X68501D01*
Y29167D01*
X69168Y29833D01*
X70501D01*
X71167Y29167D01*
Y27168D01*
X68501Y31166D02*
Y32499D01*
Y31833D01*
X72500D01*
Y31166D01*
Y32499D01*
X68501Y36498D02*
Y35165D01*
X69168Y34499D01*
X71834D01*
X72500Y35165D01*
Y36498D01*
X71834Y37165D01*
X69168D01*
X68501Y36498D01*
X69168Y38497D02*
X68501Y39164D01*
Y40497D01*
X69168Y41163D01*
X69834D01*
X70501Y40497D01*
Y39830D01*
Y40497D01*
X71167Y41163D01*
X71834D01*
X72500Y40497D01*
Y39164D01*
X71834Y38497D01*
X59168Y25835D02*
X58501Y25168D01*
Y23835D01*
X59168Y23169D01*
X61834D01*
X62500Y23835D01*
Y25168D01*
X61834Y25835D01*
X60501D01*
Y24502D01*
X62500Y27168D02*
X58501D01*
Y29167D01*
X59168Y29833D01*
X60501D01*
X61167Y29167D01*
Y27168D01*
X58501Y31166D02*
Y32499D01*
Y31833D01*
X62500D01*
Y31166D01*
Y32499D01*
X58501Y36498D02*
Y35165D01*
X59168Y34499D01*
X61834D01*
X62500Y35165D01*
Y36498D01*
X61834Y37165D01*
X59168D01*
X58501Y36498D01*
X62500Y40497D02*
X58501D01*
X60501Y38497D01*
Y41163D01*
X49168Y25835D02*
X48501Y25168D01*
Y23835D01*
X49168Y23169D01*
X51834D01*
X52500Y23835D01*
Y25168D01*
X51834Y25835D01*
X50501D01*
Y24502D01*
X52500Y27168D02*
X48501D01*
Y29167D01*
X49168Y29833D01*
X50501D01*
X51167Y29167D01*
Y27168D01*
X48501Y31166D02*
Y32499D01*
Y31833D01*
X52500D01*
Y31166D01*
Y32499D01*
X48501Y36498D02*
Y35165D01*
X49168Y34499D01*
X51834D01*
X52500Y35165D01*
Y36498D01*
X51834Y37165D01*
X49168D01*
X48501Y36498D01*
Y41163D02*
Y38497D01*
X50501D01*
X49834Y39830D01*
Y40497D01*
X50501Y41163D01*
X51834D01*
X52500Y40497D01*
Y39164D01*
X51834Y38497D01*
X40668Y25835D02*
X40001Y25168D01*
Y23835D01*
X40668Y23169D01*
X43334D01*
X44000Y23835D01*
Y25168D01*
X43334Y25835D01*
X42001D01*
Y24502D01*
X44000Y27168D02*
X40001D01*
Y29167D01*
X40668Y29833D01*
X42001D01*
X42667Y29167D01*
Y27168D01*
X40001Y31166D02*
Y32499D01*
Y31833D01*
X44000D01*
Y31166D01*
Y32499D01*
X40001Y36498D02*
Y35165D01*
X40668Y34499D01*
X43334D01*
X44000Y35165D01*
Y36498D01*
X43334Y37165D01*
X40668D01*
X40001Y36498D01*
Y41163D02*
X40668Y39830D01*
X42001Y38497D01*
X43334D01*
X44000Y39164D01*
Y40497D01*
X43334Y41163D01*
X42667D01*
X42001Y40497D01*
Y38497D01*
X34668Y25835D02*
X34001Y25168D01*
Y23835D01*
X34668Y23169D01*
X37334D01*
X38000Y23835D01*
Y25168D01*
X37334Y25835D01*
X36001D01*
Y24502D01*
X38000Y27168D02*
X34001D01*
Y29167D01*
X34668Y29833D01*
X36001D01*
X36667Y29167D01*
Y27168D01*
X34001Y31166D02*
Y32499D01*
Y31833D01*
X38000D01*
Y31166D01*
Y32499D01*
X34001Y36498D02*
Y35165D01*
X34668Y34499D01*
X37334D01*
X38000Y35165D01*
Y36498D01*
X37334Y37165D01*
X34668D01*
X34001Y36498D01*
Y38497D02*
Y41163D01*
X34668D01*
X37334Y38497D01*
X38000D01*
X11166Y38832D02*
X10499Y39499D01*
X9166D01*
X8500Y38832D01*
Y36166D01*
X9166Y35500D01*
X10499D01*
X11166Y36166D01*
Y37499D01*
X9833D01*
X12499Y35500D02*
Y39499D01*
X14498D01*
X15165Y38832D01*
Y37499D01*
X14498Y36833D01*
X12499D01*
X16497Y39499D02*
X17830D01*
X17164D01*
Y35500D01*
X16497D01*
X17830D01*
X21829Y39499D02*
X20496D01*
X19830Y38832D01*
Y36166D01*
X20496Y35500D01*
X21829D01*
X22496Y36166D01*
Y38832D01*
X21829Y39499D01*
X23828Y38832D02*
X24495Y39499D01*
X25828D01*
X26494Y38832D01*
Y38166D01*
X25828Y37499D01*
X26494Y36833D01*
Y36166D01*
X25828Y35500D01*
X24495D01*
X23828Y36166D01*
Y36833D01*
X24495Y37499D01*
X23828Y38166D01*
Y38832D01*
X24495Y37499D02*
X25828D01*
X336668Y32992D02*
X336001Y32325D01*
Y30992D01*
X336668Y30326D01*
X339334D01*
X340000Y30992D01*
Y32325D01*
X339334Y32992D01*
X338001D01*
Y31659D01*
X340000Y34324D02*
X336001D01*
X340000Y36990D01*
X336001D01*
Y38323D02*
X340000D01*
Y40323D01*
X339334Y40989D01*
X336668D01*
X336001Y40323D01*
Y38323D01*
X326668Y32992D02*
X326001Y32325D01*
Y30992D01*
X326668Y30326D01*
X329334D01*
X330000Y30992D01*
Y32325D01*
X329334Y32992D01*
X328001D01*
Y31659D01*
X330000Y34324D02*
X326001D01*
X330000Y36990D01*
X326001D01*
Y38323D02*
X330000D01*
Y40323D01*
X329334Y40989D01*
X326668D01*
X326001Y40323D01*
Y38323D01*
X316168Y32992D02*
X315501Y32325D01*
Y30992D01*
X316168Y30326D01*
X318834D01*
X319500Y30992D01*
Y32325D01*
X318834Y32992D01*
X317501D01*
Y31659D01*
X319500Y34324D02*
X315501D01*
X319500Y36990D01*
X315501D01*
Y38323D02*
X319500D01*
Y40323D01*
X318834Y40989D01*
X316168D01*
X315501Y40323D01*
Y38323D01*
X306168Y32992D02*
X305501Y32325D01*
Y30992D01*
X306168Y30326D01*
X308834D01*
X309500Y30992D01*
Y32325D01*
X308834Y32992D01*
X307501D01*
Y31659D01*
X309500Y34324D02*
X305501D01*
X309500Y36990D01*
X305501D01*
Y38323D02*
X309500D01*
Y40323D01*
X308834Y40989D01*
X306168D01*
X305501Y40323D01*
Y38323D01*
X300000Y34324D02*
X297334D01*
X296001Y35657D01*
X297334Y36990D01*
X300000D01*
X298001D01*
Y34324D01*
X296001Y38323D02*
Y40989D01*
X296668D01*
X299334Y38323D01*
X300000D01*
X289500Y34324D02*
X286834D01*
X285501Y35657D01*
X286834Y36990D01*
X289500D01*
X287501D01*
Y34324D01*
X285501Y40989D02*
X286168Y39656D01*
X287501Y38323D01*
X288834D01*
X289500Y38990D01*
Y40323D01*
X288834Y40989D01*
X288167D01*
X287501Y40323D01*
Y38323D01*
X279000Y34324D02*
X276334D01*
X275001Y35657D01*
X276334Y36990D01*
X279000D01*
X277001D01*
Y34324D01*
X275001Y40989D02*
Y38323D01*
X277001D01*
X276334Y39656D01*
Y40323D01*
X277001Y40989D01*
X278334D01*
X279000Y40323D01*
Y38990D01*
X278334Y38323D01*
X269500Y34324D02*
X266834D01*
X265501Y35657D01*
X266834Y36990D01*
X269500D01*
X267501D01*
Y34324D01*
X269500Y40323D02*
X265501D01*
X267501Y38323D01*
Y40989D01*
X259500Y34324D02*
X256834D01*
X255501Y35657D01*
X256834Y36990D01*
X259500D01*
X257501D01*
Y34324D01*
X256168Y38323D02*
X255501Y38990D01*
Y40323D01*
X256168Y40989D01*
X256834D01*
X257501Y40323D01*
Y39656D01*
Y40323D01*
X258167Y40989D01*
X258834D01*
X259500Y40323D01*
Y38990D01*
X258834Y38323D01*
X248500Y34324D02*
X245834D01*
X244501Y35657D01*
X245834Y36990D01*
X248500D01*
X246501D01*
Y34324D01*
X248500Y40989D02*
Y38323D01*
X245834Y40989D01*
X245168D01*
X244501Y40323D01*
Y38990D01*
X245168Y38323D01*
X239000Y35657D02*
X236334D01*
X235001Y36990D01*
X236334Y38323D01*
X239000D01*
X237001D01*
Y35657D01*
X239000Y39656D02*
Y40989D01*
Y40323D01*
X235001D01*
X235668Y39656D01*
X229000Y34324D02*
X226334D01*
X225001Y35657D01*
X226334Y36990D01*
X229000D01*
X227001D01*
Y34324D01*
X225668Y38323D02*
X225001Y38990D01*
Y40323D01*
X225668Y40989D01*
X228334D01*
X229000Y40323D01*
Y38990D01*
X228334Y38323D01*
X225668D01*
X216168Y32992D02*
X215501Y32325D01*
Y30992D01*
X216168Y30326D01*
X218834D01*
X219500Y30992D01*
Y32325D01*
X218834Y32992D01*
X217501D01*
Y31659D01*
X219500Y34324D02*
X215501D01*
X219500Y36990D01*
X215501D01*
Y38323D02*
X219500D01*
Y40323D01*
X218834Y40989D01*
X216168D01*
X215501Y40323D01*
Y38323D01*
X209500Y7000D02*
X205501D01*
Y8999D01*
X206168Y9666D01*
X207501D01*
X208167Y8999D01*
Y7000D01*
Y8333D02*
X209500Y9666D01*
X205501Y13665D02*
Y10999D01*
X209500D01*
Y13665D01*
X207501Y10999D02*
Y12332D01*
X205501Y17663D02*
Y14997D01*
X207501D01*
Y16330D01*
Y14997D01*
X209500D01*
X205501Y18996D02*
Y20329D01*
Y19663D01*
X209500D01*
Y18996D01*
Y20329D01*
Y22328D02*
X205501D01*
X209500Y24994D01*
X205501D01*
X209500Y26327D02*
X206834Y28993D01*
X205501Y32325D02*
Y30992D01*
X206168Y30326D01*
X208834D01*
X209500Y30992D01*
Y32325D01*
X208834Y32992D01*
X206168D01*
X205501Y32325D01*
Y34324D02*
X208834D01*
X209500Y34991D01*
Y36324D01*
X208834Y36990D01*
X205501D01*
Y38323D02*
Y40989D01*
Y39656D01*
X209500D01*
X195668Y32992D02*
X195001Y32325D01*
Y30992D01*
X195668Y30326D01*
X198334D01*
X199000Y30992D01*
Y32325D01*
X198334Y32992D01*
X195001Y36324D02*
Y34991D01*
X195668Y34324D01*
X198334D01*
X199000Y34991D01*
Y36324D01*
X198334Y36990D01*
X195668D01*
X195001Y36324D01*
X199000Y38323D02*
X195001D01*
X196334Y39656D01*
X195001Y40989D01*
X199000D01*
X185668Y32992D02*
X185001Y32325D01*
Y30992D01*
X185668Y30326D01*
X188333D01*
X189000Y30992D01*
Y32325D01*
X188333Y32992D01*
X187001D01*
Y31659D01*
X189000Y34324D02*
X185001D01*
X189000Y36990D01*
X185001D01*
Y38323D02*
X189000D01*
Y40323D01*
X188333Y40989D01*
X185668D01*
X185001Y40323D01*
Y38323D01*
X159168Y27168D02*
X158501Y27834D01*
Y29167D01*
X159168Y29833D01*
X159834D01*
X160501Y29167D01*
Y28501D01*
Y29167D01*
X161167Y29833D01*
X161834D01*
X162500Y29167D01*
Y27834D01*
X161834Y27168D01*
X162500Y31166D02*
X161834D01*
Y31833D01*
X162500D01*
Y31166D01*
X159168Y34499D02*
X158501Y35165D01*
Y36498D01*
X159168Y37165D01*
X159834D01*
X160501Y36498D01*
Y35832D01*
Y36498D01*
X161167Y37165D01*
X161834D01*
X162500Y36498D01*
Y35165D01*
X161834Y34499D01*
X158501Y38497D02*
X161167D01*
X162500Y39830D01*
X161167Y41163D01*
X158501D01*
X149168Y27168D02*
X148501Y27834D01*
Y29167D01*
X149168Y29833D01*
X149834D01*
X150501Y29167D01*
Y28501D01*
Y29167D01*
X151167Y29833D01*
X151833D01*
X152500Y29167D01*
Y27834D01*
X151833Y27168D01*
X152500Y31166D02*
X151833D01*
Y31833D01*
X152500D01*
Y31166D01*
X149168Y34499D02*
X148501Y35165D01*
Y36498D01*
X149168Y37165D01*
X149834D01*
X150501Y36498D01*
Y35832D01*
Y36498D01*
X151167Y37165D01*
X151833D01*
X152500Y36498D01*
Y35165D01*
X151833Y34499D01*
X148501Y38497D02*
X151167D01*
X152500Y39830D01*
X151167Y41163D01*
X148501D01*
X138668Y33166D02*
X138001Y32499D01*
Y31166D01*
X138668Y30500D01*
X141333D01*
X142000Y31166D01*
Y32499D01*
X141333Y33166D01*
X140001D01*
Y31833D01*
X142000Y34499D02*
X138001D01*
X142000Y37165D01*
X138001D01*
Y38497D02*
X142000D01*
Y40497D01*
X141333Y41163D01*
X138668D01*
X138001Y40497D01*
Y38497D01*
X128668Y33166D02*
X128001Y32499D01*
Y31166D01*
X128668Y30500D01*
X131333D01*
X132000Y31166D01*
Y32499D01*
X131333Y33166D01*
X130001D01*
Y31833D01*
X132000Y34499D02*
X128001D01*
X132000Y37165D01*
X128001D01*
Y38497D02*
X132000D01*
Y40497D01*
X131333Y41163D01*
X128668D01*
X128001Y40497D01*
Y38497D01*
X118668Y33166D02*
X118001Y32499D01*
Y31166D01*
X118668Y30500D01*
X121334D01*
X122000Y31166D01*
Y32499D01*
X121334Y33166D01*
X120001D01*
Y31833D01*
X122000Y34499D02*
X118001D01*
X122000Y37165D01*
X118001D01*
Y38497D02*
X122000D01*
Y40497D01*
X121334Y41163D01*
X118668D01*
X118001Y40497D01*
Y38497D01*
X108168Y33166D02*
X107501Y32499D01*
Y31166D01*
X108168Y30500D01*
X110834D01*
X111500Y31166D01*
Y32499D01*
X110834Y33166D01*
X109501D01*
Y31833D01*
X111500Y34499D02*
X107501D01*
X111500Y37165D01*
X107501D01*
Y38497D02*
X111500D01*
Y40497D01*
X110834Y41163D01*
X108168D01*
X107501Y40497D01*
Y38497D01*
X3168Y26666D02*
X2501Y25999D01*
Y24667D01*
X3168Y24000D01*
X5834D01*
X6500Y24667D01*
Y25999D01*
X5834Y26666D01*
X4501D01*
Y25333D01*
X6500Y27999D02*
X2501D01*
Y29998D01*
X3168Y30665D01*
X4501D01*
X5167Y29998D01*
Y27999D01*
X2501Y31997D02*
Y33330D01*
Y32664D01*
X6500D01*
Y31997D01*
Y33330D01*
X2501Y37329D02*
Y35996D01*
X3168Y35330D01*
X5834D01*
X6500Y35996D01*
Y37329D01*
X5834Y37995D01*
X3168D01*
X2501Y37329D01*
X5834Y39328D02*
X6500Y39995D01*
Y41328D01*
X5834Y41994D01*
X3168D01*
X2501Y41328D01*
Y39995D01*
X3168Y39328D01*
X3834D01*
X4501Y39995D01*
Y41994D01*
X98668Y25835D02*
X98001Y25168D01*
Y23835D01*
X98668Y23169D01*
X101334D01*
X102000Y23835D01*
Y25168D01*
X101334Y25835D01*
X100001D01*
Y24502D01*
X102000Y27168D02*
X98001D01*
Y29167D01*
X98668Y29833D01*
X100001D01*
X100667Y29167D01*
Y27168D01*
X98001Y31166D02*
Y32499D01*
Y31833D01*
X102000D01*
Y31166D01*
Y32499D01*
X98001Y36498D02*
Y35165D01*
X98668Y34499D01*
X101334D01*
X102000Y35165D01*
Y36498D01*
X101334Y37165D01*
X98668D01*
X98001Y36498D01*
X98668Y38497D02*
X98001Y39164D01*
Y40497D01*
X98668Y41163D01*
X101334D01*
X102000Y40497D01*
Y39164D01*
X101334Y38497D01*
X98668D01*
X149000Y280000D02*
Y283999D01*
X150333Y282666D01*
X151666Y283999D01*
Y280000D01*
X155665Y283332D02*
X154998Y283999D01*
X153665D01*
X152999Y283332D01*
Y280666D01*
X153665Y280000D01*
X154998D01*
X155665Y280666D01*
X156997Y283999D02*
Y280666D01*
X157664Y280000D01*
X158997D01*
X159663Y280666D01*
Y283999D01*
X164995Y280000D02*
Y283999D01*
X166994D01*
X167661Y283332D01*
Y281999D01*
X166994Y281333D01*
X164995D01*
X166328D02*
X167661Y280000D01*
X171659Y283999D02*
X168994D01*
Y280000D01*
X171659D01*
X168994Y281999D02*
X170326D01*
X175658Y283332D02*
X174992Y283999D01*
X173659D01*
X172992Y283332D01*
Y282666D01*
X173659Y281999D01*
X174992D01*
X175658Y281333D01*
Y280666D01*
X174992Y280000D01*
X173659D01*
X172992Y280666D01*
X179657Y283999D02*
X176991D01*
Y280000D01*
X179657D01*
X176991Y281999D02*
X178324D01*
X180990Y283999D02*
X183656D01*
X182323D01*
Y280000D01*
X132666Y332499D02*
X130000D01*
Y330499D01*
X131333D01*
X130000D01*
Y328500D01*
X133999D02*
Y332499D01*
X135998D01*
X136664Y331832D01*
Y330499D01*
X135998Y329833D01*
X133999D01*
X140663Y331832D02*
X139997Y332499D01*
X138664D01*
X137997Y331832D01*
Y329166D01*
X138664Y328500D01*
X139997D01*
X140663Y329166D01*
Y330499D01*
X139330D01*
X141996Y328500D02*
Y331166D01*
X143329Y332499D01*
X144662Y331166D01*
Y328500D01*
Y330499D01*
X141996D01*
X149994Y328500D02*
Y332499D01*
X151993D01*
X152659Y331832D01*
Y330499D01*
X151993Y329833D01*
X149994D01*
X151326D02*
X152659Y328500D01*
X156658Y332499D02*
X153992D01*
Y328500D01*
X156658D01*
X153992Y330499D02*
X155325D01*
X160657Y331832D02*
X159990Y332499D01*
X158657D01*
X157991Y331832D01*
Y331166D01*
X158657Y330499D01*
X159990D01*
X160657Y329833D01*
Y329166D01*
X159990Y328500D01*
X158657D01*
X157991Y329166D01*
X164655Y332499D02*
X161990D01*
Y328500D01*
X164655D01*
X161990Y330499D02*
X163323D01*
X165988Y332499D02*
X168654D01*
X167321D01*
Y328500D01*
D17*
X127166Y112332D02*
X126499Y112999D01*
X125166D01*
X124500Y112332D01*
Y111666D01*
X125166Y110999D01*
X126499D01*
X127166Y110333D01*
Y109667D01*
X126499Y109000D01*
X125166D01*
X124500Y109667D01*
X128499Y112999D02*
Y109000D01*
X129832Y110333D01*
X131165Y109000D01*
Y112999D01*
X132497Y112332D02*
X133164Y112999D01*
X134497D01*
X135163Y112332D01*
Y111666D01*
X134497Y110999D01*
X133830D01*
X134497D01*
X135163Y110333D01*
Y109667D01*
X134497Y109000D01*
X133164D01*
X132497Y109667D01*
X260000Y64999D02*
Y61666D01*
X260666Y61000D01*
X261999D01*
X262666Y61666D01*
Y64999D01*
X263999Y64332D02*
X264665Y64999D01*
X265998D01*
X266665Y64332D01*
Y63666D01*
X265998Y62999D01*
X266665Y62333D01*
Y61666D01*
X265998Y61000D01*
X264665D01*
X263999Y61666D01*
Y62333D01*
X264665Y62999D01*
X263999Y63666D01*
Y64332D01*
X264665Y62999D02*
X265998D01*
X61800Y333299D02*
Y329966D01*
X62466Y329300D01*
X63799D01*
X64466Y329966D01*
Y333299D01*
X65799Y329966D02*
X66465Y329300D01*
X67798D01*
X68464Y329966D01*
Y332632D01*
X67798Y333299D01*
X66465D01*
X65799Y332632D01*
Y331966D01*
X66465Y331299D01*
X68464D01*
X179000Y83499D02*
Y80166D01*
X179666Y79500D01*
X180999D01*
X181666Y80166D01*
Y83499D01*
X185664D02*
X184332Y82832D01*
X182999Y81499D01*
Y80166D01*
X183665Y79500D01*
X184998D01*
X185664Y80166D01*
Y80833D01*
X184998Y81499D01*
X182999D01*
X210696Y267803D02*
Y264471D01*
X211362Y263804D01*
X212695D01*
X213361Y264471D01*
Y267803D01*
X216694Y263804D02*
Y267803D01*
X214694Y265804D01*
X217360D01*
X347500Y123999D02*
Y120667D01*
X348166Y120000D01*
X349499D01*
X350166Y120667D01*
Y123999D01*
X351499D02*
X354165D01*
Y123332D01*
X351499Y120667D01*
Y120000D01*
X93500Y134499D02*
Y131167D01*
X94166Y130500D01*
X95499D01*
X96166Y131167D01*
Y134499D01*
X97499Y130500D02*
X98832D01*
X98165D01*
Y134499D01*
X97499Y133832D01*
X112000Y315499D02*
Y311500D01*
X113999D01*
X114666Y312166D01*
Y314832D01*
X113999Y315499D01*
X112000D01*
X115999Y311500D02*
X117332D01*
X116665D01*
Y315499D01*
X115999Y314832D01*
X119331D02*
X119997Y315499D01*
X121330D01*
X121997Y314832D01*
Y314166D01*
X121330Y313499D01*
X121997Y312833D01*
Y312166D01*
X121330Y311500D01*
X119997D01*
X119331Y312166D01*
Y312833D01*
X119997Y313499D01*
X119331Y314166D01*
Y314832D01*
X119997Y313499D02*
X121330D01*
X395001Y239000D02*
X398334D01*
X399000Y239666D01*
Y240999D01*
X398334Y241666D01*
X395001D01*
Y245665D02*
Y242999D01*
X397001D01*
X396334Y244332D01*
Y244998D01*
X397001Y245665D01*
X398334D01*
X399000Y244998D01*
Y243665D01*
X398334Y242999D01*
X246001Y222000D02*
X249334D01*
X250000Y222666D01*
Y223999D01*
X249334Y224666D01*
X246001D01*
X246668Y225999D02*
X246001Y226665D01*
Y227998D01*
X246668Y228664D01*
X247334D01*
X248001Y227998D01*
Y227332D01*
Y227998D01*
X248667Y228664D01*
X249334D01*
X250000Y227998D01*
Y226665D01*
X249334Y225999D01*
X204000Y68000D02*
Y71999D01*
X205999D01*
X206666Y71332D01*
Y69999D01*
X205999Y69333D01*
X204000D01*
X205333D02*
X206666Y68000D01*
X209998D02*
Y71999D01*
X207999Y69999D01*
X210665D01*
X211997Y68000D02*
X213330D01*
X212664D01*
Y71999D01*
X211997Y71332D01*
X322666Y58999D02*
X321333D01*
X321999D01*
Y55666D01*
X321333Y55000D01*
X320666D01*
X320000Y55666D01*
X323999Y58332D02*
X324665Y58999D01*
X325998D01*
X326664Y58332D01*
Y57666D01*
X325998Y56999D01*
X325332D01*
X325998D01*
X326664Y56333D01*
Y55666D01*
X325998Y55000D01*
X324665D01*
X323999Y55666D01*
X373166Y152332D02*
X372499Y152999D01*
X371166D01*
X370500Y152332D01*
Y149667D01*
X371166Y149000D01*
X372499D01*
X373166Y149667D01*
X377165Y152999D02*
X374499D01*
Y150999D01*
X375832Y151666D01*
X376498D01*
X377165Y150999D01*
Y149667D01*
X376498Y149000D01*
X375165D01*
X374499Y149667D01*
X148500Y248500D02*
Y252499D01*
X150499D01*
X151166Y251832D01*
Y250499D01*
X150499Y249833D01*
X148500D01*
X149833D02*
X151166Y248500D01*
X155165D02*
X152499D01*
X155165Y251166D01*
Y251832D01*
X154498Y252499D01*
X153165D01*
X152499Y251832D01*
X158497Y248500D02*
Y252499D01*
X156497Y250499D01*
X159163D01*
X146666Y338832D02*
X145999Y339499D01*
X144667D01*
X144000Y338832D01*
Y338166D01*
X144667Y337499D01*
X145999D01*
X146666Y336833D01*
Y336166D01*
X145999Y335500D01*
X144667D01*
X144000Y336166D01*
X147999Y339499D02*
Y335500D01*
X149332Y336833D01*
X150664Y335500D01*
Y339499D01*
X151997Y335500D02*
X153330D01*
X152664D01*
Y339499D01*
X151997Y338832D01*
X15000Y310999D02*
X17666D01*
X16333D01*
Y307000D01*
X18999D02*
Y310999D01*
X20998D01*
X21665Y310332D01*
Y308999D01*
X20998Y308333D01*
X18999D01*
X25663Y310999D02*
X22997D01*
Y308999D01*
X24330Y309666D01*
X24997D01*
X25663Y308999D01*
Y307666D01*
X24997Y307000D01*
X23664D01*
X22997Y307666D01*
X369500Y308499D02*
X372166D01*
X370833D01*
Y304500D01*
X373499D02*
Y308499D01*
X375498D01*
X376165Y307832D01*
Y306499D01*
X375498Y305833D01*
X373499D01*
X380163Y308499D02*
X378830Y307832D01*
X377497Y306499D01*
Y305166D01*
X378164Y304500D01*
X379497D01*
X380163Y305166D01*
Y305833D01*
X379497Y306499D01*
X377497D01*
X391000Y308999D02*
X393666D01*
X392333D01*
Y305000D01*
X394999D02*
Y308999D01*
X396998D01*
X397664Y308332D01*
Y306999D01*
X396998Y306333D01*
X394999D01*
X398997Y308332D02*
X399664Y308999D01*
X400997D01*
X401663Y308332D01*
Y307666D01*
X400997Y306999D01*
X401663Y306333D01*
Y305666D01*
X400997Y305000D01*
X399664D01*
X398997Y305666D01*
Y306333D01*
X399664Y306999D01*
X398997Y307666D01*
Y308332D01*
X399664Y306999D02*
X400997D01*
X162001Y68000D02*
Y70666D01*
Y69333D01*
X166000D01*
Y71999D02*
X162001D01*
Y73998D01*
X162668Y74664D01*
X164001D01*
X164667Y73998D01*
Y71999D01*
X165333Y75997D02*
X166000Y76664D01*
Y77997D01*
X165333Y78663D01*
X162668D01*
X162001Y77997D01*
Y76664D01*
X162668Y75997D01*
X163334D01*
X164001Y76664D01*
Y78663D01*
X349500Y66999D02*
X352166D01*
X350833D01*
Y63000D01*
X353499D02*
Y66999D01*
X355498D01*
X356165Y66332D01*
Y64999D01*
X355498Y64333D01*
X353499D01*
X360163Y63000D02*
X357497D01*
X360163Y65666D01*
Y66332D01*
X359497Y66999D01*
X358164D01*
X357497Y66332D01*
X361496Y63000D02*
X362829D01*
X362163D01*
Y66999D01*
X361496Y66332D01*
X212500Y157999D02*
Y154666D01*
X213166Y154000D01*
X214499D01*
X215166Y154666D01*
Y157999D01*
X219164Y154000D02*
X216499D01*
X219164Y156666D01*
Y157332D01*
X218498Y157999D01*
X217165D01*
X216499Y157332D01*
X242166Y211832D02*
X241499Y212499D01*
X240166D01*
X239500Y211832D01*
Y209166D01*
X240166Y208500D01*
X241499D01*
X242166Y209166D01*
X243499Y208500D02*
X244832D01*
X244165D01*
Y212499D01*
X243499Y211832D01*
X285166Y256832D02*
X284499Y257499D01*
X283166D01*
X282500Y256832D01*
Y254166D01*
X283166Y253500D01*
X284499D01*
X285166Y254166D01*
X289164Y253500D02*
X286499D01*
X289164Y256166D01*
Y256832D01*
X288498Y257499D01*
X287165D01*
X286499Y256832D01*
X53168Y308166D02*
X52501Y307499D01*
Y306166D01*
X53168Y305500D01*
X55834D01*
X56500Y306166D01*
Y307499D01*
X55834Y308166D01*
X53168Y309499D02*
X52501Y310165D01*
Y311498D01*
X53168Y312164D01*
X53834D01*
X54501Y311498D01*
Y310832D01*
Y311498D01*
X55167Y312164D01*
X55834D01*
X56500Y311498D01*
Y310165D01*
X55834Y309499D01*
X82668Y309666D02*
X82001Y308999D01*
Y307666D01*
X82668Y307000D01*
X85334D01*
X86000Y307666D01*
Y308999D01*
X85334Y309666D01*
X86000Y312998D02*
X82001D01*
X84001Y310999D01*
Y313665D01*
X243668Y237666D02*
X243001Y236999D01*
Y235666D01*
X243668Y235000D01*
X246334D01*
X247000Y235666D01*
Y236999D01*
X246334Y237666D01*
X243001Y241665D02*
X243668Y240332D01*
X245001Y238999D01*
X246334D01*
X247000Y239665D01*
Y240998D01*
X246334Y241665D01*
X245667D01*
X245001Y240998D01*
Y238999D01*
X199166Y120832D02*
X198499Y121499D01*
X197167D01*
X196500Y120832D01*
Y118166D01*
X197167Y117500D01*
X198499D01*
X199166Y118166D01*
X200499Y121499D02*
X203165D01*
Y120832D01*
X200499Y118166D01*
Y117500D01*
X392166Y130832D02*
X391499Y131499D01*
X390166D01*
X389500Y130832D01*
Y128166D01*
X390166Y127500D01*
X391499D01*
X392166Y128166D01*
X393499Y130832D02*
X394165Y131499D01*
X395498D01*
X396164Y130832D01*
Y130166D01*
X395498Y129499D01*
X396164Y128833D01*
Y128166D01*
X395498Y127500D01*
X394165D01*
X393499Y128166D01*
Y128833D01*
X394165Y129499D01*
X393499Y130166D01*
Y130832D01*
X394165Y129499D02*
X395498D01*
X145666Y67832D02*
X144999Y68499D01*
X143667D01*
X143000Y67832D01*
Y65166D01*
X143667Y64500D01*
X144999D01*
X145666Y65166D01*
X146999D02*
X147665Y64500D01*
X148998D01*
X149664Y65166D01*
Y67832D01*
X148998Y68499D01*
X147665D01*
X146999Y67832D01*
Y67166D01*
X147665Y66499D01*
X149664D01*
X98001Y99000D02*
X102000D01*
Y100999D01*
X101334Y101666D01*
X98668D01*
X98001Y100999D01*
Y99000D01*
X102000Y102999D02*
Y104332D01*
Y103665D01*
X98001D01*
X98668Y102999D01*
X387500Y46099D02*
Y42100D01*
X389499D01*
X390166Y42766D01*
Y45432D01*
X389499Y46099D01*
X387500D01*
X394164Y42100D02*
X391499D01*
X394164Y44766D01*
Y45432D01*
X393498Y46099D01*
X392165D01*
X391499Y45432D01*
X88001Y98500D02*
X92000D01*
Y100499D01*
X91334Y101166D01*
X88668D01*
X88001Y100499D01*
Y98500D01*
X88668Y102499D02*
X88001Y103165D01*
Y104498D01*
X88668Y105165D01*
X89334D01*
X90001Y104498D01*
Y103832D01*
Y104498D01*
X90667Y105165D01*
X91334D01*
X92000Y104498D01*
Y103165D01*
X91334Y102499D01*
X387500Y56099D02*
Y52100D01*
X389499D01*
X390166Y52766D01*
Y55432D01*
X389499Y56099D01*
X387500D01*
X393498Y52100D02*
Y56099D01*
X391499Y54099D01*
X394164D01*
X78001Y98500D02*
X82000D01*
Y100499D01*
X81334Y101166D01*
X78668D01*
X78001Y100499D01*
Y98500D01*
Y105165D02*
Y102499D01*
X80001D01*
X79334Y103832D01*
Y104498D01*
X80001Y105165D01*
X81334D01*
X82000Y104498D01*
Y103165D01*
X81334Y102499D01*
X387500Y66099D02*
Y62100D01*
X389499D01*
X390166Y62766D01*
Y65432D01*
X389499Y66099D01*
X387500D01*
X394164D02*
X392832Y65432D01*
X391499Y64099D01*
Y62766D01*
X392165Y62100D01*
X393498D01*
X394164Y62766D01*
Y63433D01*
X393498Y64099D01*
X391499D01*
X68501Y98500D02*
X72500D01*
Y100499D01*
X71834Y101166D01*
X69168D01*
X68501Y100499D01*
Y98500D01*
Y102499D02*
Y105165D01*
X69168D01*
X71834Y102499D01*
X72500D01*
X387500Y76099D02*
Y72100D01*
X389499D01*
X390166Y72766D01*
Y75432D01*
X389499Y76099D01*
X387500D01*
X391499Y75432D02*
X392165Y76099D01*
X393498D01*
X394164Y75432D01*
Y74766D01*
X393498Y74099D01*
X394164Y73433D01*
Y72766D01*
X393498Y72100D01*
X392165D01*
X391499Y72766D01*
Y73433D01*
X392165Y74099D01*
X391499Y74766D01*
Y75432D01*
X392165Y74099D02*
X393498D01*
X58001Y98500D02*
X62000D01*
Y100499D01*
X61334Y101166D01*
X58668D01*
X58001Y100499D01*
Y98500D01*
X61334Y102499D02*
X62000Y103165D01*
Y104498D01*
X61334Y105165D01*
X58668D01*
X58001Y104498D01*
Y103165D01*
X58668Y102499D01*
X59334D01*
X60001Y103165D01*
Y105165D01*
X387500Y86099D02*
Y82100D01*
X389499D01*
X390166Y82766D01*
Y85432D01*
X389499Y86099D01*
X387500D01*
X391499Y82100D02*
X392832D01*
X392165D01*
Y86099D01*
X391499Y85432D01*
X394831D02*
X395497Y86099D01*
X396830D01*
X397497Y85432D01*
Y82766D01*
X396830Y82100D01*
X395497D01*
X394831Y82766D01*
Y85432D01*
X47531Y98633D02*
X51529D01*
Y100633D01*
X50863Y101299D01*
X48197D01*
X47531Y100633D01*
Y98633D01*
X51529Y102632D02*
Y103965D01*
Y103299D01*
X47531D01*
X48197Y102632D01*
X51529Y105965D02*
Y107297D01*
Y106631D01*
X47531D01*
X48197Y105965D01*
X387600Y96099D02*
Y92100D01*
X389599D01*
X390266Y92766D01*
Y95432D01*
X389599Y96099D01*
X387600D01*
X391599Y92100D02*
X392932D01*
X392265D01*
Y96099D01*
X391599Y95432D01*
X397597Y92100D02*
X394931D01*
X397597Y94766D01*
Y95432D01*
X396930Y96099D01*
X395597D01*
X394931Y95432D01*
X38001Y98500D02*
X42000D01*
Y100499D01*
X41334Y101166D01*
X38668D01*
X38001Y100499D01*
Y98500D01*
X42000Y102499D02*
Y103832D01*
Y103165D01*
X38001D01*
X38668Y102499D01*
Y105831D02*
X38001Y106497D01*
Y107830D01*
X38668Y108497D01*
X39334D01*
X40001Y107830D01*
Y107164D01*
Y107830D01*
X40667Y108497D01*
X41334D01*
X42000Y107830D01*
Y106497D01*
X41334Y105831D01*
X387600Y106099D02*
Y102100D01*
X389599D01*
X390266Y102767D01*
Y105432D01*
X389599Y106099D01*
X387600D01*
X391599Y102100D02*
X392932D01*
X392265D01*
Y106099D01*
X391599Y105432D01*
X396930Y102100D02*
Y106099D01*
X394931Y104099D01*
X397597D01*
X27501Y98420D02*
X31500D01*
Y100419D01*
X30834Y101086D01*
X28168D01*
X27501Y100419D01*
Y98420D01*
X31500Y102419D02*
Y103752D01*
Y103085D01*
X27501D01*
X28168Y102419D01*
X27501Y108417D02*
Y105751D01*
X29501D01*
X28834Y107084D01*
Y107750D01*
X29501Y108417D01*
X30834D01*
X31500Y107750D01*
Y106417D01*
X30834Y105751D01*
X401000Y122999D02*
Y119000D01*
X402999D01*
X403666Y119667D01*
Y122332D01*
X402999Y122999D01*
X401000D01*
X404999Y119000D02*
X406332D01*
X405665D01*
Y122999D01*
X404999Y122332D01*
X410997Y122999D02*
X409664Y122332D01*
X408331Y120999D01*
Y119667D01*
X408997Y119000D01*
X410330D01*
X410997Y119667D01*
Y120333D01*
X410330Y120999D01*
X408331D01*
X18001Y98000D02*
X22000D01*
Y99999D01*
X21334Y100666D01*
X18668D01*
X18001Y99999D01*
Y98000D01*
X22000Y101999D02*
Y103332D01*
Y102665D01*
X18001D01*
X18668Y101999D01*
X18001Y105331D02*
Y107997D01*
X18668D01*
X21334Y105331D01*
X22000D01*
X252666Y100832D02*
X251999Y101499D01*
X250666D01*
X250000Y100832D01*
Y98166D01*
X250666Y97500D01*
X251999D01*
X252666Y98166D01*
X253999Y97500D02*
X255332D01*
X254665D01*
Y101499D01*
X253999Y100832D01*
X257331D02*
X257997Y101499D01*
X259330D01*
X259997Y100832D01*
Y98166D01*
X259330Y97500D01*
X257997D01*
X257331Y98166D01*
Y100832D01*
X242668Y99666D02*
X242001Y98999D01*
Y97666D01*
X242668Y97000D01*
X245334D01*
X246000Y97666D01*
Y98999D01*
X245334Y99666D01*
X246000Y100999D02*
Y102332D01*
Y101665D01*
X242001D01*
X242668Y100999D01*
X246000Y104331D02*
Y105664D01*
Y104997D01*
X242001D01*
X242668Y104331D01*
X160166Y58499D02*
X158833D01*
X159499D01*
Y55166D01*
X158833Y54500D01*
X158167D01*
X157500Y55166D01*
X161499Y54500D02*
X162832D01*
X162165D01*
Y58499D01*
X161499Y57832D01*
X428001Y193166D02*
Y191833D01*
Y192499D01*
X431334D01*
X432000Y191833D01*
Y191166D01*
X431334Y190500D01*
X432000Y197164D02*
Y194499D01*
X429334Y197164D01*
X428668D01*
X428001Y196498D01*
Y195165D01*
X428668Y194499D01*
X149237Y146700D02*
Y150699D01*
X151236D01*
X151903Y150032D01*
Y148699D01*
X151236Y148033D01*
X149237D01*
X150570D02*
X151903Y146700D01*
X153236Y150032D02*
X153902Y150699D01*
X155235D01*
X155902Y150032D01*
Y149366D01*
X155235Y148699D01*
X154569D01*
X155235D01*
X155902Y148033D01*
Y147366D01*
X155235Y146700D01*
X153902D01*
X153236Y147366D01*
X268333Y259004D02*
X272331D01*
Y257005D01*
X271665Y256338D01*
X270332D01*
X269665Y257005D01*
Y259004D01*
Y257671D02*
X268333Y256338D01*
Y253006D02*
X272331D01*
X270332Y255005D01*
Y252339D01*
X260500Y311000D02*
Y314999D01*
X262499D01*
X263166Y314332D01*
Y312999D01*
X262499Y312333D01*
X260500D01*
X261833D02*
X263166Y311000D01*
X267164Y314999D02*
X264499D01*
Y312999D01*
X265832Y313666D01*
X266498D01*
X267164Y312999D01*
Y311666D01*
X266498Y311000D01*
X265165D01*
X264499Y311666D01*
X281500Y303500D02*
Y307499D01*
X283499D01*
X284166Y306832D01*
Y305499D01*
X283499Y304833D01*
X281500D01*
X282833D02*
X284166Y303500D01*
X288164Y307499D02*
X286832Y306832D01*
X285499Y305499D01*
Y304166D01*
X286165Y303500D01*
X287498D01*
X288164Y304166D01*
Y304833D01*
X287498Y305499D01*
X285499D01*
X298500Y164000D02*
X294501D01*
Y165999D01*
X295168Y166666D01*
X296501D01*
X297167Y165999D01*
Y164000D01*
Y165333D02*
X298500Y166666D01*
X294501Y167999D02*
Y170665D01*
X295168D01*
X297834Y167999D01*
X298500D01*
X256000Y168000D02*
Y171999D01*
X257999D01*
X258666Y171332D01*
Y169999D01*
X257999Y169333D01*
X256000D01*
X257333D02*
X258666Y168000D01*
X259999Y171332D02*
X260665Y171999D01*
X261998D01*
X262665Y171332D01*
Y170666D01*
X261998Y169999D01*
X262665Y169333D01*
Y168667D01*
X261998Y168000D01*
X260665D01*
X259999Y168667D01*
Y169333D01*
X260665Y169999D01*
X259999Y170666D01*
Y171332D01*
X260665Y169999D02*
X261998D01*
X149200Y155200D02*
Y159199D01*
X151199D01*
X151866Y158532D01*
Y157199D01*
X151199Y156533D01*
X149200D01*
X150533D02*
X151866Y155200D01*
X153199Y155867D02*
X153865Y155200D01*
X155198D01*
X155865Y155867D01*
Y158532D01*
X155198Y159199D01*
X153865D01*
X153199Y158532D01*
Y157866D01*
X153865Y157199D01*
X155865D01*
X149373Y203650D02*
Y207649D01*
X151373D01*
X152039Y206982D01*
Y205649D01*
X151373Y204983D01*
X149373D01*
X150706D02*
X152039Y203650D01*
X153372D02*
X154705D01*
X154038D01*
Y207649D01*
X153372Y206982D01*
X156704D02*
X157371Y207649D01*
X158704D01*
X159370Y206982D01*
Y204316D01*
X158704Y203650D01*
X157371D01*
X156704Y204316D01*
Y206982D01*
X149373Y195150D02*
Y199149D01*
X151373D01*
X152039Y198482D01*
Y197149D01*
X151373Y196483D01*
X149373D01*
X150706D02*
X152039Y195150D01*
X153372D02*
X154705D01*
X154038D01*
Y199149D01*
X153372Y198482D01*
X156704D02*
X157371Y199149D01*
X158704D01*
X159370Y198482D01*
Y197816D01*
X158704Y197149D01*
X158037D01*
X158704D01*
X159370Y196483D01*
Y195817D01*
X158704Y195150D01*
X157371D01*
X156704Y195817D01*
X149373Y212150D02*
Y216149D01*
X151373D01*
X152039Y215482D01*
Y214149D01*
X151373Y213483D01*
X149373D01*
X150706D02*
X152039Y212150D01*
X153372D02*
X154705D01*
X154038D01*
Y216149D01*
X153372Y215482D01*
X159370Y216149D02*
X158037Y215482D01*
X156704Y214149D01*
Y212816D01*
X157371Y212150D01*
X158704D01*
X159370Y212816D01*
Y213483D01*
X158704Y214149D01*
X156704D01*
X149360Y220600D02*
Y224599D01*
X151360D01*
X152026Y223932D01*
Y222599D01*
X151360Y221933D01*
X149360D01*
X150693D02*
X152026Y220600D01*
X153359D02*
X154692D01*
X154025D01*
Y224599D01*
X153359Y223932D01*
X156691Y224599D02*
X159357D01*
Y223932D01*
X156691Y221266D01*
Y220600D01*
X148000Y257500D02*
Y261499D01*
X149999D01*
X150666Y260832D01*
Y259499D01*
X149999Y258833D01*
X148000D01*
X149333D02*
X150666Y257500D01*
X151999D02*
X153332D01*
X152665D01*
Y261499D01*
X151999Y260832D01*
X155331D02*
X155997Y261499D01*
X157330D01*
X157997Y260832D01*
Y260166D01*
X157330Y259499D01*
X157997Y258833D01*
Y258166D01*
X157330Y257500D01*
X155997D01*
X155331Y258166D01*
Y258833D01*
X155997Y259499D01*
X155331Y260166D01*
Y260832D01*
X155997Y259499D02*
X157330D01*
X387000Y135500D02*
X383001D01*
Y137499D01*
X383668Y138166D01*
X385001D01*
X385667Y137499D01*
Y135500D01*
Y136833D02*
X387000Y138166D01*
Y142165D02*
Y139499D01*
X384334Y142165D01*
X383668D01*
X383001Y141498D01*
Y140165D01*
X383668Y139499D01*
X387000Y143497D02*
Y144830D01*
Y144164D01*
X383001D01*
X383668Y143497D01*
X40000Y329500D02*
X36001D01*
Y331499D01*
X36668Y332166D01*
X38001D01*
X38667Y331499D01*
Y329500D01*
Y330833D02*
X40000Y332166D01*
Y336164D02*
Y333499D01*
X37334Y336164D01*
X36668D01*
X36001Y335498D01*
Y334165D01*
X36668Y333499D01*
X40000Y340163D02*
Y337497D01*
X37334Y340163D01*
X36668D01*
X36001Y339497D01*
Y338164D01*
X36668Y337497D01*
X327000Y180000D02*
Y183999D01*
X328999D01*
X329666Y183332D01*
Y181999D01*
X328999Y181333D01*
X327000D01*
X328333D02*
X329666Y180000D01*
X333664D02*
X330999D01*
X333664Y182666D01*
Y183332D01*
X332998Y183999D01*
X331665D01*
X330999Y183332D01*
X334997D02*
X335664Y183999D01*
X336997D01*
X337663Y183332D01*
Y182666D01*
X336997Y181999D01*
X336330D01*
X336997D01*
X337663Y181333D01*
Y180666D01*
X336997Y180000D01*
X335664D01*
X334997Y180666D01*
X328000Y166500D02*
Y170499D01*
X329999D01*
X330666Y169832D01*
Y168499D01*
X329999Y167833D01*
X328000D01*
X329333D02*
X330666Y166500D01*
X334665D02*
X331999D01*
X334665Y169166D01*
Y169832D01*
X333998Y170499D01*
X332665D01*
X331999Y169832D01*
X338663Y170499D02*
X335997D01*
Y168499D01*
X337330Y169166D01*
X337997D01*
X338663Y168499D01*
Y167166D01*
X337997Y166500D01*
X336664D01*
X335997Y167166D01*
X98500Y297500D02*
Y301499D01*
X100499D01*
X101166Y300832D01*
Y299499D01*
X100499Y298833D01*
X98500D01*
X99833D02*
X101166Y297500D01*
X105165D02*
X102499D01*
X105165Y300166D01*
Y300832D01*
X104498Y301499D01*
X103165D01*
X102499Y300832D01*
X106497Y301499D02*
X109163D01*
Y300832D01*
X106497Y298166D01*
Y297500D01*
X419500Y261500D02*
X415501D01*
Y263499D01*
X416168Y264166D01*
X417501D01*
X418167Y263499D01*
Y261500D01*
Y262833D02*
X419500Y264166D01*
Y268164D02*
Y265499D01*
X416834Y268164D01*
X416168D01*
X415501Y267498D01*
Y266165D01*
X416168Y265499D01*
Y269497D02*
X415501Y270164D01*
Y271497D01*
X416168Y272163D01*
X416834D01*
X417501Y271497D01*
X418167Y272163D01*
X418834D01*
X419500Y271497D01*
Y270164D01*
X418834Y269497D01*
X418167D01*
X417501Y270164D01*
X416834Y269497D01*
X416168D01*
X417501Y270164D02*
Y271497D01*
X411500Y261500D02*
X407501D01*
Y263499D01*
X408168Y264166D01*
X409501D01*
X410167Y263499D01*
Y261500D01*
Y262833D02*
X411500Y264166D01*
Y268164D02*
Y265499D01*
X408834Y268164D01*
X408168D01*
X407501Y267498D01*
Y266165D01*
X408168Y265499D01*
X410834Y269497D02*
X411500Y270164D01*
Y271497D01*
X410834Y272163D01*
X408168D01*
X407501Y271497D01*
Y270164D01*
X408168Y269497D01*
X408834D01*
X409501Y270164D01*
Y272163D01*
X395500Y261500D02*
X391501D01*
Y263499D01*
X392168Y264166D01*
X393501D01*
X394167Y263499D01*
Y261500D01*
Y262833D02*
X395500Y264166D01*
X392168Y265499D02*
X391501Y266165D01*
Y267498D01*
X392168Y268164D01*
X392834D01*
X393501Y267498D01*
Y266832D01*
Y267498D01*
X394167Y268164D01*
X394834D01*
X395500Y267498D01*
Y266165D01*
X394834Y265499D01*
X392168Y269497D02*
X391501Y270164D01*
Y271497D01*
X392168Y272163D01*
X394834D01*
X395500Y271497D01*
Y270164D01*
X394834Y269497D01*
X392168D01*
X395500Y135500D02*
X391501D01*
Y137499D01*
X392168Y138166D01*
X393501D01*
X394167Y137499D01*
Y135500D01*
Y136833D02*
X395500Y138166D01*
X392168Y139499D02*
X391501Y140165D01*
Y141498D01*
X392168Y142165D01*
X392834D01*
X393501Y141498D01*
Y140832D01*
Y141498D01*
X394167Y142165D01*
X394834D01*
X395500Y141498D01*
Y140165D01*
X394834Y139499D01*
X395500Y143497D02*
Y144830D01*
Y144164D01*
X391501D01*
X392168Y143497D01*
X403500Y261500D02*
X399501D01*
Y263499D01*
X400168Y264166D01*
X401501D01*
X402167Y263499D01*
Y261500D01*
Y262833D02*
X403500Y264166D01*
X400168Y265499D02*
X399501Y266165D01*
Y267498D01*
X400168Y268164D01*
X400834D01*
X401501Y267498D01*
Y266832D01*
Y267498D01*
X402167Y268164D01*
X402834D01*
X403500Y267498D01*
Y266165D01*
X402834Y265499D01*
X403500Y272163D02*
Y269497D01*
X400834Y272163D01*
X400168D01*
X399501Y271497D01*
Y270164D01*
X400168Y269497D01*
X185000Y320000D02*
X181001D01*
Y321999D01*
X181668Y322666D01*
X183001D01*
X183667Y321999D01*
Y320000D01*
Y321333D02*
X185000Y322666D01*
X181668Y323999D02*
X181001Y324665D01*
Y325998D01*
X181668Y326664D01*
X182334D01*
X183001Y325998D01*
Y325332D01*
Y325998D01*
X183667Y326664D01*
X184334D01*
X185000Y325998D01*
Y324665D01*
X184334Y323999D01*
X181668Y327997D02*
X181001Y328664D01*
Y329997D01*
X181668Y330663D01*
X182334D01*
X183001Y329997D01*
Y329330D01*
Y329997D01*
X183667Y330663D01*
X184334D01*
X185000Y329997D01*
Y328664D01*
X184334Y327997D01*
X203500Y76500D02*
Y80499D01*
X205499D01*
X206166Y79832D01*
Y78499D01*
X205499Y77833D01*
X203500D01*
X204833D02*
X206166Y76500D01*
X207499Y79832D02*
X208165Y80499D01*
X209498D01*
X210164Y79832D01*
Y79166D01*
X209498Y78499D01*
X208832D01*
X209498D01*
X210164Y77833D01*
Y77166D01*
X209498Y76500D01*
X208165D01*
X207499Y77166D01*
X213497Y76500D02*
Y80499D01*
X211497Y78499D01*
X214163D01*
X234000Y97500D02*
X230001D01*
Y99499D01*
X230668Y100166D01*
X232001D01*
X232667Y99499D01*
Y97500D01*
Y98833D02*
X234000Y100166D01*
X230668Y101499D02*
X230001Y102165D01*
Y103498D01*
X230668Y104165D01*
X231334D01*
X232001Y103498D01*
Y102832D01*
Y103498D01*
X232667Y104165D01*
X233334D01*
X234000Y103498D01*
Y102165D01*
X233334Y101499D01*
X230001Y108163D02*
Y105497D01*
X232001D01*
X231334Y106830D01*
Y107497D01*
X232001Y108163D01*
X233334D01*
X234000Y107497D01*
Y106164D01*
X233334Y105497D01*
X209500Y109000D02*
X205501D01*
Y110999D01*
X206168Y111666D01*
X207501D01*
X208167Y110999D01*
Y109000D01*
Y110333D02*
X209500Y111666D01*
X206168Y112999D02*
X205501Y113665D01*
Y114998D01*
X206168Y115665D01*
X206834D01*
X207501Y114998D01*
Y114332D01*
Y114998D01*
X208167Y115665D01*
X208834D01*
X209500Y114998D01*
Y113665D01*
X208834Y112999D01*
X205501Y119663D02*
X206168Y118330D01*
X207501Y116997D01*
X208834D01*
X209500Y117664D01*
Y118997D01*
X208834Y119663D01*
X208167D01*
X207501Y118997D01*
Y116997D01*
X180500Y119500D02*
Y123499D01*
X182499D01*
X183166Y122832D01*
Y121499D01*
X182499Y120833D01*
X180500D01*
X181833D02*
X183166Y119500D01*
X184499Y122832D02*
X185165Y123499D01*
X186498D01*
X187164Y122832D01*
Y122166D01*
X186498Y121499D01*
X185832D01*
X186498D01*
X187164Y120833D01*
Y120167D01*
X186498Y119500D01*
X185165D01*
X184499Y120167D01*
X188497Y123499D02*
X191163D01*
Y122832D01*
X188497Y120167D01*
Y119500D01*
X155500Y104500D02*
X151501D01*
Y106499D01*
X152168Y107166D01*
X153501D01*
X154167Y106499D01*
Y104500D01*
Y105833D02*
X155500Y107166D01*
X152168Y108499D02*
X151501Y109165D01*
Y110498D01*
X152168Y111164D01*
X152834D01*
X153501Y110498D01*
Y109832D01*
Y110498D01*
X154167Y111164D01*
X154833D01*
X155500Y110498D01*
Y109165D01*
X154833Y108499D01*
X152168Y112497D02*
X151501Y113164D01*
Y114497D01*
X152168Y115163D01*
X152834D01*
X153501Y114497D01*
X154167Y115163D01*
X154833D01*
X155500Y114497D01*
Y113164D01*
X154833Y112497D01*
X154167D01*
X153501Y113164D01*
X152834Y112497D01*
X152168D01*
X153501Y113164D02*
Y114497D01*
X177000Y100000D02*
X173001D01*
Y101999D01*
X173668Y102666D01*
X175001D01*
X175667Y101999D01*
Y100000D01*
Y101333D02*
X177000Y102666D01*
X173668Y103999D02*
X173001Y104665D01*
Y105998D01*
X173668Y106665D01*
X174334D01*
X175001Y105998D01*
Y105332D01*
Y105998D01*
X175667Y106665D01*
X176333D01*
X177000Y105998D01*
Y104665D01*
X176333Y103999D01*
Y107997D02*
X177000Y108664D01*
Y109997D01*
X176333Y110663D01*
X173668D01*
X173001Y109997D01*
Y108664D01*
X173668Y107997D01*
X174334D01*
X175001Y108664D01*
Y110663D01*
X170500Y111000D02*
X166501D01*
Y112999D01*
X167168Y113666D01*
X168501D01*
X169167Y112999D01*
Y111000D01*
Y112333D02*
X170500Y113666D01*
Y116998D02*
X166501D01*
X168501Y114999D01*
Y117665D01*
X167168Y118997D02*
X166501Y119664D01*
Y120997D01*
X167168Y121663D01*
X169834D01*
X170500Y120997D01*
Y119664D01*
X169834Y118997D01*
X167168D01*
X225500Y97000D02*
X221501D01*
Y98999D01*
X222168Y99666D01*
X223501D01*
X224167Y98999D01*
Y97000D01*
Y98333D02*
X225500Y99666D01*
Y102998D02*
X221501D01*
X223501Y100999D01*
Y103665D01*
X225500Y107663D02*
Y104997D01*
X222834Y107663D01*
X222168D01*
X221501Y106997D01*
Y105664D01*
X222168Y104997D01*
X218000Y109000D02*
X214001D01*
Y110999D01*
X214668Y111666D01*
X216001D01*
X216667Y110999D01*
Y109000D01*
Y110333D02*
X218000Y111666D01*
Y114998D02*
X214001D01*
X216001Y112999D01*
Y115665D01*
X214668Y116997D02*
X214001Y117664D01*
Y118997D01*
X214668Y119663D01*
X215334D01*
X216001Y118997D01*
Y118330D01*
Y118997D01*
X216667Y119663D01*
X217334D01*
X218000Y118997D01*
Y117664D01*
X217334Y116997D01*
X108500Y62000D02*
X104501D01*
Y63999D01*
X105168Y64666D01*
X106501D01*
X107167Y63999D01*
Y62000D01*
Y63333D02*
X108500Y64666D01*
Y67998D02*
X104501D01*
X106501Y65999D01*
Y68664D01*
X108500Y71997D02*
X104501D01*
X106501Y69997D01*
Y72663D01*
X416500Y34500D02*
Y38499D01*
X418499D01*
X419166Y37832D01*
Y36499D01*
X418499Y35833D01*
X416500D01*
X417833D02*
X419166Y34500D01*
X422498D02*
Y38499D01*
X420499Y36499D01*
X423165D01*
X427163Y38499D02*
X424497D01*
Y36499D01*
X425830Y37166D01*
X426497D01*
X427163Y36499D01*
Y35166D01*
X426497Y34500D01*
X425164D01*
X424497Y35166D01*
X84500Y55000D02*
Y58999D01*
X86499D01*
X87166Y58332D01*
Y56999D01*
X86499Y56333D01*
X84500D01*
X85833D02*
X87166Y55000D01*
X90498D02*
Y58999D01*
X88499Y56999D01*
X91164D01*
X95163Y58999D02*
X93830Y58332D01*
X92497Y56999D01*
Y55666D01*
X93164Y55000D01*
X94497D01*
X95163Y55666D01*
Y56333D01*
X94497Y56999D01*
X92497D01*
X433500Y44500D02*
X429501D01*
Y46499D01*
X430168Y47166D01*
X431501D01*
X432167Y46499D01*
Y44500D01*
Y45833D02*
X433500Y47166D01*
Y50498D02*
X429501D01*
X431501Y48499D01*
Y51165D01*
X429501Y52497D02*
Y55163D01*
X430168D01*
X432834Y52497D01*
X433500D01*
X74500Y76000D02*
Y79999D01*
X76499D01*
X77166Y79332D01*
Y77999D01*
X76499Y77333D01*
X74500D01*
X75833D02*
X77166Y76000D01*
X80498D02*
Y79999D01*
X78499Y77999D01*
X81164D01*
X82497Y79332D02*
X83164Y79999D01*
X84497D01*
X85163Y79332D01*
Y78666D01*
X84497Y77999D01*
X85163Y77333D01*
Y76666D01*
X84497Y76000D01*
X83164D01*
X82497Y76666D01*
Y77333D01*
X83164Y77999D01*
X82497Y78666D01*
Y79332D01*
X83164Y77999D02*
X84497D01*
X433500Y57000D02*
X429501D01*
Y58999D01*
X430168Y59666D01*
X431501D01*
X432167Y58999D01*
Y57000D01*
Y58333D02*
X433500Y59666D01*
Y62998D02*
X429501D01*
X431501Y60999D01*
Y63665D01*
X432834Y64997D02*
X433500Y65664D01*
Y66997D01*
X432834Y67663D01*
X430168D01*
X429501Y66997D01*
Y65664D01*
X430168Y64997D01*
X430834D01*
X431501Y65664D01*
Y67663D01*
X65000Y55000D02*
Y58999D01*
X66999D01*
X67666Y58332D01*
Y56999D01*
X66999Y56333D01*
X65000D01*
X66333D02*
X67666Y55000D01*
X71665Y58999D02*
X68999D01*
Y56999D01*
X70332Y57666D01*
X70998D01*
X71665Y56999D01*
Y55666D01*
X70998Y55000D01*
X69665D01*
X68999Y55666D01*
X72997Y58332D02*
X73664Y58999D01*
X74997D01*
X75663Y58332D01*
Y55666D01*
X74997Y55000D01*
X73664D01*
X72997Y55666D01*
Y58332D01*
X433500Y69500D02*
X429501D01*
Y71499D01*
X430168Y72166D01*
X431501D01*
X432167Y71499D01*
Y69500D01*
Y70833D02*
X433500Y72166D01*
X429501Y76165D02*
Y73499D01*
X431501D01*
X430834Y74832D01*
Y75498D01*
X431501Y76165D01*
X432834D01*
X433500Y75498D01*
Y74165D01*
X432834Y73499D01*
X433500Y77497D02*
Y78830D01*
Y78164D01*
X429501D01*
X430168Y77497D01*
X337000Y126000D02*
X333001D01*
Y127999D01*
X333668Y128666D01*
X335001D01*
X335667Y127999D01*
Y126000D01*
Y127333D02*
X337000Y128666D01*
X333001Y132665D02*
Y129999D01*
X335001D01*
X334334Y131332D01*
Y131998D01*
X335001Y132665D01*
X336334D01*
X337000Y131998D01*
Y130665D01*
X336334Y129999D01*
X337000Y136663D02*
Y133997D01*
X334334Y136663D01*
X333668D01*
X333001Y135997D01*
Y134664D01*
X333668Y133997D01*
X390000Y8000D02*
X386001D01*
Y9999D01*
X386668Y10666D01*
X388001D01*
X388667Y9999D01*
Y8000D01*
Y9333D02*
X390000Y10666D01*
X386001Y14664D02*
Y11999D01*
X388001D01*
X387334Y13332D01*
Y13998D01*
X388001Y14664D01*
X389334D01*
X390000Y13998D01*
Y12665D01*
X389334Y11999D01*
X386668Y15997D02*
X386001Y16664D01*
Y17997D01*
X386668Y18663D01*
X387334D01*
X388001Y17997D01*
Y17330D01*
Y17997D01*
X388667Y18663D01*
X389334D01*
X390000Y17997D01*
Y16664D01*
X389334Y15997D01*
X366000Y8000D02*
X362001D01*
Y9999D01*
X362668Y10666D01*
X364001D01*
X364667Y9999D01*
Y8000D01*
Y9333D02*
X366000Y10666D01*
X362001Y14664D02*
Y11999D01*
X364001D01*
X363334Y13332D01*
Y13998D01*
X364001Y14664D01*
X365334D01*
X366000Y13998D01*
Y12665D01*
X365334Y11999D01*
X366000Y17997D02*
X362001D01*
X364001Y15997D01*
Y18663D01*
X357500Y8000D02*
X353501D01*
Y9999D01*
X354168Y10666D01*
X355501D01*
X356167Y9999D01*
Y8000D01*
Y9333D02*
X357500Y10666D01*
X353501Y14664D02*
Y11999D01*
X355501D01*
X354834Y13332D01*
Y13998D01*
X355501Y14664D01*
X356834D01*
X357500Y13998D01*
Y12665D01*
X356834Y11999D01*
X353501Y18663D02*
Y15997D01*
X355501D01*
X354834Y17330D01*
Y17997D01*
X355501Y18663D01*
X356834D01*
X357500Y17997D01*
Y16664D01*
X356834Y15997D01*
X329000Y122000D02*
X325001D01*
Y123999D01*
X325668Y124666D01*
X327001D01*
X327667Y123999D01*
Y122000D01*
Y123333D02*
X329000Y124666D01*
X325001Y128665D02*
Y125999D01*
X327001D01*
X326334Y127332D01*
Y127998D01*
X327001Y128665D01*
X328334D01*
X329000Y127998D01*
Y126665D01*
X328334Y125999D01*
X325001Y132663D02*
X325668Y131330D01*
X327001Y129997D01*
X328334D01*
X329000Y130664D01*
Y131997D01*
X328334Y132663D01*
X327667D01*
X327001Y131997D01*
Y129997D01*
X321000Y117500D02*
X317001D01*
Y119499D01*
X317668Y120166D01*
X319001D01*
X319667Y119499D01*
Y117500D01*
Y118833D02*
X321000Y120166D01*
X317001Y124164D02*
Y121499D01*
X319001D01*
X318334Y122832D01*
Y123498D01*
X319001Y124164D01*
X320334D01*
X321000Y123498D01*
Y122165D01*
X320334Y121499D01*
X317001Y125497D02*
Y128163D01*
X317668D01*
X320334Y125497D01*
X321000D01*
X364500Y40500D02*
X360501D01*
Y42499D01*
X361168Y43166D01*
X362501D01*
X363167Y42499D01*
Y40500D01*
Y41833D02*
X364500Y43166D01*
X360501Y47164D02*
Y44499D01*
X362501D01*
X361834Y45832D01*
Y46498D01*
X362501Y47164D01*
X363834D01*
X364500Y46498D01*
Y45165D01*
X363834Y44499D01*
X361168Y48497D02*
X360501Y49164D01*
Y50497D01*
X361168Y51163D01*
X361834D01*
X362501Y50497D01*
X363167Y51163D01*
X363834D01*
X364500Y50497D01*
Y49164D01*
X363834Y48497D01*
X363167D01*
X362501Y49164D01*
X361834Y48497D01*
X361168D01*
X362501Y49164D02*
Y50497D01*
X54500Y76000D02*
Y79999D01*
X56499D01*
X57166Y79332D01*
Y77999D01*
X56499Y77333D01*
X54500D01*
X55833D02*
X57166Y76000D01*
X61164Y79999D02*
X58499D01*
Y77999D01*
X59832Y78666D01*
X60498D01*
X61164Y77999D01*
Y76666D01*
X60498Y76000D01*
X59165D01*
X58499Y76666D01*
X62497D02*
X63164Y76000D01*
X64497D01*
X65163Y76666D01*
Y79332D01*
X64497Y79999D01*
X63164D01*
X62497Y79332D01*
Y78666D01*
X63164Y77999D01*
X65163D01*
X433500Y80000D02*
X429501D01*
Y81999D01*
X430168Y82666D01*
X431501D01*
X432167Y81999D01*
Y80000D01*
Y81333D02*
X433500Y82666D01*
X429501Y86664D02*
X430168Y85332D01*
X431501Y83999D01*
X432834D01*
X433500Y84665D01*
Y85998D01*
X432834Y86664D01*
X432167D01*
X431501Y85998D01*
Y83999D01*
X430168Y87997D02*
X429501Y88664D01*
Y89997D01*
X430168Y90663D01*
X432834D01*
X433500Y89997D01*
Y88664D01*
X432834Y87997D01*
X430168D01*
X381500Y8000D02*
X377501D01*
Y9999D01*
X378168Y10666D01*
X379501D01*
X380167Y9999D01*
Y8000D01*
Y9333D02*
X381500Y10666D01*
X377501Y14664D02*
X378168Y13332D01*
X379501Y11999D01*
X380834D01*
X381500Y12665D01*
Y13998D01*
X380834Y14664D01*
X380167D01*
X379501Y13998D01*
Y11999D01*
X381500Y15997D02*
Y17330D01*
Y16664D01*
X377501D01*
X378168Y15997D01*
X374000Y8000D02*
X370001D01*
Y9999D01*
X370668Y10666D01*
X372001D01*
X372667Y9999D01*
Y8000D01*
Y9333D02*
X374000Y10666D01*
X370001Y14664D02*
X370668Y13332D01*
X372001Y11999D01*
X373334D01*
X374000Y12665D01*
Y13998D01*
X373334Y14664D01*
X372667D01*
X372001Y13998D01*
Y11999D01*
X374000Y18663D02*
Y15997D01*
X371334Y18663D01*
X370668D01*
X370001Y17997D01*
Y16664D01*
X370668Y15997D01*
X337000Y96000D02*
X333001D01*
Y97999D01*
X333668Y98666D01*
X335001D01*
X335667Y97999D01*
Y96000D01*
Y97333D02*
X337000Y98666D01*
X333001Y102664D02*
X333668Y101332D01*
X335001Y99999D01*
X336334D01*
X337000Y100665D01*
Y101998D01*
X336334Y102664D01*
X335667D01*
X335001Y101998D01*
Y99999D01*
X333668Y103997D02*
X333001Y104664D01*
Y105997D01*
X333668Y106663D01*
X334334D01*
X335001Y105997D01*
Y105330D01*
Y105997D01*
X335667Y106663D01*
X336334D01*
X337000Y105997D01*
Y104664D01*
X336334Y103997D01*
X45500Y55000D02*
Y58999D01*
X47499D01*
X48166Y58332D01*
Y56999D01*
X47499Y56333D01*
X45500D01*
X46833D02*
X48166Y55000D01*
X52165Y58999D02*
X50832Y58332D01*
X49499Y56999D01*
Y55666D01*
X50165Y55000D01*
X51498D01*
X52165Y55666D01*
Y56333D01*
X51498Y56999D01*
X49499D01*
X55497Y55000D02*
Y58999D01*
X53497Y56999D01*
X56163D01*
X433500Y92500D02*
X429501D01*
Y94499D01*
X430168Y95166D01*
X431501D01*
X432167Y94499D01*
Y92500D01*
Y93833D02*
X433500Y95166D01*
X429501Y99164D02*
X430168Y97832D01*
X431501Y96499D01*
X432834D01*
X433500Y97165D01*
Y98498D01*
X432834Y99164D01*
X432167D01*
X431501Y98498D01*
Y96499D01*
X429501Y103163D02*
Y100497D01*
X431501D01*
X430834Y101830D01*
Y102497D01*
X431501Y103163D01*
X432834D01*
X433500Y102497D01*
Y101164D01*
X432834Y100497D01*
X34500Y76000D02*
Y79999D01*
X36499D01*
X37166Y79332D01*
Y77999D01*
X36499Y77333D01*
X34500D01*
X35833D02*
X37166Y76000D01*
X41164Y79999D02*
X39832Y79332D01*
X38499Y77999D01*
Y76666D01*
X39165Y76000D01*
X40498D01*
X41164Y76666D01*
Y77333D01*
X40498Y77999D01*
X38499D01*
X45163Y79999D02*
X43830Y79332D01*
X42497Y77999D01*
Y76666D01*
X43164Y76000D01*
X44497D01*
X45163Y76666D01*
Y77333D01*
X44497Y77999D01*
X42497D01*
X433500Y105500D02*
X429501D01*
Y107499D01*
X430168Y108166D01*
X431501D01*
X432167Y107499D01*
Y105500D01*
Y106833D02*
X433500Y108166D01*
X429501Y112164D02*
X430168Y110832D01*
X431501Y109499D01*
X432834D01*
X433500Y110165D01*
Y111498D01*
X432834Y112164D01*
X432167D01*
X431501Y111498D01*
Y109499D01*
X429501Y113497D02*
Y116163D01*
X430168D01*
X432834Y113497D01*
X433500D01*
X25000Y55000D02*
Y58999D01*
X26999D01*
X27666Y58332D01*
Y56999D01*
X26999Y56333D01*
X25000D01*
X26333D02*
X27666Y55000D01*
X31664Y58999D02*
X30332Y58332D01*
X28999Y56999D01*
Y55666D01*
X29665Y55000D01*
X30998D01*
X31664Y55666D01*
Y56333D01*
X30998Y56999D01*
X28999D01*
X32997Y58332D02*
X33664Y58999D01*
X34997D01*
X35663Y58332D01*
Y57666D01*
X34997Y56999D01*
X35663Y56333D01*
Y55666D01*
X34997Y55000D01*
X33664D01*
X32997Y55666D01*
Y56333D01*
X33664Y56999D01*
X32997Y57666D01*
Y58332D01*
X33664Y56999D02*
X34997D01*
X416000Y119000D02*
Y122999D01*
X417999D01*
X418666Y122332D01*
Y120999D01*
X417999Y120333D01*
X416000D01*
X417333D02*
X418666Y119000D01*
X422664Y122999D02*
X421332Y122332D01*
X419999Y120999D01*
Y119667D01*
X420665Y119000D01*
X421998D01*
X422664Y119667D01*
Y120333D01*
X421998Y120999D01*
X419999D01*
X423997Y119667D02*
X424664Y119000D01*
X425997D01*
X426663Y119667D01*
Y122332D01*
X425997Y122999D01*
X424664D01*
X423997Y122332D01*
Y121666D01*
X424664Y120999D01*
X426663D01*
X15000Y76000D02*
Y79999D01*
X16999D01*
X17666Y79332D01*
Y77999D01*
X16999Y77333D01*
X15000D01*
X16333D02*
X17666Y76000D01*
X18999Y79999D02*
X21665D01*
Y79332D01*
X18999Y76666D01*
Y76000D01*
X22997Y79332D02*
X23664Y79999D01*
X24997D01*
X25663Y79332D01*
Y76666D01*
X24997Y76000D01*
X23664D01*
X22997Y76666D01*
Y79332D01*
X331500Y68000D02*
X327501D01*
Y69999D01*
X328168Y70666D01*
X329501D01*
X330167Y69999D01*
Y68000D01*
Y69333D02*
X331500Y70666D01*
X327501Y71999D02*
Y74664D01*
X328168D01*
X330834Y71999D01*
X331500D01*
Y78663D02*
Y75997D01*
X328834Y78663D01*
X328168D01*
X327501Y77997D01*
Y76664D01*
X328168Y75997D01*
X311500Y76500D02*
Y80499D01*
X313499D01*
X314166Y79832D01*
Y78499D01*
X313499Y77833D01*
X311500D01*
X312833D02*
X314166Y76500D01*
X315499Y80499D02*
X318164D01*
Y79832D01*
X315499Y77166D01*
Y76500D01*
X319497Y79832D02*
X320164Y80499D01*
X321497D01*
X322163Y79832D01*
Y79166D01*
X321497Y78499D01*
X320830D01*
X321497D01*
X322163Y77833D01*
Y77166D01*
X321497Y76500D01*
X320164D01*
X319497Y77166D01*
X299000Y97000D02*
X295001D01*
Y98999D01*
X295668Y99666D01*
X297001D01*
X297667Y98999D01*
Y97000D01*
Y98333D02*
X299000Y99666D01*
X295001Y100999D02*
Y103665D01*
X295668D01*
X298334Y100999D01*
X299000D01*
Y106997D02*
X295001D01*
X297001Y104997D01*
Y107663D01*
X307000Y97500D02*
X303001D01*
Y99499D01*
X303668Y100166D01*
X305001D01*
X305667Y99499D01*
Y97500D01*
Y98833D02*
X307000Y100166D01*
X303001Y101499D02*
Y104165D01*
X303668D01*
X306334Y101499D01*
X307000D01*
X303001Y108163D02*
Y105497D01*
X305001D01*
X304334Y106830D01*
Y107497D01*
X305001Y108163D01*
X306334D01*
X307000Y107497D01*
Y106164D01*
X306334Y105497D01*
X319500Y96000D02*
Y99999D01*
X321499D01*
X322166Y99332D01*
Y97999D01*
X321499Y97333D01*
X319500D01*
X320833D02*
X322166Y96000D01*
X323499Y99999D02*
X326165D01*
Y99332D01*
X323499Y96666D01*
Y96000D01*
X330163Y99999D02*
X328830Y99332D01*
X327497Y97999D01*
Y96666D01*
X328164Y96000D01*
X329497D01*
X330163Y96666D01*
Y97333D01*
X329497Y97999D01*
X327497D01*
X314500Y97000D02*
X310501D01*
Y98999D01*
X311168Y99666D01*
X312501D01*
X313167Y98999D01*
Y97000D01*
Y98333D02*
X314500Y99666D01*
X310501Y100999D02*
Y103665D01*
X311168D01*
X313834Y100999D01*
X314500D01*
X310501Y104997D02*
Y107663D01*
X311168D01*
X313834Y104997D01*
X314500D01*
X292000Y63000D02*
X288001D01*
Y64999D01*
X288668Y65666D01*
X290001D01*
X290667Y64999D01*
Y63000D01*
Y64333D02*
X292000Y65666D01*
X288001Y66999D02*
Y69665D01*
X288668D01*
X291334Y66999D01*
X292000D01*
X288668Y70997D02*
X288001Y71664D01*
Y72997D01*
X288668Y73663D01*
X289334D01*
X290001Y72997D01*
X290667Y73663D01*
X291334D01*
X292000Y72997D01*
Y71664D01*
X291334Y70997D01*
X290667D01*
X290001Y71664D01*
X289334Y70997D01*
X288668D01*
X290001Y71664D02*
Y72997D01*
X299000Y76500D02*
Y80499D01*
X300999D01*
X301666Y79832D01*
Y78499D01*
X300999Y77833D01*
X299000D01*
X300333D02*
X301666Y76500D01*
X302999Y80499D02*
X305664D01*
Y79832D01*
X302999Y77166D01*
Y76500D01*
X306997Y77166D02*
X307664Y76500D01*
X308997D01*
X309663Y77166D01*
Y79832D01*
X308997Y80499D01*
X307664D01*
X306997Y79832D01*
Y79166D01*
X307664Y78499D01*
X309663D01*
X274500Y106500D02*
Y110499D01*
X276499D01*
X277166Y109832D01*
Y108499D01*
X276499Y107833D01*
X274500D01*
X275833D02*
X277166Y106500D01*
X278499Y109832D02*
X279165Y110499D01*
X280498D01*
X281165Y109832D01*
Y109166D01*
X280498Y108499D01*
X281165Y107833D01*
Y107167D01*
X280498Y106500D01*
X279165D01*
X278499Y107167D01*
Y107833D01*
X279165Y108499D01*
X278499Y109166D01*
Y109832D01*
X279165Y108499D02*
X280498D01*
X282497Y109832D02*
X283164Y110499D01*
X284497D01*
X285163Y109832D01*
Y107167D01*
X284497Y106500D01*
X283164D01*
X282497Y107167D01*
Y109832D01*
X241500Y61000D02*
Y64999D01*
X243499D01*
X244166Y64332D01*
Y62999D01*
X243499Y62333D01*
X241500D01*
X242833D02*
X244166Y61000D01*
X245499Y64332D02*
X246165Y64999D01*
X247498D01*
X248165Y64332D01*
Y63666D01*
X247498Y62999D01*
X248165Y62333D01*
Y61666D01*
X247498Y61000D01*
X246165D01*
X245499Y61666D01*
Y62333D01*
X246165Y62999D01*
X245499Y63666D01*
Y64332D01*
X246165Y62999D02*
X247498D01*
X249497Y61000D02*
X250830D01*
X250164D01*
Y64999D01*
X249497Y64332D01*
X152166Y288832D02*
X151499Y289499D01*
X150166D01*
X149500Y288832D01*
Y288166D01*
X150166Y287499D01*
X151499D01*
X152166Y286833D01*
Y286166D01*
X151499Y285500D01*
X150166D01*
X149500Y286166D01*
X153499Y289499D02*
Y285500D01*
X154832Y286833D01*
X156165Y285500D01*
Y289499D01*
X160163Y285500D02*
X157497D01*
X160163Y288166D01*
Y288832D01*
X159497Y289499D01*
X158164D01*
X157497Y288832D01*
X82500Y327500D02*
Y331499D01*
X84499D01*
X85166Y330832D01*
Y329499D01*
X84499Y328833D01*
X82500D01*
X83833D02*
X85166Y327500D01*
X86499Y330832D02*
X87165Y331499D01*
X88498D01*
X89165Y330832D01*
Y330166D01*
X88498Y329499D01*
X89165Y328833D01*
Y328166D01*
X88498Y327500D01*
X87165D01*
X86499Y328166D01*
Y328833D01*
X87165Y329499D01*
X86499Y330166D01*
Y330832D01*
X87165Y329499D02*
X88498D01*
X93163Y327500D02*
X90497D01*
X93163Y330166D01*
Y330832D01*
X92497Y331499D01*
X91164D01*
X90497Y330832D01*
X48500Y302000D02*
X44501D01*
Y303999D01*
X45168Y304666D01*
X46501D01*
X47167Y303999D01*
Y302000D01*
Y303333D02*
X48500Y304666D01*
X45168Y305999D02*
X44501Y306665D01*
Y307998D01*
X45168Y308664D01*
X45834D01*
X46501Y307998D01*
X47167Y308664D01*
X47834D01*
X48500Y307998D01*
Y306665D01*
X47834Y305999D01*
X47167D01*
X46501Y306665D01*
X45834Y305999D01*
X45168D01*
X46501Y306665D02*
Y307998D01*
X45168Y309997D02*
X44501Y310664D01*
Y311997D01*
X45168Y312663D01*
X45834D01*
X46501Y311997D01*
Y311330D01*
Y311997D01*
X47167Y312663D01*
X47834D01*
X48500Y311997D01*
Y310664D01*
X47834Y309997D01*
X71501Y288000D02*
Y290666D01*
Y289333D01*
X75500D01*
Y291999D02*
X71501D01*
Y293998D01*
X72168Y294665D01*
X73501D01*
X74167Y293998D01*
Y291999D01*
X71501Y295997D02*
Y298663D01*
X72168D01*
X74834Y295997D01*
X75500D01*
X171668Y322666D02*
X171001Y321999D01*
Y320666D01*
X171668Y320000D01*
X174334D01*
X175000Y320666D01*
Y321999D01*
X174334Y322666D01*
X175000Y323999D02*
Y325332D01*
Y324665D01*
X171001D01*
X171668Y323999D01*
X175000Y329997D02*
Y327331D01*
X172334Y329997D01*
X171668D01*
X171001Y329330D01*
Y327997D01*
X171668Y327331D01*
X8668Y79666D02*
X8001Y78999D01*
Y77666D01*
X8668Y77000D01*
X11333D01*
X12000Y77666D01*
Y78999D01*
X11333Y79666D01*
X12000Y80999D02*
Y82332D01*
Y81665D01*
X8001D01*
X8668Y80999D01*
Y84331D02*
X8001Y84997D01*
Y86330D01*
X8668Y86997D01*
X9334D01*
X10001Y86330D01*
Y85664D01*
Y86330D01*
X10667Y86997D01*
X11333D01*
X12000Y86330D01*
Y84997D01*
X11333Y84331D01*
X45000Y350499D02*
X47666D01*
X46333D01*
Y346500D01*
X48999D02*
Y350499D01*
X50998D01*
X51665Y349832D01*
Y348499D01*
X50998Y347833D01*
X48999D01*
X52997Y346500D02*
X54330D01*
X53664D01*
Y350499D01*
X52997Y349832D01*
X106000Y319000D02*
X102001D01*
Y320999D01*
X102668Y321666D01*
X104001D01*
X104667Y320999D01*
Y319000D01*
Y320333D02*
X106000Y321666D01*
Y322999D02*
Y324332D01*
Y323665D01*
X102001D01*
X102668Y322999D01*
D18*
X45003Y191000D02*
Y193666D01*
Y192333D01*
X53000D01*
Y191000D01*
Y193666D01*
X46336Y202996D02*
X45003Y201663D01*
Y198997D01*
X46336Y197664D01*
X51667D01*
X53000Y198997D01*
Y201663D01*
X51667Y202996D01*
X45003Y210994D02*
Y205662D01*
X53000D01*
Y210994D01*
X49001Y205662D02*
Y208328D01*
X45003Y213659D02*
X53000D01*
X50334Y216325D01*
X53000Y218991D01*
X45003D01*
Y226988D02*
Y221657D01*
X53000D01*
Y226988D01*
X49001Y221657D02*
Y224323D01*
X53000Y229654D02*
X45003D01*
Y233653D01*
X46336Y234986D01*
X49001D01*
X50334Y233653D01*
Y229654D01*
Y232320D02*
X53000Y234986D01*
X45003Y237652D02*
X53000Y242983D01*
X45003D02*
X53000Y237652D01*
X416335Y132332D02*
X415003Y130999D01*
Y128333D01*
X416335Y127000D01*
X417668D01*
X419001Y128333D01*
Y130999D01*
X420334Y132332D01*
X421667D01*
X423000Y130999D01*
Y128333D01*
X421667Y127000D01*
X423000Y134997D02*
X415003D01*
Y138996D01*
X416335Y140329D01*
X419001D01*
X420334Y138996D01*
Y134997D01*
X415003Y142995D02*
Y145661D01*
Y144328D01*
X423000D01*
Y142995D01*
Y145661D01*
X424333Y149659D02*
Y154991D01*
X416335Y162988D02*
X415003Y161655D01*
Y158990D01*
X416335Y157657D01*
X421667D01*
X423000Y158990D01*
Y161655D01*
X421667Y162988D01*
X419001D01*
Y160322D01*
X423000Y165654D02*
X415003D01*
Y169653D01*
X416335Y170986D01*
X419001D01*
X420334Y169653D01*
Y165654D01*
X415003Y173652D02*
Y176317D01*
Y174985D01*
X423000D01*
Y173652D01*
Y176317D01*
X415003Y184315D02*
Y181649D01*
X416335Y180316D01*
X421667D01*
X423000Y181649D01*
Y184315D01*
X421667Y185648D01*
X416335D01*
X415003Y184315D01*
X424333Y188313D02*
Y193645D01*
X415003Y196311D02*
Y198977D01*
Y197644D01*
X423000D01*
Y196311D01*
Y198977D01*
Y208307D02*
Y202975D01*
X417668Y208307D01*
X416335D01*
X415003Y206974D01*
Y204308D01*
X416335Y202975D01*
Y216304D02*
X415003Y214971D01*
Y212306D01*
X416335Y210973D01*
X421667D01*
X423000Y212306D01*
Y214971D01*
X421667Y216304D01*
X250500Y10000D02*
Y15332D01*
X253166Y17997D01*
X255832Y15332D01*
Y10000D01*
Y13999D01*
X250500D01*
X258497Y10000D02*
Y17997D01*
X263829Y10000D01*
Y17997D01*
X266495Y10000D02*
Y15332D01*
X269161Y17997D01*
X271826Y15332D01*
Y10000D01*
Y13999D01*
X266495D01*
X274492Y17997D02*
Y10000D01*
X279824D01*
X286488Y17997D02*
X283822D01*
X282490Y16665D01*
Y11333D01*
X283822Y10000D01*
X286488D01*
X287821Y11333D01*
Y16665D01*
X286488Y17997D01*
X295819Y16665D02*
X294486Y17997D01*
X291820D01*
X290487Y16665D01*
Y11333D01*
X291820Y10000D01*
X294486D01*
X295819Y11333D01*
Y13999D01*
X293153D01*
X298484Y8667D02*
X303816D01*
X306482Y17997D02*
X309148D01*
X307815D01*
Y10000D01*
X306482D01*
X309148D01*
X313146D02*
Y17997D01*
X318478Y10000D01*
Y17997D01*
X78832Y18497D02*
X73500D01*
Y14499D01*
X76166D01*
X73500D01*
Y10500D01*
X81497D02*
Y18497D01*
X85496D01*
X86829Y17165D01*
Y14499D01*
X85496Y13166D01*
X81497D01*
X94826Y17165D02*
X93493Y18497D01*
X90828D01*
X89495Y17165D01*
Y11833D01*
X90828Y10500D01*
X93493D01*
X94826Y11833D01*
Y14499D01*
X92161D01*
X97492Y10500D02*
Y15832D01*
X100158Y18497D01*
X102824Y15832D01*
Y10500D01*
Y14499D01*
X97492D01*
X105490Y9167D02*
X110821D01*
X118819Y17165D02*
X117486Y18497D01*
X114820D01*
X113487Y17165D01*
Y11833D01*
X114820Y10500D01*
X117486D01*
X118819Y11833D01*
Y14499D01*
X116153D01*
X121484Y10500D02*
Y18497D01*
X125483D01*
X126816Y17165D01*
Y14499D01*
X125483Y13166D01*
X121484D01*
X129482Y18497D02*
X132148D01*
X130815D01*
Y10500D01*
X129482D01*
X132148D01*
X140145Y18497D02*
X137479D01*
X136146Y17165D01*
Y11833D01*
X137479Y10500D01*
X140145D01*
X141478Y11833D01*
Y17165D01*
X140145Y18497D01*
M02*
